<?xml version="1.0" encoding="utf-8"?>
<!-- Generator: Adobe Illustrator 24.1.2, SVG Export Plug-In . SVG Version: 6.00 Build 0)  -->
<svg version="1.1" id="Слой_1" xmlns="http://www.w3.org/2000/svg" xmlns:xlink="http://www.w3.org/1999/xlink" x="0px" y="0px"
	 viewBox="0 0 102.5 43.3" style="enable-background:new 0 0 102.5 43.3;" xml:space="preserve">
<style type="text/css">
	.st0{fill:#637A9F;}
</style>
<g>
	<g>
		<path class="st0" d="M9,35.2c1.1-0.7,1.7-1.6,1.7-2.7c0-0.8-0.2-1.4-0.5-1.9c-0.3-0.5-0.8-1-1.3-1.3c-0.6-0.3-1.3-0.6-2-0.7
			c-0.8-0.1-1.7-0.2-2.5-0.2c-0.7,0-1.4,0-2.2,0.1c-0.7,0.1-1.5,0.1-2.2,0.3v14c0.8,0.2,1.6,0.3,2.4,0.3c0.8,0.1,1.6,0.1,2.4,0.1
			c2.2,0,3.8-0.4,4.9-1.2c1.1-0.8,1.7-1.9,1.7-3.4c0-0.7-0.2-1.4-0.5-2C10.5,36,9.9,35.5,9,35.2z M3.2,31.1C3.4,31,3.7,31,4,31
			c0.3,0,0.6,0,0.9,0c0.9,0,1.5,0.1,2,0.4c0.4,0.2,0.7,0.6,0.7,1.2c0,0.6-0.2,1-0.6,1.2c-0.4,0.3-1.1,0.4-2.1,0.4H3.2V31.1z
			 M7.2,40.1c-0.6,0.3-1.4,0.4-2.3,0.4c-0.3,0-0.6,0-0.9,0c-0.3,0-0.5,0-0.8-0.1v-3.7l2,0c0.9,0,1.6,0.1,2.1,0.4
			c0.5,0.3,0.7,0.8,0.7,1.4C8.1,39.3,7.8,39.8,7.2,40.1z M50.6,11.8l0.7,2.7c0.2-0.1,1.2-0.3,1.6-0.4c0.5-0.1,1-0.4,1.2-0.8l0,0l0,0
			l0,0l0,0l0,0l0,0l0,0l0,0l0,0l0,0l0,0l0,0l0,0l0,0l0,0l0,0l0,0l0,0l0,0l0,0l0,0l0,0l0,0l0,0l0,0l0,0l0,0l0,0l0,0l0,0l0,0l0,0l0,0
			l0,0l0,0l0,0l0,0l0,0l0,0l0,0l0,0l0,0l0,0l0,0l0,0l0,0l0,0l0,0l0,0c0.1-0.2,0.1-0.5,0.1-0.7l0,0l0,0l0,0l0,0c0,0,0,0,0,0l0,0l0,0
			l0,0c0,0,0,0,0,0c0,0,0,0,0,0l0,0l0,0c0,0,0,0,0,0l0,0c-0.1-0.2-0.2-0.4-0.4-0.6c0,0,0,0,0,0l0,0l0,0l0,0l0,0l0,0l0,0l0,0l0,0l0,0
			l0,0l0,0l0,0l0,0l0,0l0,0l0,0l0,0l0,0l0,0l0,0l0,0l0,0l0,0l0,0l0,0l0,0l0,0l0,0l0,0l0,0l0,0l0,0l0,0l0,0l0,0l0,0l0,0l0,0l0,0l0,0
			l0,0l0,0l0,0l0,0l0,0l0,0l0,0l0,0c-0.4-0.2-0.9-0.2-1.4-0.1C51.9,11.5,50.9,11.8,50.6,11.8z M12.6,42.9h3.1V32h-3.1V42.9z
			 M37.7,11.3c0-4.7,2.3-8.8,5.9-11.3H33.1v22.6h10.4C40,20.1,37.7,16,37.7,11.3z M40.2,11.3c0,6.2,5.1,11.3,11.3,11.3
			c6.2,0,11.3-5.1,11.3-11.3C62.8,5.1,57.7,0,51.5,0C45.2,0,40.2,5.1,40.2,11.3z M47.6,5.1l1.2-0.3l0.5,2l1-0.2l-0.5-2L51,4.2l0.5,2
			l0.2-0.1c0.8-0.2,1.6-0.1,2.2,0.2l0,0l0,0l0,0l0,0l0,0l0,0l0,0l0,0l0,0l0,0l0,0l0,0l0,0l0,0l0,0l0,0l0,0l0,0l0,0l0,0l0,0l0,0l0,0
			l0,0l0,0l0,0l0,0l0,0l0,0l0,0l0,0l0,0l0,0l0,0l0,0l0,0l0,0l0,0l0,0l0,0l0,0l0,0l0,0l0,0l0,0l0,0l0,0l0,0l0,0c0,0,0,0,0,0l0,0
			c0.3,0.3,0.6,0.6,0.7,1l0,0l0,0l0,0l0,0l0,0l0,0c0,0,0,0,0,0l0,0l0,0c0,0,0,0,0,0c0,0,0,0,0,0l0,0l0,0l0,0v0c0,0,0,0,0,0l0,0l0,0
			l0,0l0,0l0,0l0,0l0,0l0,0c0.1,0.4,0.1,0.8-0.1,1.2l0,0c0,0,0,0,0,0l0,0l0,0l0,0l0,0l0,0l0,0l0,0l0,0l0,0l0,0l0,0l0,0l0,0l0,0l0,0
			l0,0l0,0l0,0l0,0l0,0l0,0l0,0l0,0l0,0l0,0l0,0l0,0l0,0l0,0l0,0l0,0l0,0l0,0l0,0l0,0l0,0l0,0l0,0l0,0l0,0l0,0l0,0l0,0l0,0l0,0l0,0
			l0,0l0,0l0,0c-0.1,0.1-0.2,0.2-0.3,0.3c0.4,0,0.7,0.2,1,0.3c0,0,0,0,0,0l0,0l0,0l0,0l0,0l0,0l0,0l0,0l0,0l0,0l0,0l0,0l0,0l0,0l0,0
			l0,0l0,0l0,0l0,0l0,0l0,0l0,0l0,0l0,0l0,0l0,0l0,0l0,0l0,0l0,0l0,0l0,0l0,0l0,0l0,0l0,0l0,0l0,0l0,0l0,0l0,0l0,0l0,0l0,0l0,0l0,0
			l0,0l0,0l0,0c0,0,0,0,0,0l0,0c0.4,0.3,0.6,0.7,0.8,1.1l0,0l0,0l0,0l0,0l0,0l0,0l0,0c0,0,0,0,0,0l0,0l0,0c0,0,0,0,0,0.1
			c0,0,0,0,0,0.1l0,0l0,0l0,0l0,0l0,0l0,0l0,0l0,0l0,0l0,0l0,0l0,0l0,0l0,0v0c0,0,0,0,0,0l0,0l0,0l0,0l0,0l0,0l0,0l0,0
			c0.1,0.5,0.1,0.9-0.1,1.4l0,0c0,0,0,0,0,0l0,0l0,0l0,0l0,0l0,0l0,0l0,0l0,0l0,0l0,0l0,0l0,0l0,0l0,0l0,0l0,0l0,0l0,0l0,0l0,0l0,0
			l0,0l0,0l0,0l0,0l0,0l0,0l0,0l0,0l0,0l0,0l0,0l0,0l0,0l0,0l0,0l0,0l0,0l0,0l0,0l0,0l0,0l0,0l0,0l0,0l0,0l0,0l0,0l0,0
			c-0.4,0.7-1.2,1.2-2,1.4c-0.1,0-0.3,0.1-0.5,0.1l0.5,2l-1.2,0.3l-0.5-2l-1,0.2l0.5,2L51,18.3l-0.5-2L48,16.9L48,15.4l0.9-0.2
			c0.2-0.1,0.4-0.3,0.3-0.5l-1.4-5.4l0,0c-0.1-0.3-0.4-0.5-0.8-0.4L46,9l-0.3-1.3l2.5-0.6L47.6,5.1z M51.7,10.3
			c0.4-0.1,0.8-0.4,1-0.7l0,0l0,0l0,0l0,0l0,0l0,0l0,0l0,0l0,0l0,0l0,0l0,0l0,0l0,0l0,0l0,0l0,0l0,0l0,0l0,0l0,0l0,0l0,0l0,0l0,0
			l0,0l0,0l0,0l0,0l0,0l0,0l0,0l0,0l0,0l0,0l0,0l0,0l0,0l0,0l0,0l0,0l0,0l0,0l0,0l0,0l0,0l0,0l0,0l0,0c0.1-0.2,0.1-0.4,0.1-0.6l0,0
			c0,0,0,0,0,0l0,0l0,0c0,0,0,0,0,0c0,0,0,0,0,0l0,0l0,0c0,0,0,0,0,0l0,0c-0.1-0.2-0.2-0.4-0.4-0.5c0,0,0,0,0,0l0,0l0,0l0,0l0,0l0,0
			l0,0l0,0l0,0l0,0l0,0l0,0l0,0l0,0l0,0l0,0l0,0l0,0l0,0l0,0l0,0l0,0l0,0l0,0l0,0l0,0l0,0l0,0l0,0l0,0l0,0l0,0l0,0l0,0l0,0l0,0l0,0
			l0,0l0,0l0,0l0,0l0,0l0,0l0,0l0,0l0,0l0,0l0,0l0,0c-0.3-0.2-0.8-0.2-1.2-0.1c-0.3,0.1-1.1,0.3-1.3,0.3l0.6,2.4
			C50.5,10.6,51.4,10.3,51.7,10.3z M14.1,27c-0.5,0-0.9,0.2-1.3,0.5c-0.4,0.3-0.6,0.8-0.6,1.3c0,0.6,0.2,1,0.6,1.3
			c0.7,0.7,1.9,0.7,2.6,0c0.4-0.3,0.6-0.8,0.6-1.3s-0.2-1-0.6-1.3C15.1,27.2,14.6,27,14.1,27z M45.3,42.9h3.1V32h-3.1V42.9z
			 M71.4,39.8c-0.2,0.1-0.5,0.2-0.8,0.3c-0.3,0.1-0.7,0.2-1,0.2c-0.4,0.1-0.8,0.1-1.3,0.1c-0.7,0-1.4-0.1-1.9-0.4
			c-0.5-0.2-0.9-0.6-1.3-1c-0.3-0.4-0.6-0.9-0.7-1.5c-0.1-0.6-0.2-1.2-0.2-1.9c0-0.8,0.1-1.5,0.3-2.1c0.2-0.5,0.5-1,0.9-1.4
			c0.4-0.4,0.8-0.6,1.3-0.8c0.5-0.2,1-0.2,1.5-0.2c0.7,0,1.4,0.1,2,0.2c0.5,0.1,1.1,0.3,1.5,0.6l0.9-2.6c-0.1-0.1-0.3-0.2-0.5-0.3
			c-0.3-0.1-0.6-0.3-0.9-0.4c-0.4-0.1-0.9-0.2-1.3-0.3c-0.5-0.1-1.1-0.1-1.7-0.1c-1,0-2,0.2-2.9,0.5c-0.9,0.3-1.7,0.8-2.3,1.5
			c-0.7,0.7-1.2,1.5-1.5,2.4c-0.4,1-0.6,2.1-0.6,3.2c0,2.4,0.6,4.2,1.8,5.5c1.2,1.3,3,2,5.4,2c1,0,2-0.1,2.9-0.3
			c0.8-0.2,1.5-0.5,1.9-0.7L72,39.6C71.8,39.6,71.6,39.7,71.4,39.8z M81.5,32.9c-0.4-0.4-0.9-0.7-1.5-0.9c-0.6-0.2-1.4-0.3-2.3-0.3
			c-0.4,0-0.7,0-1.1,0c-0.4,0-0.7,0.1-1,0.1c-0.3,0.1-0.6,0.1-0.9,0.2c-0.3,0.1-0.5,0.1-0.7,0.2l0.4,2.5c0.4-0.2,0.9-0.3,1.3-0.3
			c0.5-0.1,1-0.1,1.6-0.1c0.8,0,1.3,0.2,1.7,0.5c0.3,0.3,0.5,0.7,0.5,1.3v0.3c-0.2-0.1-0.5-0.1-0.8-0.1c-0.4,0-0.7-0.1-1.1-0.1
			c-0.6,0-1.2,0.1-1.7,0.2c-0.5,0.1-1,0.3-1.5,0.6c-0.4,0.3-0.8,0.6-1,1.1c-0.3,0.5-0.4,1.1-0.4,1.6c0,0.7,0.1,1.2,0.3,1.7
			c0.2,0.4,0.5,0.8,1,1.1c0.5,0.3,1,0.5,1.5,0.6c0.6,0.1,1.3,0.2,1.9,0.2c1,0,1.9-0.1,2.9-0.2c0.8-0.1,1.4-0.2,1.8-0.3v-6.4
			c0-0.6-0.1-1.2-0.2-1.8C82.1,33.8,81.8,33.3,81.5,32.9z M79.5,40.7c-0.2,0-0.4,0.1-0.7,0.1c-0.3,0-0.6,0-0.9,0
			c-0.6,0-1-0.1-1.3-0.3c-0.3-0.2-0.5-0.5-0.5-1c0-0.2,0.1-0.4,0.2-0.6c0.1-0.2,0.3-0.3,0.5-0.4c0.2-0.1,0.4-0.2,0.7-0.2
			c0.3,0,0.5-0.1,0.8-0.1c0.2,0,0.5,0,0.7,0c0.2,0,0.4,0,0.6,0.1V40.7z M102.3,34.7c-0.1-0.6-0.4-1.1-0.7-1.6
			c-0.4-0.5-0.9-0.8-1.4-1c-0.6-0.2-1.3-0.4-2.2-0.4c-0.3,0-0.6,0-0.9,0.1c-0.3,0.1-0.5,0.1-0.8,0.2v-5.2l-3.1,0.5v15.6h3.1v-8.3
			c0.2-0.1,0.4-0.1,0.7-0.2c0.3-0.1,0.5-0.1,0.8-0.1c0.7,0,1.2,0.2,1.4,0.6c0.3,0.4,0.4,1.1,0.4,2.1v5.8h3.1v-6.2
			C102.5,36.1,102.4,35.4,102.3,34.7z M23.2,40.5c-0.3,0.1-0.7,0.1-1,0.1c-0.7,0-1.2-0.2-1.4-0.6c-0.2-0.4-0.3-0.9-0.3-1.6v-3.8h3.7
			V32h-3.7v-3.2l-3.1,0.5v0l0,9.2c0,0.6,0.1,1.3,0.2,1.9c0.1,0.5,0.3,1,0.7,1.5c0.4,0.4,0.8,0.8,1.3,1c0.6,0.2,1.3,0.3,2.1,0.3
			c0.6,0,1.1-0.1,1.7-0.2c0.4-0.1,0.8-0.2,1.2-0.4l-0.4-2.4C23.9,40.3,23.5,40.4,23.2,40.5z M58.6,33.1c-0.4-0.5-0.9-0.8-1.5-1
			c-0.6-0.2-1.4-0.4-2.3-0.4c-0.9,0-1.7,0.1-2.6,0.2c-0.7,0.1-1.4,0.2-2,0.4v10.5h3.1v-8.4c0.2,0,0.4-0.1,0.7-0.1c0.2,0,0.5,0,0.7,0
			c0.7,0,1.2,0.2,1.5,0.6c0.3,0.4,0.4,1.1,0.4,2.1v5.8h3.1v-6.2c0-0.7-0.1-1.4-0.2-2C59.2,34.1,59,33.6,58.6,33.1z M91.2,37.8
			c-0.3-0.3-0.7-0.6-1-0.8c-0.5-0.3-1.1-0.5-1.7-0.7c-0.3-0.1-0.6-0.2-0.8-0.3c-0.2-0.1-0.3-0.2-0.5-0.3c-0.1-0.1-0.2-0.2-0.2-0.3
			c0-0.1-0.1-0.2-0.1-0.3c0-0.5,0.5-0.8,1.5-0.8c0.5,0,1,0,1.4,0.1c0.4,0.1,0.8,0.2,1.2,0.3l0.5-2.4c-0.5-0.2-1-0.3-1.5-0.4
			c-0.6-0.1-1.3-0.2-1.9-0.2c-1.3,0-2.4,0.3-3.1,0.9c-0.8,0.6-1.1,1.4-1.1,2.4c0,0.5,0.1,0.9,0.2,1.4c0.1,0.4,0.4,0.7,0.6,1
			c0.3,0.3,0.6,0.5,1,0.7c0.4,0.2,0.9,0.4,1.3,0.6c0.5,0.2,1,0.4,1.4,0.6c0.3,0.2,0.5,0.4,0.5,0.7c0,0.3-0.1,0.5-0.4,0.6
			c-0.2,0.1-0.6,0.2-1.2,0.2c-0.5,0-1.1-0.1-1.6-0.2c-0.6-0.1-1.1-0.3-1.6-0.5l-0.5,2.5c0.4,0.2,0.9,0.3,1.3,0.4
			c0.8,0.2,1.6,0.3,2.4,0.2c1.5,0,2.6-0.3,3.4-0.8c0.8-0.5,1.2-1.4,1.2-2.4c0-0.4,0-0.8-0.2-1.2C91.6,38.4,91.5,38.1,91.2,37.8z
			 M46.8,27c-0.5,0-0.9,0.2-1.3,0.5c-0.4,0.3-0.6,0.8-0.6,1.3c0,0.6,0.2,1,0.6,1.3c0.7,0.7,1.9,0.7,2.6,0c0.4-0.3,0.6-0.8,0.6-1.3
			s-0.2-1-0.6-1.3C47.8,27.2,47.3,27,46.8,27z M42.6,33.3c-0.5-0.5-1.1-0.9-1.7-1.2c-0.7-0.3-1.4-0.4-2.2-0.4
			c-0.7,0-1.5,0.1-2.2,0.4c-0.6,0.3-1.2,0.7-1.7,1.2c-0.5,0.5-0.9,1.1-1.1,1.8c-0.3,0.8-0.4,1.5-0.4,2.3c0,0.8,0.1,1.6,0.4,2.4
			c0.2,0.7,0.6,1.3,1.1,1.8c0.5,0.5,1.1,0.9,1.7,1.2c1.4,0.6,3,0.6,4.4,0c0.6-0.3,1.2-0.7,1.7-1.2c0.5-0.5,0.9-1.1,1.1-1.8
			c0.3-0.8,0.4-1.6,0.4-2.4c0-0.8-0.1-1.6-0.4-2.3C43.5,34.5,43.1,33.8,42.6,33.3z M40.3,39.7c-0.4,0.6-0.9,0.8-1.6,0.8
			c-0.7,0-1.3-0.3-1.6-0.8c-0.4-0.6-0.6-1.3-0.6-2.3c0-0.9,0.2-1.7,0.6-2.2c0.4-0.5,0.9-0.8,1.6-0.8c0.7,0,1.2,0.3,1.6,0.8
			c0.4,0.5,0.6,1.3,0.6,2.2C40.9,38.4,40.7,39.2,40.3,39.7z M31.8,40.5c-0.4,0.1-0.8,0.1-1.2,0.1c-1,0-1.8-0.3-2.2-0.8
			c-0.4-0.5-0.6-1.3-0.6-2.3c0-0.9,0.2-1.7,0.7-2.2c0.4-0.6,1.1-0.9,2-0.9c0.4,0,0.8,0,1.2,0.1c0.3,0.1,0.6,0.2,1,0.3l0.6-2.5
			c-0.5-0.2-0.9-0.3-1.4-0.4c-0.5-0.1-1.1-0.2-1.6-0.2c-0.8,0-1.6,0.1-2.4,0.5c-1.3,0.6-2.4,1.7-2.9,3.1c-0.3,0.7-0.4,1.5-0.4,2.2
			c0,0.8,0.1,1.5,0.3,2.3c0.2,0.7,0.5,1.3,1,1.8c0.5,0.5,1.1,0.9,1.8,1.2c0.7,0.3,1.6,0.4,2.6,0.4c0.6,0,1.2-0.1,1.8-0.2
			c0.5-0.1,0.9-0.2,1.4-0.4L33,40.2C32.6,40.3,32.2,40.4,31.8,40.5z M65.3,11.3c0,4.7-2.3,8.8-5.9,11.3h10.4V0H59.4
			C63,2.5,65.3,6.6,65.3,11.3z"/>
	</g>
</g>
</svg>
