<?xml version="1.0" encoding="utf-8"?>
<!-- Generator: Adobe Illustrator 24.1.2, SVG Export Plug-In . SVG Version: 6.00 Build 0)  -->
<svg version="1.1" id="Слой_1" xmlns="http://www.w3.org/2000/svg" xmlns:xlink="http://www.w3.org/1999/xlink" x="0px" y="0px"
	 viewBox="0 0 30.2 18.7" style="enable-background:new 0 0 30.2 18.7;" xml:space="preserve">
<style type="text/css">
	.st0{fill-rule:evenodd;clip-rule:evenodd;fill:#637A9F;}
</style>
<g>
	<g>
		<path class="st0" d="M3.7,9.3c0-3.9,1.9-7.3,4.9-9.3H0v18.6h8.6C5.6,16.6,3.7,13.2,3.7,9.3z M16.1,7.9L16.1,7.9L16.1,7.9L16.1,7.9
			L16.1,7.9L16.1,7.9L16.1,7.9L16.1,7.9L16.1,7.9L16.1,7.9L16.1,7.9L16.1,7.9L16.1,7.9L16.1,7.9L16.1,7.9L16.1,7.9L16.1,7.9
			L16.1,7.9L16.1,7.9L16.1,7.9L16.1,7.9L16.1,7.9L16.1,7.9L16.1,7.9l0.1-0.1l0,0l0,0l0,0l0,0l0,0l0,0l0,0l0,0l0,0l0,0l0,0l0,0l0,0
			l0,0l0,0l0,0l0,0l0,0l0,0l0,0l0,0l0,0l0,0l0,0l0,0c0.1-0.2,0.1-0.3,0.1-0.5l0,0c0,0,0,0,0,0l0,0l0,0c0,0,0,0,0,0c0,0,0,0,0,0l0,0
			l0,0c0,0,0,0,0,0l0,0c-0.1-0.2-0.2-0.3-0.3-0.4c0,0,0,0,0,0l0,0l0,0l0,0l0,0l0,0l0,0l0,0l0,0l0,0l0,0l0,0l0,0l0,0l0,0l0,0l0,0l0,0
			l0,0l0,0l0,0l0,0l0,0l0,0l0,0l0,0l0,0l0,0l0,0l0,0l0,0l0,0l0,0l0,0l0,0l0,0l0,0l0,0l0,0l0,0l0,0l0,0l0,0l0,0l0,0l0,0l0,0l0,0l0,0
			c-0.3-0.1-0.6-0.2-1-0.1c-0.2,0.1-0.9,0.2-1.1,0.3l0.5,2c0.2,0,0.9-0.2,1.1-0.3C15.6,8.4,15.9,8.2,16.1,7.9z M17.5,10.2L17.5,10.2
			L17.5,10.2L17.5,10.2C17.5,10.2,17.5,10.2,17.5,10.2L17.5,10.2L17.5,10.2L17.5,10.2C17.5,10.1,17.5,10.1,17.5,10.2
			C17.5,10.1,17.5,10.1,17.5,10.2L17.5,10.2L17.5,10.2C17.5,10.1,17.5,10.1,17.5,10.2L17.5,10.2c-0.1-0.3-0.2-0.4-0.4-0.6
			c0,0,0,0,0,0l0,0l0,0l0,0l0,0l0,0l0,0l0,0l0,0l0,0l0,0l0,0l0,0l0,0l0,0l0,0l0,0l0,0l0,0l0,0l0,0l0,0l0,0l0,0l0,0l0,0l0,0l0,0l0,0
			l0,0l0,0l0,0l0,0l0,0l0,0l0,0l0,0l0,0l0,0l0,0l0,0l0,0l0,0l0,0l0,0l0,0l0,0l0,0l0,0c-0.3-0.1-0.8-0.2-1.2-0.1
			c-0.3,0.1-1.1,0.3-1.3,0.3l0.6,2.2c0.2-0.1,1-0.3,1.3-0.3c0.4-0.1,0.8-0.3,1-0.6l0,0l0,0l0,0l0,0l0,0l0,0l0,0l0,0l0,0l0,0l0,0l0,0
			l0,0l0,0l0,0l0,0l0,0l0,0l0,0l0,0l0,0l0,0l0,0l0,0l0,0l0,0l0,0l0,0l0,0l0,0l0,0l0,0l0,0l0,0l0,0l0,0l0,0l0,0l0,0l0,0l0,0l0,0l0,0
			l0,0l0,0l0,0l0,0l0,0l0,0C17.5,10.6,17.6,10.4,17.5,10.2L17.5,10.2z M24.4,9.3c0-5.1-4.2-9.3-9.3-9.3C9.9,0,5.8,4.2,5.8,9.3
			c0,5.1,4.2,9.3,9.3,9.3C20.2,18.6,24.4,14.5,24.4,9.3z M19.4,11L19.4,11C19.4,11,19.4,11,19.4,11L19.4,11L19.4,11L19.4,11L19.4,11
			L19.4,11L19.4,11L19.4,11L19.4,11l0,0.1l0,0l0,0l0,0l0,0l0,0l0,0l0,0l0,0l0,0l0,0l0,0l0,0l0,0l0,0l0,0l0,0l0,0l0,0l0,0l0,0l0,0
			l0,0l0,0l0,0l0,0l0,0l0,0l0,0l0,0l0,0l0,0l0,0l0,0l0,0l0,0l0,0l0,0l0,0l0,0l0,0c-0.4,0.5-1,1-1.7,1.2c-0.1,0-0.2,0.1-0.4,0.1
			l0.4,1.7l-1,0.3l-0.4-1.7l-0.8,0.2l0.4,1.7l-1,0.3l-0.4-1.7l-2,0.5l0-1.3l0.7-0.2c0.2,0,0.3-0.2,0.2-0.4L12,7.6l0,0
			c-0.1-0.3-0.3-0.4-0.6-0.4l-0.8,0.2l-0.3-1.1l2-0.5l-0.4-1.7l1-0.3l0.4,1.7l0.8-0.2l-0.4-1.7l1-0.3l0.4,1.7l0.2,0
			c0.7-0.2,1.3-0.1,1.8,0.2l0,0l0,0l0,0l0,0l0,0l0,0l0,0l0,0l0,0l0,0l0,0l0,0l0,0l0,0l0,0l0,0l0,0l0,0l0,0l0,0l0,0l0,0l0,0l0,0l0,0
			l0,0l0,0l0,0l0,0l0,0l0,0l0,0l0,0l0,0l0,0l0,0l0,0l0,0l0,0l0,0l0,0l0,0l0,0l0,0l0,0l0,0l0,0l0,0l0,0c0,0,0,0,0,0l0,0
			C17.7,5.7,17.9,6,18,6.4l0,0l0,0l0,0l0,0l0,0l0,0l0,0c0,0,0,0,0,0l0,0l0,0c0,0,0,0,0,0c0,0,0,0,0,0l0,0l0,0l0,0v0c0,0,0,0,0,0l0,0
			l0,0l0,0l0,0l0,0l0,0l0,0l0,0c0.1,0.3,0,0.7-0.1,1l0,0c0,0,0,0,0,0l0,0l0,0l0,0l0,0l0,0l0,0l0,0l0,0l0,0l0,0l0,0l0,0l0,0l0,0l0,0
			l0,0l0,0l0,0l0,0l0,0l0,0l0,0l0,0l0,0l0,0l0,0l0,0l0,0l0,0l0,0l0,0l0,0l0,0l0,0l0,0l0,0l0,0l0,0l0,0l0,0l0,0l0,0l0,0l0,0l0,0l0,0
			l0,0l0,0l0,0c-0.1,0.1-0.1,0.2-0.2,0.3c0.3,0,0.6,0.1,0.9,0.3c0,0,0,0,0,0l0,0l0,0l0,0l0,0l0,0l0,0l0,0l0,0l0,0l0,0l0,0l0,0l0,0
			l0,0l0,0l0,0l0,0l0,0l0,0l0,0l0,0l0,0l0,0l0,0l0,0l0,0l0,0l0,0l0,0l0,0l0,0l0,0l0,0l0,0l0,0l0,0l0,0l0,0l0,0l0,0l0,0l0,0l0,0l0,0
			l0,0l0,0l0,0l0,0c0,0,0,0,0,0l0,0c0.3,0.2,0.5,0.6,0.6,0.9l0,0l0,0l0,0l0,0l0,0l0,0l0,0c0,0,0,0,0,0l0,0l0,0c0,0,0,0,0,0
			c0,0,0,0,0,0l0,0l0,0l0,0l0,0l0,0l0,0l0,0l0,0l0,0l0,0l0,0l0,0l0,0l0,0v0c0,0,0,0,0,0l0,0l0,0l0,0l0,0l0,0l0,0l0,0l0,0
			C19.6,10.2,19.5,10.6,19.4,11z M21.6,0c2.9,2.1,4.9,5.5,4.9,9.3s-1.9,7.3-4.9,9.3h8.6V0H21.6z"/>
	</g>
</g>
</svg>
