<?xml version="1.0" encoding="utf-8"?>
<!-- Generator: Adobe Illustrator 24.1.2, SVG Export Plug-In . SVG Version: 6.00 Build 0)  -->
<svg version="1.1" id="Слой_1" xmlns="http://www.w3.org/2000/svg" xmlns:xlink="http://www.w3.org/1999/xlink" x="0px" y="0px"
	 viewBox="0 0 22.3 22.4" style="enable-background:new 0 0 22.3 22.4;" xml:space="preserve">
<style type="text/css">
	.st0{fill-rule:evenodd;clip-rule:evenodd;fill:#637A9F;}
</style>
<g>
	<g>
		<path class="st0" d="M10,11.3L9.3,14c0.8,0.2,3.3,1,3.7-0.5C13.4,12,10.8,11.5,10,11.3z M13.1,13.3C13.3,12.4,13.2,13,13.1,13.3
			L13.1,13.3z M10.9,7.6l-0.6,2.5c0.7,0.2,2.8,0.9,3.1-0.5C13.8,8.1,11.6,7.8,10.9,7.6z M13.6,0.3C7.7-1.2,1.8,2.5,0.3,8.5
			c-1.5,6,2.1,12.1,8,13.6c5.9,1.5,11.8-2.2,13.3-8.2C23.1,7.9,19.5,1.8,13.6,0.3z M15.8,9.6c-0.2,1.1-0.8,1.6-1.5,1.8
			c1.1,0.6,1.6,1.5,1.1,3c-0.6,1.9-2.2,2.1-4.2,1.7l-0.5,2l-1.2-0.3l0.5-2c-0.3-0.1-0.6-0.2-1-0.3l-0.5,2l-1.2-0.3l0.5-2
			C7.5,15.1,7.2,15,6.9,15l-1.6-0.4l0.6-1.4c0,0,0.9,0.2,0.9,0.2c0.3,0.1,0.5-0.1,0.6-0.3l0.8-3.2c0,0,0.1,0,0.1,0c0,0-0.1,0-0.1,0
			l0.6-2.3c0-0.3-0.1-0.6-0.6-0.7c0,0-0.9-0.2-0.9-0.2l0.3-1.3l1.7,0.4l0,0C9.5,5.8,9.8,5.9,10,5.9l0.5-2l1.2,0.3l-0.5,2
			c0.3,0.1,0.6,0.2,1,0.2l0.5-2l1.2,0.3l-0.5,2C14.9,7.3,16,8.1,15.8,9.6z M22.2,11.4C22.3,11.2,22.3,11.2,22.2,11.4L22.2,11.4z
			 M22.1,12c-0.1,0.2-0.1,0.5-0.2,0.8C21.9,12.5,22,12.2,22.1,12z"/>
	</g>
</g>
</svg>
