<?xml version="1.0" encoding="utf-8"?>
<!-- Generator: Adobe Illustrator 24.1.2, SVG Export Plug-In . SVG Version: 6.00 Build 0)  -->
<svg version="1.1" id="Слой_1" xmlns="http://www.w3.org/2000/svg" xmlns:xlink="http://www.w3.org/1999/xlink" x="0px" y="0px"
	 viewBox="0 0 25.9 24" style="enable-background:new 0 0 25.9 24;" xml:space="preserve">
<style type="text/css">
	.st0{fill-rule:evenodd;clip-rule:evenodd;fill:#637A9F;}
</style>
<g>
	<g>
		<path class="st0" d="M14.7,9.2v2c-0.1,0-0.5,0-1.5,0c-0.8,0-1.3,0-1.5,0v-2c-2.9,0.1-5.1,0.6-5.1,1.3c0,0.6,2.2,1.1,5.1,1.3v0
			c0.2,0,0.7,0,1.5,0c1,0,1.4,0,1.5,0v0c2.9-0.1,5.1-0.6,5.1-1.3C19.8,9.8,17.6,9.3,14.7,9.2z M17.5,17.8l3.9,2.3l3.9-2.3l-3.9-6.5
			L17.5,17.8z M17.5,18.5l3.9,5.5l3.9-5.5l-3.9,2.3L17.5,18.5z M15.8,18.4L21.5,9l2.2,3.6l2.3-2.3L21.1,0H5L0,10.3L13.1,23l3.5-3.5
			L15.8,18.4L15.8,18.4z M14.7,17.9h-3v-5.7c-3.3-0.2-5.8-0.8-5.8-1.6c0-0.8,2.5-1.4,5.8-1.6V7.2H7.6V4.4h11.1v2.7h-4.1V9l0,0
			c3.3,0.2,5.8,0.8,5.8,1.6c0,0.8-2.5,1.4-5.8,1.6V17.9z"/>
	</g>
</g>
</svg>
