<?xml version="1.0" encoding="utf-8"?>
<!-- Generator: Adobe Illustrator 24.1.2, SVG Export Plug-In . SVG Version: 6.00 Build 0)  -->
<svg version="1.1" id="Слой_1" xmlns="http://www.w3.org/2000/svg" xmlns:xlink="http://www.w3.org/1999/xlink" x="0px" y="0px"
	 viewBox="0 0 123.9 33.7" style="enable-background:new 0 0 123.9 33.7;" xml:space="preserve">
<style type="text/css">
	.st0{fill:#637A9F;}
</style>
<g>
	<g>
		<path class="st0" d="M53.9,14.4c-1.4,0-2.5,0.8-3.2,2V7.3c0-0.2-0.2-0.4-0.4-0.4c-0.2,0-0.4,0.2-0.4,0.4v16c0,0.2,0.2,0.4,0.5,0.4
			c0.2,0,0.3-0.2,0.3-0.4v-3.7c0,0,0-0.3,0-0.3c-0.1-2.1,0.9-4.2,3.2-4.2c1.8,0,2.7,1.6,2.7,3.3v4.9c0,0.2,0.2,0.4,0.4,0.4
			c0.2,0,0.4-0.2,0.4-0.4v-4.9C57.4,16.4,56.1,14.4,53.9,14.4z M31.5,14.4c-2.5,0-4.4,2.3-4.4,4.8c0,2.5,1.8,4.8,4.4,4.8
			c1.5,0,3-0.7,3.8-2c0-0.1,0.1-0.1,0-0.3c0-0.1-0.1-0.2-0.2-0.3c-0.2-0.1-0.4,0-0.5,0.2c-0.8,1.1-1.8,1.6-3.1,1.6
			c-2,0-3.4-1.7-3.6-3.6h7.6c0.2,0,0.4-0.2,0.4-0.4C35.8,16.7,34,14.4,31.5,14.4z M27.9,18.8c0.2-1.9,1.6-3.6,3.6-3.6
			c2,0,3.4,1.7,3.6,3.6H27.9z M45,14.6h-2v-3c0-0.2-0.2-0.4-0.5-0.4c-0.2,0-0.3,0.2-0.3,0.4v2.9h-1.9c-0.2,0-0.4,0.2-0.4,0.4
			c0,0.2,0.2,0.4,0.4,0.4h1.9v8c0,0.2,0.2,0.4,0.4,0.4c0.2,0,0.4-0.2,0.4-0.4v-8h2c0.2,0,0.4-0.2,0.4-0.4
			C45.4,14.8,45.2,14.6,45,14.6z M88.2,14.4c-2.5,0-4.4,2.3-4.4,4.8c0,2.5,1.8,4.8,4.4,4.8c1.5,0,3-0.7,3.8-2c0-0.1,0.1-0.1,0-0.3
			c0-0.1-0.1-0.2-0.2-0.3c-0.2-0.1-0.4,0-0.5,0.2c-0.8,1.1-1.8,1.6-3.1,1.6c-2,0-3.4-1.7-3.6-3.6h7.6c0.2,0,0.4-0.2,0.4-0.4
			C92.6,16.7,90.8,14.4,88.2,14.4z M84.7,18.8c0.2-1.9,1.6-3.6,3.6-3.6c2,0,3.4,1.7,3.6,3.6H84.7z M66.5,14.4
			c-2.5,0-4.4,2.3-4.4,4.8c0,2.5,1.8,4.8,4.4,4.8c1.5,0,3-0.7,3.8-2c0-0.1,0.1-0.1,0-0.3c0-0.1-0.1-0.2-0.2-0.3
			c-0.2-0.1-0.4,0-0.5,0.2c-0.8,1.1-1.8,1.6-3.1,1.6c-2,0-3.4-1.7-3.6-3.6h7.6c0.2,0,0.4-0.2,0.4-0.4C70.9,16.7,69.1,14.4,66.5,14.4
			z M63,18.8c0.2-1.9,1.6-3.6,3.6-3.6c2,0,3.4,1.7,3.6,3.6H63z M120.4,14.4c-1.6,0-2.8,1-3.4,2.4c-0.5-1.5-1.7-2.4-3.2-2.4
			c-1.4,0-2.5,0.8-3.2,1.9V15c0-0.2-0.2-0.4-0.5-0.4c-0.2,0-0.3,0.2-0.3,0.4v8.4c0,0.2,0.2,0.4,0.5,0.4c0.2,0,0.3-0.2,0.3-0.4v-3.7
			c0,0,0-0.1,0-0.2c-0.1-2.4,0.9-4.3,3.2-4.3c1.8,0,2.7,1.6,2.7,3.3v4.9c0,0.2,0.2,0.4,0.4,0.4c0.2,0,0.4-0.2,0.4-0.4v-3.8
			c0-1.9,0.9-4.4,3.1-4.4c1.8,0,2.7,1.6,2.7,3.3v4.9c0,0.2,0.2,0.4,0.4,0.4c0.2,0,0.4-0.2,0.4-0.4v-4.9h0
			C123.9,16.3,122.7,14.4,120.4,14.4z M104.5,14.6c-0.3-0.1-0.5,0.1-0.5,0.4v3.1c0,2.7-0.6,5.1-3.1,5.1c-1.8,0-2.7-1.6-2.7-3.3V15
			c0-0.2-0.2-0.4-0.4-0.4c-0.2,0-0.4,0.2-0.4,0.4v4.9c0,2.1,1.2,4,3.5,4c1.4,0,2.5-0.9,3.1-2.2v1.6c0,0.2,0.2,0.4,0.4,0.4
			c0.2,0,0.4-0.2,0.4-0.4V15C104.8,14.8,104.7,14.7,104.5,14.6z M79.8,14.6c-1.3,0-2.5,1-3.2,2.1V15c0-0.2-0.2-0.4-0.5-0.4
			c-0.2,0-0.3,0.2-0.3,0.4v8.3c0,0.2,0.2,0.4,0.5,0.4c0.2,0,0.3-0.2,0.3-0.4v-3.7c0-2.1,1-4,3.2-4.3c0.2,0,0.4-0.2,0.4-0.4
			C80.2,14.7,80,14.6,79.8,14.6z M20.7,17.2L10.3,0L0,17.2l10.3,6.1L20.7,17.2z M0,19.1l10.3,14.6l10.3-14.6l-10.3,6.1L0,19.1z"/>
	</g>
</g>
</svg>
