<?xml version="1.0" encoding="utf-8"?>
<!-- Generator: Adobe Illustrator 24.1.2, SVG Export Plug-In . SVG Version: 6.00 Build 0)  -->
<svg version="1.1" id="Слой_1" xmlns="http://www.w3.org/2000/svg" xmlns:xlink="http://www.w3.org/1999/xlink" x="0px" y="0px"
	 viewBox="0 0 120.3 34.4" style="enable-background:new 0 0 120.3 34.4;" xml:space="preserve">
<style type="text/css">
	.st0{fill:#637A9F;}
</style>
<g>
	<g>
		<path class="st0" d="M46.6,25.9h4.6V9h-4.6V25.9z M49,0c-1.7,0-3.1,1.2-3.2,2.9c0,1.7,1.4,2.9,3.1,2.9S52,4.6,52,2.9
			C52,1.2,50.6,0,49,0z M37.7,10.7V9h-4.4v17H38v-9.5c0-2,2.1-3.6,4.2-3.6c0.7,0,1.4,0.1,1.7,0.2l0.4-4.3c-0.6,0-0.9-0.1-1.6-0.1
			C40.7,8.6,38.7,9.4,37.7,10.7z M120.3,17.2c0-4.7-3.4-8.6-8.1-8.6c-5.1,0-8.4,4.2-8.4,8.9c0,5.4,3.8,8.9,8.9,8.9
			c2.6,0,5.3-1.1,7-3l-2.6-2.6c-0.8,0.8-2.4,1.9-4.3,1.9c-2.5,0-4.4-1.7-4.6-4h12C120.3,18.1,120.3,17.6,120.3,17.2z M108.4,15.3
			c0.1-1.6,1.7-3,3.6-3c1.9,0,3.3,1.6,3.4,3H108.4z M64.8,8.6c-1.9,0-3.6,0.7-5,1.7V9h-4.5v25.4H60v-9.7c1.4,1,2.8,1.6,4.6,1.6
			c2.5,0,5-1.1,6.4-2.9c1.4-1.6,2.1-3.6,2.1-5.9C73.2,12.5,69.5,8.6,64.8,8.6z M64.3,22.1c-2.8,0-4.7-1.9-4.7-4.7
			c0-2.8,1.9-4.7,4.7-4.7c2.5,0,4.4,2.1,4.4,4.7C68.7,20.1,66.6,22.1,64.3,22.1z M96.5,25.9h4.6V1h-4.6V25.9z M85.4,8.6
			c-1.9,0-3.6,0.7-5,1.7V9H76v25.4h4.6v-9.7c1.4,1,2.8,1.6,4.6,1.6c2.5,0,5-1.1,6.4-2.9c1.4-1.6,2.1-3.6,2.1-5.9
			C93.8,12.5,90,8.6,85.4,8.6z M84.8,22.1c-2.8,0-4.7-1.9-4.7-4.7c0-2.8,1.9-4.7,4.7-4.7c2.5,0,4.4,2.1,4.4,4.7
			C89.2,20.1,87.2,22.1,84.8,22.1z M20.6,14.2c1.1,0,2.4-0.2,3.4-0.8c1.9-1.1,3.1-3.1,3.1-5.3c0-2.1-1.1-4.2-3.1-5.3
			C23,2.2,21.9,2,20.9,2c-1,0-2.1,0.2-3,0.8c-1.9,1.1-3.1,3.1-3.1,5.3c0,1.1,0.5,2.2,1,3.3c0.5,0.9,0.7,2.5-0.9,3.3
			c-1.1,0.7-2.6,0.2-3.3-0.9c-0.7-0.9-1.5-1.8-2.5-2.5c-1.9-1.1-4.2-1.1-6.1,0C1.1,12.3,0,14.4,0,16.5c0,2.1,1.1,4.2,3.1,5.3
			c1.9,1.1,4.2,1.1,6.1,0c1-0.6,1.8-1.5,2.4-2.5c0.5-0.8,1.7-1.8,3.3-0.9c1.1,0.7,1.5,2.1,0.9,3.3c-0.6,1-0.9,2.1-0.9,3.3
			c0,2.1,1.1,4.2,3.1,5.3c1.9,1.1,4.2,1.1,6.1,0c1.9-1.1,3.1-3.1,3.1-5.3c0-2.1-1.1-4.2-3.1-5.3c-1-0.6-2.1-0.8-3.4-0.8
			c-1,0-2.4-0.7-2.4-2.4C18.2,15.2,19.2,14.2,20.6,14.2z"/>
	</g>
</g>
</svg>
