<?xml version="1.0" encoding="utf-8"?>
<!-- Generator: Adobe Illustrator 24.1.2, SVG Export Plug-In . SVG Version: 6.00 Build 0)  -->
<svg version="1.1" id="Слой_1" xmlns="http://www.w3.org/2000/svg" xmlns:xlink="http://www.w3.org/1999/xlink" x="0px" y="0px"
	 viewBox="0 0 24.7 24.3" style="enable-background:new 0 0 24.7 24.3;" xml:space="preserve">
<style type="text/css">
	.st0{fill-rule:evenodd;clip-rule:evenodd;fill:#637A9F;}
</style>
<g>
	<g>
		<path class="st0" d="M17.5,16.4L17.5,16.4c0.2,0.3,0.5,0.6,0.7,0.8c0.5,0.6,1,1.2,1.5,1.9c0.3-0.3,0.5-0.6,0.8-0.8
			c0.3-0.4,0.7-0.7,1-1.1c-1-0.3-2.1-0.5-3.1-0.8c-0.2,0-0.4-0.1-0.6-0.1c-0.2,0-0.4-0.1-0.6-0.2c0,0,0.1,0.1,0.1,0.1
			C17.4,16.2,17.5,16.3,17.5,16.4z M19.3,12.4c1.3,0,2.4,0.4,3.4,1c0.1-0.6,0.2-1.3,0.2-1.9C22.9,5.1,17.8,0,11.5,0
			C5.1,0,0,5.1,0,11.4c0,6.3,5.1,11.4,11.5,11.4c0.9,0,1.7-0.1,2.6-0.3c-0.7-1.1-1.2-2.3-1.2-3.7C12.8,15.3,15.8,12.4,19.3,12.4z
			 M12.7,18.4H9.9V13c-3.2-0.1-5.6-0.8-5.6-1.5c0-0.8,2.4-1.4,5.6-1.5V8.2H6V5.6h10.6v2.6h-3.9v1.7l0,0c3.2,0.1,5.5,0.8,5.5,1.5
			c0,0.8-2.4,1.4-5.5,1.5V18.4z M12.7,10.1V12c-0.1,0-0.5,0-1.4,0c-0.7,0-1.3,0-1.4,0v-1.9C7.1,10.2,5,10.7,5,11.3
			c0,0.6,2.1,1.1,4.9,1.2v0c0.2,0,0.7,0,1.4,0c0.9,0,1.3,0,1.4,0v0c2.8-0.1,4.9-0.6,4.9-1.2C17.6,10.7,15.5,10.2,12.7,10.1z
			 M19.4,13.6c-2.9,0-5.3,2.4-5.3,5.3c0,3,2.4,5.3,5.3,5.3s5.3-2.4,5.3-5.3C24.7,16,22.3,13.6,19.4,13.6z M23.2,17.8
			c-0.2,0.3-0.5,0.7-0.7,1c-0.1,0.2-0.3,0.4-0.4,0.6c-0.3,0.5-0.7,1-1,1.5l-1.4,2.1c0,0.1-0.1,0.1-0.2,0.1h0c-0.1,0-0.1-0.1-0.2-0.1
			c-0.4-1.1-0.8-2.1-1.1-3.2c-0.5-1.4-1-2.8-1.5-4.1l0,0v-0.1l0,0c0,0,0-0.1,0.1-0.1l0,0c0,0,0,0,0.1,0c0.1,0,0.2,0,0.2,0
			c0,0,0,0,0.1,0c0.8,0.2,1.5,0.4,2.3,0.6c0.9,0.2,1.7,0.4,2.6,0.6l0,0c0.1,0,0.1,0,0.1,0.1c0,0,0,0,0,0c0.3,0.2,0.7,0.5,1,0.7
			C23.2,17.6,23.2,17.7,23.2,17.8L23.2,17.8L23.2,17.8z M21.9,17.2C21.9,17.2,21.9,17.3,21.9,17.2c-0.1,0.1-0.1,0.1-0.1,0.1l0,0
			c-0.3,0.3-0.5,0.6-0.8,0.8c-0.2,0.2-0.4,0.4-0.6,0.6c0.3-0.2,0.7-0.4,1-0.5c0.4-0.2,0.8-0.4,1.2-0.6c-0.1-0.1-0.2-0.1-0.3-0.2
			C22.2,17.4,22,17.3,21.9,17.2z M20,19.4C20,19.4,20,19.4,20,19.4c-0.1,0-0.1,0.1-0.1,0.1c0,0.2,0,0.3,0,0.5l0,0
			c0,0.2,0,0.5-0.1,0.7c0,0.1,0,0.3,0,0.5c0,0.2,0,0.4-0.1,0.6c0,0.2,0,0.4-0.1,0.6c0.1-0.2,0.3-0.4,0.4-0.6
			c0.1-0.2,0.3-0.4,0.4-0.6c0.3-0.5,0.7-1,1-1.4c0.4-0.6,0.8-1.1,1.1-1.7c-0.4,0.2-0.8,0.4-1.3,0.7C20.9,18.9,20.4,19.1,20,19.4z
			 M19.4,19.1c0-0.1-0.1-0.1-0.1-0.2c-0.2-0.3-0.5-0.6-0.7-0.9c-0.5-0.6-1-1.2-1.4-1.8c0,0.1,0,0.1,0.1,0.2c0.6,1.7,1.2,3.4,1.8,5.1
			l0.2,0.5c0,0.1,0.1,0.1,0.1,0.2c0,0,0,0.1,0,0.1c0-0.2,0-0.3,0-0.5c0-0.4,0.1-0.7,0.1-1.1l0,0c0,0,0-0.2,0-0.4c0-0.1,0-0.2,0-0.2
			v0c0-0.1,0-0.3,0-0.4c0-0.2,0-0.4,0.1-0.6C19.5,19.2,19.5,19.2,19.4,19.1z"/>
	</g>
</g>
</svg>
