<?xml version="1.0" encoding="utf-8"?>
<!-- Generator: Adobe Illustrator 24.1.2, SVG Export Plug-In . SVG Version: 6.00 Build 0)  -->
<svg version="1.1" id="Слой_1" xmlns="http://www.w3.org/2000/svg" xmlns:xlink="http://www.w3.org/1999/xlink" x="0px" y="0px"
	 viewBox="0 0 107 35.5" style="enable-background:new 0 0 107 35.5;" xml:space="preserve">
<style type="text/css">
	.st0{fill:#637A9F;}
</style>
<g>
	<g>
		<path class="st0" d="M26,12c-0.1,0.1-0.1,0.1-0.2,0.2c-0.1,0.1-0.2,0.2-0.3,0.3l0,0c-0.8,0.9-1.7,1.8-2.5,2.7
			c-0.7,0.7-1.3,1.4-2,2.1c1.1-0.6,2.3-1.2,3.4-1.8c1.3-0.7,2.6-1.4,3.9-2c-0.3-0.2-0.6-0.4-0.9-0.7C26.9,12.6,26.5,12.3,26,12z
			 M19.8,19.1c-0.1,0.1-0.2,0.1-0.3,0.1c-0.1,0-0.1,0.1-0.2,0.1c0,0.5-0.1,1.1-0.2,1.6l0,0.1c-0.1,0.8-0.2,1.6-0.2,2.4
			c-0.1,0.5-0.1,1-0.2,1.5c-0.1,0.6-0.1,1.3-0.2,1.9c-0.1,0.7-0.1,1.4-0.2,2.1c0.5-0.7,1-1.4,1.4-2.1c0.4-0.6,0.9-1.3,1.3-1.9
			c1.1-1.6,2.2-3.2,3.2-4.8c1.2-1.8,2.5-3.7,3.8-5.6c-1.4,0.7-2.8,1.5-4.2,2.2C22.6,17.7,21.2,18.4,19.8,19.1z M11.6,9.1L11.6,9.1
			c0.8,0.9,1.5,1.9,2.3,2.8c1.7,2,3.4,4.1,5.1,6.2c0.9-0.9,1.8-1.9,2.6-2.8c1.1-1.2,2.3-2.5,3.4-3.7c-3.4-0.8-6.9-1.7-10.3-2.5
			c-0.6-0.2-1.2-0.3-1.8-0.4c-0.7-0.2-1.4-0.3-2.1-0.5c0.1,0.1,0.2,0.3,0.3,0.4C11.2,8.7,11.4,8.9,11.6,9.1z M17.8,18.2
			c-0.2-0.2-0.3-0.4-0.5-0.6c-0.8-1-1.6-2-2.4-3c-1.6-1.9-3.2-3.9-4.8-5.8c0.1,0.2,0.2,0.4,0.2,0.6c2,5.6,4,11.3,6,16.9l0.6,1.8
			c0.1,0.2,0.2,0.5,0.3,0.7c0,0.1,0.1,0.2,0.1,0.3c0.1-0.5,0.1-1,0.2-1.5c0.1-1.2,0.3-2.4,0.4-3.6l0,0c0,0,0.1-0.8,0.1-1.2
			c0-0.3,0.1-0.5,0.1-0.8v0c0-0.4,0.1-0.8,0.1-1.3c0.1-0.6,0.1-1.2,0.2-1.8C18.2,18.7,18,18.5,17.8,18.2z M17.7,0
			C7.9,0,0,7.9,0,17.7c0,9.8,7.9,17.7,17.7,17.7c9.8,0,17.7-7.9,17.7-17.7C35.4,7.9,27.4,0,17.7,0z M30.2,13.9L30.2,13.9l0,0.1
			c-0.8,1.1-1.6,2.3-2.4,3.5c-0.5,0.7-0.9,1.4-1.4,2.1c-1.1,1.7-2.3,3.4-3.4,5.1l-4.7,6.9c-0.1,0.2-0.3,0.3-0.6,0.3h-0.1
			c-0.3,0-0.5-0.2-0.6-0.4c-1.3-3.5-2.5-7.1-3.8-10.6c-1.6-4.5-3.3-9.1-4.9-13.7l0,0V6.9l0,0c0-0.1,0.1-0.2,0.2-0.3l0.1-0.1
			c0.1,0,0.1-0.1,0.2-0.1c0.3,0,0.6,0,0.8,0.1c0.1,0,0.1,0,0.2,0.1c2.6,0.6,5.1,1.3,7.7,1.9c2.8,0.7,5.8,1.4,8.6,2.1l0,0
			c0.2,0.1,0.3,0.1,0.4,0.2c0,0,0.1,0,0.1,0.1c1.1,0.8,2.2,1.5,3.2,2.3C30.3,13.3,30.3,13.7,30.2,13.9z M82.3,10.6
			c-2.4,0-4.4,0.8-6,2.5c-1.6,1.6-2.5,3.6-2.5,6c0,2.3,0.8,4.3,2.5,6c1.7,1.6,3.7,2.4,6,2.4c2.4,0,4.4-0.8,6-2.4
			c1.7-1.7,2.5-3.6,2.5-6c0-2.3-0.8-4.3-2.5-6C86.7,11.4,84.7,10.6,82.3,10.6z M86.5,23.3c-1.1,1.1-2.5,1.7-4.1,1.7
			c-1.6,0-3-0.6-4.1-1.7c-1.1-1.1-1.7-2.5-1.7-4.2c0-1.7,0.6-3.1,1.7-4.2c1.1-1.1,2.5-1.7,4.1-1.7c1.6,0,3,0.6,4.1,1.7
			c1.1,1.1,1.7,2.5,1.7,4.2C88.1,20.7,87.6,22.1,86.5,23.3z M104.3,10.9v11l-7.7-11h-2.1v16.3h2.7v-11l7.7,11h2.1V10.9H104.3z
			 M71.1,16.2c0-1.5-0.5-2.7-1.5-3.7c-1-1-2.2-1.5-3.7-1.5h-6.5v16.3H62v-5.9h3.2l3.5,5.9h2.9l-3.7-6.3
			C69.8,20.1,71.1,18.2,71.1,16.2z M65.8,18.9H62v-5.4h3.9c1.4,0,2.6,1.2,2.6,2.7C68.4,17.7,67.3,18.9,65.8,18.9z M44.2,13.5h4.6
			v13.7h2.7V13.5h4.6v-2.6H44.2V13.5z"/>
	</g>
</g>
</svg>
