<?xml version="1.0" encoding="utf-8"?>
<!-- Generator: Adobe Illustrator 24.1.2, SVG Export Plug-In . SVG Version: 6.00 Build 0)  -->
<svg version="1.1" id="Слой_1" xmlns="http://www.w3.org/2000/svg" xmlns:xlink="http://www.w3.org/1999/xlink" x="0px" y="0px"
	 viewBox="0 0 40 40" style="enable-background:new 0 0 40 40;" xml:space="preserve">
<style type="text/css">
	.st0{fill:#FFFFFF;}
</style>
<g>
	<g>
		<path class="st0" d="M19.2,16.3h0.4c0.8,0,1.5-0.7,1.5-1.5v-2.4c0-0.8-0.7-1.5-1.5-1.5h-0.4c-0.8,0-1.5,0.7-1.5,1.5v2.4
			C17.7,15.6,18.4,16.3,19.2,16.3z M18.8,12.3c0-0.3,0.3-0.6,0.6-0.6c0.3,0,0.6,0.3,0.6,0.6v2.6c0,0.3-0.3,0.6-0.6,0.6
			c-0.3,0-0.6-0.3-0.6-0.6V12.3z M23,16.3c0.8,0,1.4-0.7,1.4-0.7v0.6h1.1v-5.3h-1.1V15c0,0-0.4,0.5-0.8,0.5c-0.4,0-0.4-0.3-0.4-0.3
			v-4.3h-1.1v4.7C22.1,15.5,22.2,16.3,23,16.3z M14.8,16.2h1.3v-2.9l1.5-4.1h-1.2l-0.9,2.7l-0.9-2.7h-1.3l1.6,4.1V16.2z M20,0
			C9,0,0,9,0,20c0,11,9,20,20,20c11,0,20-9,20-20C40,9,31,0,20,0z M20,38.2C10,38.2,1.8,30,1.8,20C1.8,10,10,1.8,20,1.8
			C30,1.8,38.2,10,38.2,20C38.2,30,30,38.2,20,38.2z M22.2,22.4c-0.2,0-0.4,0.1-0.6,0.3v3.8c0.1,0.1,0.3,0.2,0.6,0.2
			c0.6,0,0.6-0.6,0.6-0.6v-3C22.8,23,22.7,22.4,22.2,22.4z M26.9,17.5c0,0-3.4-0.2-6.9-0.2c-3.4,0-6.9,0.2-6.9,0.2
			c-1.6,0-2.8,1.2-2.8,2.7c0,0-0.3,1.7-0.3,3.5c0,1.7,0.3,3.5,0.3,3.5c0,1.5,1.3,2.7,2.8,2.7c0,0,3.4,0.2,6.9,0.2
			c3.4,0,6.9-0.2,6.9-0.2c1.6,0,2.8-1.2,2.8-2.7c0,0,0.3-1.8,0.3-3.5c0-1.8-0.3-3.5-0.3-3.5C29.7,18.7,28.5,17.5,26.9,17.5z
			 M15.9,20.5h-1.4v7.1h-1.3v-7.1h-1.4v-1.2h4.1V20.5z M19.5,27.6h-1.1V27c0,0-0.7,0.6-1.4,0.6c-0.8,0-0.8-0.7-0.8-0.7v-5.6h1.1v5.2
			c0,0,0,0.3,0.4,0.3c0.4,0,0.8-0.4,0.8-0.4v-5h1.1V27.6z M23.9,26.2c0,0,0,1.4-1,1.4c-0.6,0-1-0.3-1.2-0.6v0.5h-1.2v-8.2h1.2V22
			c0.2-0.2,0.6-0.6,1.2-0.6c0.8,0,1,0.6,1,1.4C23.9,23.6,23.9,26.2,23.9,26.2z M28.3,22.9v1.8H26v1.3c0,0,0,0.6,0.6,0.6
			c0.6,0,0.6-0.6,0.6-0.6v-0.6h1.2v1c0,0-0.2,1.3-1.7,1.3c-1.5,0-1.8-1.3-1.8-1.3v-3.5c0,0,0-1.5,1.8-1.5
			C28.4,21.4,28.3,22.9,28.3,22.9z M26.5,22.4C26,22.4,26,23,26,23v0.8h1.1V23C27.1,23,27.1,22.4,26.5,22.4z"/>
	</g>
</g>
</svg>
