<?xml version="1.0" encoding="utf-8"?>
<!-- Generator: Adobe Illustrator 24.1.2, SVG Export Plug-In . SVG Version: 6.00 Build 0)  -->
<svg version="1.1" id="Слой_1" xmlns="http://www.w3.org/2000/svg" xmlns:xlink="http://www.w3.org/1999/xlink" x="0px" y="0px"
	 viewBox="0 0 274.7 72.3" style="enable-background:new 0 0 274.7 72.3;" xml:space="preserve">
<style type="text/css">
	.st0{fill:#FFFFFF;}
	.st1{fill:#FF7E47;}
</style>
<g id="Слой_2_1_">
	<path class="st0" d="M83.3,53v-2h-8.5v-2.5H83v-1.9h-8.3v-2.4h8.5v-2.1H72.1V53H83.3z"/>
	<path class="st0" d="M93.6,42.2c-0.7,0-1.4,0.1-1.9,0.2c-0.5,0.1-0.9,0.3-1.2,0.5c-0.3,0.2-0.6,0.6-0.7,1s-0.2,0.9-0.2,1.4
		c0,0.7,0.1,1.2,0.2,1.7c0.1,0.4,0.4,0.8,0.7,1c0.3,0.2,0.7,0.4,1.2,0.5s1.1,0.1,1.9,0.1h3.9c0.5,0,0.8,0,1.1,0.1
		c0.3,0.1,0.4,0.2,0.5,0.4s0.1,0.4,0.1,0.7c0,0.4-0.1,0.7-0.4,0.9S98.1,51,97.5,51h-4.4c-0.4,0-0.7-0.1-0.9-0.3
		c-0.3-0.2-0.4-0.4-0.4-0.7h-2.7c0,0.7,0.1,1.3,0.3,1.8c0.2,0.5,0.6,0.8,1.1,1s1.3,0.3,2.2,0.3H98c0.9,0,1.6-0.1,2.1-0.3
		s0.9-0.6,1.2-1.1c0.3-0.5,0.4-1.1,0.4-1.9c0-0.7-0.1-1.3-0.2-1.8c-0.2-0.4-0.4-0.8-0.7-1c-0.3-0.2-0.7-0.4-1.1-0.4
		c-0.4-0.1-1-0.1-1.7-0.1h-4.8c-0.4,0-0.7-0.1-0.9-0.2c-0.2-0.1-0.3-0.4-0.3-0.9c0-0.8,0.4-1.1,1.3-1.1h4.4c0.5,0,0.9,0.1,1,0.2
		c0.2,0.2,0.3,0.4,0.3,0.8h2.6c0-0.7-0.1-1.3-0.4-1.7c-0.3-0.5-0.7-0.8-1.2-1s-1.3-0.3-2.1-0.3h-4.3V42.2z"/>
	<path class="st0" d="M107.6,44.3h4.5V53h2.6v-8.7h4.6v-2.2h-11.7V44.3z"/>
	<path class="st0" d="M128.5,50.3h6.4l1.4,2.7h3.1l-5.7-10.9h-3.9L124.1,53h3L128.5,50.3z M131.7,44.2h0.1l2.1,4h-4.3L131.7,44.2z"
		/>
	<path class="st0" d="M144.3,44.3h4.5V53h2.6v-8.7h4.6v-2.2h-11.7L144.3,44.3L144.3,44.3z"/>
	<path class="st0" d="M172.9,53v-2h-8.5v-2.5h8.3v-1.9h-8.3v-2.4h8.5v-2.1h-11.1V53H172.9z"/>
	<path class="st0" d="M202,45.5c0-0.7-0.1-1.2-0.3-1.7c-0.2-0.4-0.4-0.8-0.7-1s-0.7-0.4-1.2-0.5s-1.1-0.1-1.8-0.1h-5.2
		c-1,0-1.7,0.1-2.3,0.4c-0.6,0.3-1,0.7-1.3,1.2c-0.3,0.6-0.4,1.3-0.4,2.3v3.2c0,0.9,0.2,1.6,0.4,2.1c0.3,0.6,0.7,1,1.3,1.2
		c0.6,0.3,1.3,0.4,2.2,0.4h5.3c1,0,1.7-0.1,2.3-0.3s1-0.6,1.3-1.1s0.4-1.2,0.4-2.1v-2.9h-6.9v1.9h4.3v1.3c0,0.3-0.1,0.5-0.2,0.6
		c-0.1,0.2-0.4,0.3-0.6,0.3c-0.3,0.1-0.7,0.1-1.2,0.1h-3.8c-0.6,0-1-0.1-1.3-0.2c-0.3-0.1-0.5-0.3-0.6-0.6s-0.2-0.7-0.2-1.2v-2.6
		c0-0.8,0.2-1.4,0.5-1.7s0.8-0.5,1.6-0.5h3.8c0.7,0,1.3,0.1,1.5,0.3c0.3,0.2,0.4,0.5,0.4,1h2.7V45.5z"/>
	<path class="st0" d="M216,44.3c0.6,0,1,0.1,1.2,0.4c0.2,0.3,0.3,0.7,0.3,1.3s-0.1,1-0.3,1.3s-0.6,0.4-1.1,0.4h-5.4v-3.3h5.3V44.3z
		 M220.3,50.8c0-0.4-0.1-0.8-0.2-1c-0.2-0.2-0.3-0.4-0.5-0.5s-0.5-0.2-1-0.4c0.5-0.3,0.9-0.6,1.2-1.1c0.3-0.4,0.4-1,0.4-1.8
		s-0.1-1.4-0.3-1.9s-0.4-0.9-0.8-1.2c-0.3-0.3-0.7-0.5-1.2-0.6s-1-0.2-1.6-0.2H208V53h2.6v-3.2h5c0.7,0,1.3,0.1,1.6,0.4
		c0.3,0.2,0.5,0.6,0.5,1.2V53h2.6L220.3,50.8L220.3,50.8z"/>
	<path class="st0" d="M228.9,46.3c0-0.5,0.1-0.9,0.2-1.2c0.1-0.3,0.3-0.5,0.6-0.6s0.7-0.2,1.3-0.2h3.4c0.5,0,1,0.1,1.3,0.2
		c0.3,0.1,0.5,0.3,0.6,0.6s0.2,0.7,0.2,1.2V49c0,0.5-0.1,0.9-0.2,1.1c-0.1,0.3-0.3,0.4-0.6,0.5s-0.7,0.2-1.3,0.2H231
		c-0.5,0-1-0.1-1.2-0.2s-0.5-0.3-0.6-0.5c-0.1-0.3-0.2-0.6-0.2-1.1v-2.7H228.9z M239,46c0-1-0.1-1.8-0.4-2.3c-0.3-0.6-0.7-1-1.3-1.2
		s-1.3-0.3-2.3-0.3h-4.8c-0.8,0-1.4,0.1-1.9,0.2c-0.5,0.1-0.9,0.3-1.2,0.6s-0.5,0.7-0.7,1.2c-0.1,0.5-0.2,1.1-0.2,1.9v3.3
		c0,0.7,0.1,1.2,0.2,1.7c0.1,0.5,0.4,0.8,0.7,1.1s0.7,0.5,1.2,0.7c0.5,0.1,1.1,0.2,1.9,0.2h4.8c0.8,0,1.4-0.1,1.9-0.2
		c0.5-0.1,0.9-0.3,1.2-0.6s0.5-0.7,0.6-1.1c0.1-0.5,0.2-1,0.2-1.7V46H239z"/>
	<path class="st0" d="M244.9,49.2c0,1.3,0.3,2.3,1,2.9c0.7,0.6,1.7,0.9,3,0.9h4.8c0.7,0,1.3-0.1,1.8-0.2c0.5-0.1,0.9-0.4,1.2-0.7
		c0.3-0.3,0.5-0.7,0.7-1.2c0.1-0.5,0.2-1.1,0.2-1.8v-7H255v6.7c0,0.5-0.1,0.9-0.2,1.2c-0.1,0.3-0.3,0.5-0.6,0.6s-0.6,0.2-1.1,0.2
		h-3.6c-0.7,0-1.2-0.1-1.5-0.4c-0.3-0.3-0.5-0.8-0.5-1.5v-6.8h-2.6L244.9,49.2L244.9,49.2z"/>
	<path class="st0" d="M266.1,53v-3.2h4.8c0.9,0,1.6-0.1,2.2-0.4c0.6-0.3,1-0.7,1.2-1.2c0.3-0.6,0.4-1.3,0.4-2.2
		c0-0.7-0.1-1.3-0.2-1.8s-0.4-0.9-0.7-1.2s-0.7-0.5-1.2-0.7c-0.5-0.1-1.1-0.2-1.8-0.2h-7.4V53H266.1z M266.1,44.3h4.3
		c0.6,0,1.1,0.1,1.3,0.4c0.2,0.3,0.4,0.7,0.4,1.3c0,0.4-0.1,0.7-0.2,1c-0.1,0.2-0.3,0.4-0.5,0.5s-0.6,0.2-1,0.2h-4.3L266.1,44.3
		L266.1,44.3z"/>
</g>
<g id="Слой_1_1_">
	<g>
		<g>
			<path class="st1" d="M0,14.4v28.9L5.1,41v6l1.3-0.6v-6.1l5-2.4v-18L0,14.4z M11.5,61.4l5.2-2.5v9.5l1.3-0.6v-9.5l4.9-2.3V43.4
				l-11.5-5.5v23.5H11.5z M29.4,9.3V0.6L28,0v8.7l-5.1-2.4v37.1l11.5-5.5V11.7L29.4,9.3z M34.4,72.3l11.5-5.5V43.4l-11.5-5.5V72.3z
				 M52.3,23.7L51,23.1v5.8l-5.1-2.4v16.9l11.5-5.5v-6l-5-2.4v-5.8H52.3z M86,26.6c0.7-0.2,1.1-0.5,1.4-0.9s0.4-1.2,0.4-2.3
				c0-0.9-0.2-1.6-0.6-2.1s-0.9-0.9-1.7-1.2c-0.7-0.2-1.7-0.4-2.8-0.4H72.4v14.5h11.2c1.1,0,2-0.1,2.7-0.4c0.7-0.3,1.2-0.7,1.6-1.4
				c0.3-0.6,0.5-1.5,0.5-2.5c0-1.1-0.2-1.8-0.6-2.3C87.4,27.2,86.8,26.9,86,26.6z M75.8,22.5h7.1c0.5,0,0.8,0.1,1.1,0.4
				c0.3,0.3,0.4,0.6,0.4,1.1s-0.1,0.9-0.4,1.2c-0.3,0.3-0.6,0.5-1.1,0.5h-7.1V22.5z M84.8,30.8c-0.1,0.2-0.3,0.4-0.6,0.5
				c-0.3,0.1-0.8,0.2-1.4,0.2h-7v-3.3h7.1c0.6,0,1,0.1,1.3,0.2s0.5,0.3,0.6,0.5s0.1,0.5,0.1,1C84.9,30.3,84.9,30.6,84.8,30.8z
				 M98.5,19.7l-7.7,14.5h4.1l1.9-3.7h8.6l1.9,3.7h4.1l-7.6-14.5H98.5z M98.2,27.8l2.9-5.4h0.2l2.8,5.4H98.2z M131.9,19.7h-4.7
				l-4.7,5.3l-4.7-5.3h-4.7l6.7,7l-7.5,7.5h5.1l5.1-5.7l5.1,5.7h5.1l-7.5-7.5L131.9,19.7z M135.3,34.2h14.8v-2.7h-11.4v-3.3h11v-2.5
				h-11v-3.2h11.4v-2.7h-14.8V34.2z M168.8,26.2c-0.4-0.3-0.9-0.5-1.4-0.6s-1.3-0.1-2.2-0.1h-6.3c-0.6,0-1-0.1-1.3-0.3
				c-0.3-0.2-0.4-0.6-0.4-1.2c0-1,0.6-1.5,1.7-1.5h5.8c0.7,0,1.2,0.1,1.4,0.3c0.2,0.2,0.4,0.6,0.4,1h3.5c0-0.9-0.2-1.7-0.5-2.3
				c-0.3-0.6-0.9-1-1.6-1.3c-0.7-0.3-1.7-0.4-2.8-0.4h-5.9c-1,0-1.8,0.1-2.5,0.2c-0.7,0.2-1.2,0.4-1.6,0.7c-0.4,0.3-0.7,0.7-0.9,1.3
				c-0.2,0.5-0.3,1.1-0.3,1.9c0,0.9,0.1,1.7,0.3,2.2c0.2,0.6,0.5,1,0.9,1.3s1,0.5,1.6,0.6c0.7,0.1,1.5,0.2,2.6,0.2h5.1
				c0.6,0,1.1,0.1,1.5,0.2s0.6,0.3,0.7,0.6c0.1,0.2,0.2,0.5,0.2,0.9c0,0.6-0.2,1-0.5,1.2c-0.4,0.3-0.9,0.4-1.7,0.4h-5.8
				c-0.5,0-0.9-0.1-1.2-0.4s-0.5-0.6-0.5-1h-3.6c0,1,0.2,1.7,0.5,2.3c0.3,0.6,0.8,1,1.5,1.3s1.7,0.4,2.9,0.4h7
				c1.2,0,2.1-0.2,2.8-0.5s1.2-0.8,1.6-1.4s0.5-1.5,0.5-2.5s-0.1-1.8-0.3-2.4C169.5,26.9,169.2,26.4,168.8,26.2z M188.6,26.2
				c-0.4-0.3-0.9-0.5-1.4-0.6c-0.6-0.1-1.3-0.1-2.2-0.1h-6.3c-0.6,0-1-0.1-1.3-0.3c-0.3-0.2-0.4-0.6-0.4-1.2c0-1,0.6-1.5,1.7-1.5
				h5.8c0.7,0,1.2,0.1,1.4,0.3c0.2,0.2,0.4,0.6,0.4,1h3.5c0-0.9-0.2-1.7-0.5-2.3c-0.3-0.6-0.9-1-1.6-1.3c-0.7-0.3-1.7-0.4-2.8-0.4
				H179c-1,0-1.8,0.1-2.5,0.2c-0.7,0.2-1.2,0.4-1.6,0.7c-0.4,0.3-0.7,0.7-0.9,1.3c-0.2,0.5-0.3,1.1-0.3,1.9c0,0.9,0.1,1.7,0.3,2.2
				s0.5,1,0.9,1.3s1,0.5,1.6,0.6c0.7,0.1,1.5,0.2,2.6,0.2h5.1c0.6,0,1.1,0.1,1.5,0.2s0.6,0.3,0.7,0.6s0.2,0.5,0.2,0.9
				c0,0.6-0.2,1-0.5,1.2c-0.4,0.3-0.9,0.4-1.7,0.4h-5.8c-0.5,0-0.9-0.1-1.2-0.4s-0.5-0.6-0.5-1h-3.6c0,1,0.2,1.7,0.5,2.3
				c0.3,0.6,0.8,1,1.5,1.3s1.7,0.4,2.9,0.4h7c1.2,0,2.1-0.2,2.8-0.5s1.2-0.8,1.6-1.4c0.3-0.6,0.5-1.5,0.5-2.5s-0.1-1.8-0.3-2.4
				C189.3,26.9,189,26.4,188.6,26.2z M216.9,29.2c-0.3-0.1-0.7-0.3-1.3-0.6c0.7-0.4,1.2-0.9,1.5-1.4c0.4-0.6,0.6-1.4,0.6-2.4
				s-0.1-1.8-0.4-2.5c-0.2-0.7-0.6-1.2-1.1-1.6s-1-0.6-1.6-0.8c-0.6-0.2-1.3-0.2-2.1-0.2h-11v14.5h3.5v-4.3h6.7c1,0,1.7,0.2,2.1,0.5
				c0.4,0.3,0.6,0.8,0.6,1.6v2.3h3.5v-3c0-0.6-0.1-1-0.3-1.3C217.4,29.5,217.2,29.3,216.9,29.2z M213.8,26.5
				c-0.3,0.3-0.8,0.5-1.5,0.5H205v-4.4h7.3c0.8,0,1.3,0.2,1.6,0.5s0.4,0.9,0.4,1.7C214.2,25.6,214,26.2,213.8,26.5z M221.3,34.2
				h14.8v-2.7h-11.4v-3.3h11v-2.5h-11v-3.2h11.4v-2.7h-14.8V34.2z M246.2,19.7l-7.7,14.5h4.1l1.9-3.7h8.6l1.9,3.7h4.1l-7.6-14.5
				H246.2z M245.9,27.8l2.9-5.4h0.2l2.8,5.4H245.9z M264.7,31.4V19.7h-3.5v14.5h12.4v-2.9L264.7,31.4L264.7,31.4z"/>
		</g>
	</g>
</g>
</svg>
