<?xml version="1.0" encoding="utf-8"?>
<!-- Generator: Adobe Illustrator 24.1.2, SVG Export Plug-In . SVG Version: 6.00 Build 0)  -->
<svg version="1.1" xmlns="http://www.w3.org/2000/svg" xmlns:xlink="http://www.w3.org/1999/xlink" x="0px" y="0px"
	 viewBox="0 0 274.7 72.3" style="enable-background:new 0 0 274.7 72.3;" xml:space="preserve">
<style type="text/css">
	.st0{fill:#3B4C68;}
	.st1{fill:#FFFFFF;}
</style>
<g id="Слой_2">
	<path class="st0" d="M83.3,53V51h-8.5v-2.5H83v-1.9h-8.3v-2.4h8.5v-2.1H72.1V53H83.3z"/>
	<path class="st0" d="M93.6,42.2c-0.7,0-1.4,0.1-1.9,0.2c-0.5,0.1-0.9,0.3-1.2,0.5c-0.3,0.2-0.6,0.6-0.7,1s-0.2,0.9-0.2,1.4
		c0,0.7,0.1,1.2,0.2,1.7c0.1,0.4,0.4,0.8,0.7,1c0.3,0.2,0.7,0.4,1.2,0.5c0.5,0.1,1.1,0.1,1.9,0.1h3.9c0.5,0,0.8,0,1.1,0.1
		c0.3,0.1,0.4,0.2,0.5,0.4c0.1,0.2,0.1,0.4,0.1,0.7c0,0.4-0.1,0.7-0.4,0.9c-0.3,0.2-0.7,0.3-1.3,0.3h-4.4c-0.4,0-0.7-0.1-0.9-0.3
		c-0.3-0.2-0.4-0.4-0.4-0.7h-2.7c0,0.7,0.1,1.3,0.3,1.8c0.2,0.5,0.6,0.8,1.1,1c0.5,0.2,1.3,0.3,2.2,0.3h5.3c0.9,0,1.6-0.1,2.1-0.3
		c0.5-0.2,0.9-0.6,1.2-1.1c0.3-0.5,0.4-1.1,0.4-1.9c0-0.7-0.1-1.3-0.2-1.8c-0.2-0.4-0.4-0.8-0.7-1c-0.3-0.2-0.7-0.4-1.1-0.4
		c-0.4-0.1-1-0.1-1.7-0.1h-4.8c-0.4,0-0.7-0.1-0.9-0.2c-0.2-0.1-0.3-0.4-0.3-0.9c0-0.8,0.4-1.1,1.3-1.1h4.4c0.5,0,0.9,0.1,1,0.2
		c0.2,0.2,0.3,0.4,0.3,0.8h2.6c0-0.7-0.1-1.3-0.4-1.7c-0.3-0.5-0.7-0.8-1.2-1c-0.5-0.2-1.3-0.3-2.1-0.3H93.6z"/>
	<path class="st0" d="M107.6,44.3h4.5V53h2.6v-8.7h4.6v-2.2h-11.7V44.3z"/>
	<path class="st0" d="M128.5,50.3h6.4l1.4,2.7h3.1l-5.7-10.9h-3.9L124.1,53h3L128.5,50.3z M131.7,44.2h0.1l2.1,4h-4.3L131.7,44.2z"
		/>
	<path class="st0" d="M144.3,44.3h4.5V53h2.6v-8.7h4.6v-2.2h-11.7V44.3z"/>
	<path class="st0" d="M172.9,53V51h-8.5v-2.5h8.3v-1.9h-8.3v-2.4h8.5v-2.1h-11.1V53H172.9z"/>
	<path class="st0" d="M202,45.5c0-0.7-0.1-1.2-0.3-1.7c-0.2-0.4-0.4-0.8-0.7-1c-0.3-0.2-0.7-0.4-1.2-0.5c-0.5-0.1-1.1-0.1-1.8-0.1
		h-5.2c-1,0-1.7,0.1-2.3,0.4c-0.6,0.3-1,0.7-1.3,1.2c-0.3,0.6-0.4,1.3-0.4,2.3v3.2c0,0.9,0.2,1.6,0.4,2.1c0.3,0.6,0.7,1,1.3,1.2
		c0.6,0.3,1.3,0.4,2.2,0.4h5.3c1,0,1.7-0.1,2.3-0.3c0.6-0.2,1-0.6,1.3-1.1c0.3-0.5,0.4-1.2,0.4-2.1v-2.9h-6.9v1.9h4.3l0,1.3
		c0,0.3-0.1,0.5-0.2,0.6c-0.1,0.2-0.4,0.3-0.6,0.3c-0.3,0.1-0.7,0.1-1.2,0.1h-3.8c-0.6,0-1-0.1-1.3-0.2c-0.3-0.1-0.5-0.3-0.6-0.6
		c-0.1-0.3-0.2-0.7-0.2-1.2l0-2.6c0-0.8,0.2-1.4,0.5-1.7c0.3-0.3,0.8-0.5,1.6-0.5h3.8c0.7,0,1.3,0.1,1.5,0.3c0.3,0.2,0.4,0.5,0.4,1
		H202z"/>
	<path class="st0" d="M216,44.3c0.6,0,1,0.1,1.2,0.4c0.2,0.3,0.3,0.7,0.3,1.3c0,0.6-0.1,1-0.3,1.3c-0.2,0.3-0.6,0.4-1.1,0.4h-5.4
		v-3.3H216z M220.3,50.8c0-0.4-0.1-0.8-0.2-1c-0.2-0.2-0.3-0.4-0.5-0.5c-0.2-0.1-0.5-0.2-1-0.4c0.5-0.3,0.9-0.6,1.2-1.1
		c0.3-0.4,0.4-1,0.4-1.8c0-0.8-0.1-1.4-0.3-1.9c-0.2-0.5-0.4-0.9-0.8-1.2c-0.3-0.3-0.7-0.5-1.2-0.6c-0.5-0.1-1-0.2-1.6-0.2H208V53
		h2.6v-3.2h5c0.7,0,1.3,0.1,1.6,0.4c0.3,0.2,0.5,0.6,0.5,1.2V53h2.6V50.8z"/>
	<path class="st0" d="M228.9,46.3c0-0.5,0.1-0.9,0.2-1.2c0.1-0.3,0.3-0.5,0.6-0.6s0.7-0.2,1.3-0.2h3.4c0.5,0,1,0.1,1.3,0.2
		c0.3,0.1,0.5,0.3,0.6,0.6c0.1,0.3,0.2,0.7,0.2,1.2V49c0,0.5-0.1,0.9-0.2,1.1c-0.1,0.3-0.3,0.4-0.6,0.5c-0.3,0.1-0.7,0.2-1.3,0.2
		h-3.4c-0.5,0-1-0.1-1.2-0.2s-0.5-0.3-0.6-0.5c-0.1-0.3-0.2-0.6-0.2-1.1V46.3z M239,46c0-1-0.1-1.8-0.4-2.3c-0.3-0.6-0.7-1-1.3-1.2
		c-0.6-0.2-1.3-0.3-2.3-0.3h-4.8c-0.8,0-1.4,0.1-1.9,0.2c-0.5,0.1-0.9,0.3-1.2,0.6c-0.3,0.3-0.5,0.7-0.7,1.2
		c-0.1,0.5-0.2,1.1-0.2,1.9v3.3c0,0.7,0.1,1.2,0.2,1.7c0.1,0.5,0.4,0.8,0.7,1.1c0.3,0.3,0.7,0.5,1.2,0.7c0.5,0.1,1.1,0.2,1.9,0.2
		h4.8c0.8,0,1.4-0.1,1.9-0.2c0.5-0.1,0.9-0.3,1.2-0.6c0.3-0.3,0.5-0.7,0.6-1.1c0.1-0.5,0.2-1,0.2-1.7V46z"/>
	<path class="st0" d="M244.9,49.2c0,1.3,0.3,2.3,1,2.9c0.7,0.6,1.7,0.9,3,0.9h4.8c0.7,0,1.3-0.1,1.8-0.2c0.5-0.1,0.9-0.4,1.2-0.7
		c0.3-0.3,0.5-0.7,0.7-1.2c0.1-0.5,0.2-1.1,0.2-1.8v-7H255v6.7c0,0.5-0.1,0.9-0.2,1.2c-0.1,0.3-0.3,0.5-0.6,0.6
		c-0.3,0.1-0.6,0.2-1.1,0.2h-3.6c-0.7,0-1.2-0.1-1.5-0.4c-0.3-0.3-0.5-0.8-0.5-1.5v-6.8h-2.6V49.2z"/>
	<path class="st0" d="M266.1,53v-3.2h4.8c0.9,0,1.6-0.1,2.2-0.4c0.6-0.3,1-0.7,1.2-1.2c0.3-0.6,0.4-1.3,0.4-2.2
		c0-0.7-0.1-1.3-0.2-1.8c-0.1-0.5-0.4-0.9-0.7-1.2s-0.7-0.5-1.2-0.7c-0.5-0.1-1.1-0.2-1.8-0.2h-7.4V53H266.1z M266.1,44.3h4.3
		c0.6,0,1.1,0.1,1.3,0.4c0.2,0.3,0.4,0.7,0.4,1.3c0,0.4-0.1,0.7-0.2,1c-0.1,0.2-0.3,0.4-0.5,0.5c-0.2,0.1-0.6,0.2-1,0.2h-4.3V44.3z"
		/>
</g>
<g id="Слой_1">
	<g>
		<g>
			<path class="st1" d="M0,14.4v28.9L5.1,41v6l1.3-0.6v-6.1l5-2.4v-18L0,14.4z M11.5,61.4l5.2-2.5v9.5l1.3-0.6v-9.5l4.9-2.3V43.4
				l-11.5-5.5V61.4z M29.4,9.3V0.6L28,0v8.7l-5.1-2.4v37.1l11.5-5.5V11.7L29.4,9.3z M34.4,72.3l11.5-5.5V43.4l-11.5-5.5V72.3z
				 M52.3,23.7l-1.3-0.6v5.8l-5.1-2.4v16.9l11.5-5.5v-6l-5-2.4V23.7z M86,26.6c0.7-0.2,1.1-0.5,1.4-0.9c0.3-0.4,0.4-1.2,0.4-2.3
				c0-0.9-0.2-1.6-0.6-2.1c-0.4-0.5-0.9-0.9-1.7-1.2c-0.7-0.2-1.7-0.4-2.8-0.4H72.4v14.5h11.2c1.1,0,2-0.1,2.7-0.4
				c0.7-0.3,1.2-0.7,1.6-1.4c0.3-0.6,0.5-1.5,0.5-2.5c0-1.1-0.2-1.8-0.6-2.3C87.4,27.2,86.8,26.9,86,26.6z M75.8,22.5h7.1
				c0.5,0,0.8,0.1,1.1,0.4c0.3,0.3,0.4,0.6,0.4,1.1c0,0.5-0.1,0.9-0.4,1.2c-0.3,0.3-0.6,0.5-1.1,0.5h-7.1V22.5z M84.8,30.8
				c-0.1,0.2-0.3,0.4-0.6,0.5c-0.3,0.1-0.8,0.2-1.4,0.2h-7v-3.3h7.1c0.6,0,1,0.1,1.3,0.2c0.3,0.1,0.5,0.3,0.6,0.5
				c0.1,0.2,0.1,0.5,0.1,1C84.9,30.3,84.9,30.6,84.8,30.8z M98.5,19.7l-7.7,14.5h4.1l1.9-3.7h8.6l1.9,3.7h4.1l-7.6-14.5H98.5z
				 M98.2,27.8l2.9-5.4h0.2l2.8,5.4H98.2z M131.9,19.7h-4.7l-4.7,5.3l-4.7-5.3h-4.7l6.7,7l-7.5,7.5h5.1l5.1-5.7l5.1,5.7h5.1
				l-7.5-7.5L131.9,19.7z M135.3,34.2h14.8v-2.7h-11.4v-3.3h11v-2.5h-11v-3.2h11.4v-2.7h-14.8V34.2z M168.8,26.2
				c-0.4-0.3-0.9-0.5-1.4-0.6s-1.3-0.1-2.2-0.1h-6.3c-0.6,0-1-0.1-1.3-0.3c-0.3-0.2-0.4-0.6-0.4-1.2c0-1,0.6-1.5,1.7-1.5h5.8
				c0.7,0,1.2,0.1,1.4,0.3c0.2,0.2,0.4,0.6,0.4,1h3.5c0-0.9-0.2-1.7-0.5-2.3c-0.3-0.6-0.9-1-1.6-1.3c-0.7-0.3-1.7-0.4-2.8-0.4h-5.9
				c-1,0-1.8,0.1-2.5,0.2c-0.7,0.2-1.2,0.4-1.6,0.7c-0.4,0.3-0.7,0.7-0.9,1.3c-0.2,0.5-0.3,1.1-0.3,1.9c0,0.9,0.1,1.7,0.3,2.2
				c0.2,0.6,0.5,1,0.9,1.3c0.4,0.3,1,0.5,1.6,0.6c0.7,0.1,1.5,0.2,2.6,0.2h5.1c0.6,0,1.1,0.1,1.5,0.2c0.4,0.1,0.6,0.3,0.7,0.6
				c0.1,0.2,0.2,0.5,0.2,0.9c0,0.6-0.2,1-0.5,1.2c-0.4,0.3-0.9,0.4-1.7,0.4h-5.8c-0.5,0-0.9-0.1-1.2-0.4c-0.3-0.3-0.5-0.6-0.5-1
				h-3.6c0,1,0.2,1.7,0.5,2.3c0.3,0.6,0.8,1,1.5,1.3c0.7,0.3,1.7,0.4,2.9,0.4h7c1.2,0,2.1-0.2,2.8-0.5c0.7-0.3,1.2-0.8,1.6-1.4
				s0.5-1.5,0.5-2.5c0-1-0.1-1.8-0.3-2.4C169.5,26.9,169.2,26.4,168.8,26.2z M188.6,26.2c-0.4-0.3-0.9-0.5-1.4-0.6
				c-0.6-0.1-1.3-0.1-2.2-0.1h-6.3c-0.6,0-1-0.1-1.3-0.3c-0.3-0.2-0.4-0.6-0.4-1.2c0-1,0.6-1.5,1.7-1.5h5.8c0.7,0,1.2,0.1,1.4,0.3
				c0.2,0.2,0.4,0.6,0.4,1h3.5c0-0.9-0.2-1.7-0.5-2.3c-0.3-0.6-0.9-1-1.6-1.3c-0.7-0.3-1.7-0.4-2.8-0.4h-5.9c-1,0-1.8,0.1-2.5,0.2
				c-0.7,0.2-1.2,0.4-1.6,0.7c-0.4,0.3-0.7,0.7-0.9,1.3c-0.2,0.5-0.3,1.1-0.3,1.9c0,0.9,0.1,1.7,0.3,2.2s0.5,1,0.9,1.3
				c0.4,0.3,1,0.5,1.6,0.6c0.7,0.1,1.5,0.2,2.6,0.2h5.1c0.6,0,1.1,0.1,1.5,0.2c0.4,0.1,0.6,0.3,0.7,0.6s0.2,0.5,0.2,0.9
				c0,0.6-0.2,1-0.5,1.2c-0.4,0.3-0.9,0.4-1.7,0.4h-5.8c-0.5,0-0.9-0.1-1.2-0.4c-0.3-0.3-0.5-0.6-0.5-1h-3.6c0,1,0.2,1.7,0.5,2.3
				c0.3,0.6,0.8,1,1.5,1.3c0.7,0.3,1.7,0.4,2.9,0.4h7c1.2,0,2.1-0.2,2.8-0.5c0.7-0.3,1.2-0.8,1.6-1.4c0.3-0.6,0.5-1.5,0.5-2.5
				c0-1-0.1-1.8-0.3-2.4C189.3,26.9,189,26.4,188.6,26.2z M216.9,29.2c-0.3-0.1-0.7-0.3-1.3-0.6c0.7-0.4,1.2-0.9,1.5-1.4
				c0.4-0.6,0.6-1.4,0.6-2.4c0-1-0.1-1.8-0.4-2.5c-0.2-0.7-0.6-1.2-1.1-1.6c-0.5-0.4-1-0.6-1.6-0.8c-0.6-0.2-1.3-0.2-2.1-0.2h-11
				v14.5h3.5v-4.3h6.7c1,0,1.7,0.2,2.1,0.5c0.4,0.3,0.6,0.8,0.6,1.6v2.3h3.5v-3c0-0.6-0.1-1-0.3-1.3
				C217.4,29.5,217.2,29.3,216.9,29.2z M213.8,26.5c-0.3,0.3-0.8,0.5-1.5,0.5H205v-4.4h7.3c0.8,0,1.3,0.2,1.6,0.5s0.4,0.9,0.4,1.7
				C214.2,25.6,214,26.2,213.8,26.5z M221.3,34.2h14.8v-2.7h-11.4v-3.3h11v-2.5h-11v-3.2h11.4v-2.7h-14.8V34.2z M246.2,19.7
				l-7.7,14.5h4.1l1.9-3.7h8.6l1.9,3.7h4.1l-7.6-14.5H246.2z M245.9,27.8l2.9-5.4h0.2l2.8,5.4H245.9z M264.7,31.4V19.7h-3.5v14.5
				h12.4v-2.9H264.7z"/>
		</g>
	</g>
</g>
</svg>
