<?xml version="1.0" encoding="utf-8"?>
<!-- Generator: Adobe Illustrator 24.1.2, SVG Export Plug-In . SVG Version: 6.00 Build 0)  -->
<svg version="1.1" id="Слой_1" xmlns="http://www.w3.org/2000/svg" xmlns:xlink="http://www.w3.org/1999/xlink" x="0px" y="0px"
	 viewBox="0 0 57.3 72.3" style="enable-background:new 0 0 57.3 72.3;" xml:space="preserve">
<style type="text/css">
	.st0{fill-rule:evenodd;clip-rule:evenodd;fill:#FFFFFF;}
</style>
<g>
	<g>
		<path class="st0" d="M0,14.4v28.9L5.1,41v6l1.3-0.6v-6.1l5-2.4v-18L0,14.4z M11.5,61.4l5.2-2.5v9.5l1.3-0.6v-9.5l4.9-2.3V43.4
			l-11.5-5.5V61.4z M29.4,9.3V0.6L28,0v8.7l-5.1-2.4v37.1l11.5-5.5V11.7L29.4,9.3z M34.4,72.3l11.5-5.5V43.4l-11.5-5.5V72.3z
			 M52.3,29.5v-5.8l-1.3-0.6v5.8l-5.1-2.4v16.9l11.5-5.5v-6L52.3,29.5z"/>
	</g>
</g>
</svg>
