<?xml version="1.0" encoding="utf-8"?>
<!-- Generator: Adobe Illustrator 24.1.2, SVG Export Plug-In . SVG Version: 6.00 Build 0)  -->
<svg version="1.1" id="Слой_1" xmlns="http://www.w3.org/2000/svg" xmlns:xlink="http://www.w3.org/1999/xlink" x="0px" y="0px"
	 viewBox="0 0 40 40" style="enable-background:new 0 0 40 40;" xml:space="preserve">
<style type="text/css">
	.st0{fill:#FFFFFF;}
</style>
<g>
	<g>
		<path class="st0" d="M20,0C9,0,0,9,0,20c0,11,9,20,20,20c11,0,20-9,20-20C40,9,31,0,20,0z M31.6,34c-0.2-0.7-0.3-1.2-0.6-1.8
			c-1-4.9-5.3-8.7-10.5-8.7c-5.2,0-9.6,3.8-10.5,8.7c-0.3,1-0.3,1.5-0.4,2.6C4.9,31.6,1.8,26.1,1.8,20C1.8,10,10,1.8,20,1.8
			S38.2,10,38.2,20C38.2,25.6,35.6,30.7,31.6,34z M20.4,8.6c-3.6,0-6.5,2.9-6.5,6.5c0,3.6,2.9,6.5,6.5,6.5c3.6,0,6.5-2.9,6.5-6.5
			C27,11.5,24,8.6,20.4,8.6z"/>
	</g>
</g>
</svg>
