<?xml version="1.0" encoding="utf-8"?>
<!-- Generator: Adobe Illustrator 24.1.2, SVG Export Plug-In . SVG Version: 6.00 Build 0)  -->
<svg version="1.1" id="Слой_1" xmlns="http://www.w3.org/2000/svg" xmlns:xlink="http://www.w3.org/1999/xlink" x="0px" y="0px"
	 viewBox="0 0 107.7 24.1" style="enable-background:new 0 0 107.7 24.1;" xml:space="preserve">
<style type="text/css">
	.st0{fill:#637A9F;}
</style>
<g>
	<g>
		<path class="st0" d="M14.6,0.4C8.3-1.2,1.9,2.7,0.4,9.1c-1.6,6.5,2.3,13,8.6,14.6c6.3,1.6,12.7-2.3,14.3-8.8
			C24.8,8.5,21,2,14.6,0.4z M17,10.3c-0.2,1.2-0.8,1.7-1.7,1.9c1.2,0.6,1.8,1.6,1.2,3.2c-0.7,2-2.4,2.2-4.6,1.8l-0.5,2.2l-1.3-0.3
			l0.5-2.2c-0.3-0.1-0.7-0.2-1-0.3l-0.5,2.2l-1.3-0.3l0.5-2.2c-0.3-0.1-0.6-0.2-0.9-0.2l-1.7-0.4l0.6-1.5c0,0,1,0.3,0.9,0.2
			c0.4,0.1,0.5-0.2,0.6-0.3l0.8-3.5c0,0,0.1,0,0.1,0c-0.1,0-0.1,0-0.1,0l0.6-2.5c0-0.3-0.1-0.6-0.6-0.8c0,0-0.9-0.2-0.9-0.2l0.3-1.4
			L10,6.2l0,0c0.3,0.1,0.5,0.1,0.8,0.2l0.5-2.2l1.3,0.3l-0.5,2.1c0.3,0.1,0.7,0.2,1,0.2l0.5-2.1l1.3,0.3l-0.5,2.2
			C16,7.9,17.2,8.7,17,10.3z M10.8,12.2l-0.7,2.9c0.9,0.2,3.6,1.1,4-0.5C14.5,12.9,11.6,12.4,10.8,12.2z M14.1,14.2
			c0,0.1,0,0.2-0.1,0.3C14.1,14.5,14.1,14.3,14.1,14.2z M11.7,8.2l-0.6,2.6c0.7,0.2,3,0.9,3.3-0.5C14.8,8.8,12.5,8.4,11.7,8.2z
			 M23.3,14.6c0,0.2-0.1,0.3-0.1,0.3C23.3,14.8,23.3,14.7,23.3,14.6z M23.8,12.7c0-0.2,0.1-0.3,0.1-0.4
			C23.9,12.3,23.8,12.5,23.8,12.7z M23.9,12.2C23.9,12.1,24,12,23.9,12.2L23.9,12.2z M23.7,13.2c0.1-0.2,0.1-0.4,0.1-0.6
			C23.8,12.8,23.7,13,23.7,13.2z M85.9,11.2c-0.3-0.8-0.6-1.5-1.1-2.1c-0.5-0.6-1.2-1-1.9-1.4C82,7.4,81.1,7.2,80,7.2
			c-1.4,0-2.7,0.3-3.8,0.9c-1.1,0.6-2,1.4-2.8,2.4c-0.8,1-1.3,2.1-1.7,3.3c-0.4,1.2-0.6,2.4-0.6,3.7c0,1,0.1,1.9,0.4,2.7
			c0.3,0.8,0.6,1.5,1.1,2.1c0.5,0.6,1.1,1,1.9,1.4c0.8,0.3,1.7,0.5,2.7,0.5c1.5,0,2.7-0.3,3.8-0.9c1.1-0.6,2-1.4,2.8-2.4
			c0.7-1,1.3-2.1,1.7-3.3c0.4-1.2,0.6-2.4,0.6-3.7C86.2,12.8,86.1,12,85.9,11.2z M81.6,16.3c-0.2,0.7-0.4,1.3-0.8,1.9
			c-0.3,0.6-0.8,1.1-1.3,1.5c-0.5,0.4-1.1,0.6-1.7,0.6c-0.8,0-1.4-0.3-1.7-0.9c-0.3-0.6-0.5-1.4-0.5-2.4c0-0.6,0.1-1.3,0.3-2
			c0.2-0.7,0.4-1.3,0.8-1.9c0.3-0.6,0.8-1.1,1.3-1.5c0.5-0.4,1.1-0.6,1.7-0.6c0.8,0,1.4,0.3,1.7,0.9c0.3,0.6,0.5,1.4,0.5,2.4
			C81.8,14.9,81.7,15.6,81.6,16.3z M67.9,11c0.6,0,1.1,0.1,1.6,0.2c0.4,0.1,0.8,0.3,1.2,0.4l1.5-3.5c-0.6-0.3-1.2-0.5-1.9-0.7
			c-0.7-0.2-1.5-0.3-2.4-0.3c-1.4,0-2.7,0.3-3.9,0.8c-1.2,0.5-2.2,1.3-3,2.2c-0.8,0.9-1.4,2-1.9,3.2c-0.4,1.2-0.7,2.5-0.7,3.9
			c0,0.9,0.1,1.8,0.4,2.6c0.2,0.8,0.7,1.6,1.2,2.2c0.6,0.6,1.3,1.1,2.1,1.5c0.9,0.4,1.9,0.5,3.1,0.5c0.9,0,1.7-0.1,2.4-0.3
			c0.7-0.2,1.3-0.4,1.9-0.6l-0.3-3.6c-0.4,0.2-0.9,0.3-1.4,0.5c-0.5,0.1-1.1,0.2-1.7,0.2c-1.2,0-2-0.3-2.4-1
			c-0.4-0.6-0.7-1.5-0.7-2.5c0-1.7,0.4-3.1,1.3-4.2C65.3,11.6,66.5,11,67.9,11z M90.8,5.1c0.5,0.4,1.1,0.6,1.7,0.6
			c0.4,0,0.8-0.1,1.2-0.2c0.4-0.2,0.7-0.4,1-0.7c0.3-0.3,0.5-0.6,0.7-1c0.2-0.4,0.3-0.8,0.3-1.2c0-0.8-0.3-1.3-0.7-1.7
			c-0.5-0.4-1.1-0.6-1.7-0.6c-0.4,0-0.8,0.1-1.2,0.2c-0.4,0.2-0.7,0.4-1,0.7c-0.3,0.3-0.5,0.6-0.7,1C90.1,2.6,90,3,90,3.4
			C90,4.2,90.3,4.7,90.8,5.1z M52.9,11.4h4.9l0.9-3.7h-5l1.1-4.7l-4.6,0.7l-2.9,12.6c-0.2,1-0.4,2-0.4,3c0,0.9,0.1,1.8,0.4,2.5
			c0.3,0.7,0.9,1.3,1.6,1.7c0.8,0.4,1.8,0.6,3.2,0.6c1,0,1.8-0.1,2.5-0.2c0.7-0.2,1.3-0.4,1.9-0.6l-0.3-3.5
			c-0.5,0.2-0.9,0.3-1.4,0.4c-0.4,0.1-0.9,0.1-1.4,0.1c-0.6,0-1-0.1-1.3-0.2c-0.3-0.2-0.5-0.4-0.6-0.7c-0.1-0.3-0.2-0.6-0.1-1.1
			c0-0.4,0.1-0.8,0.2-1.3L52.9,11.4z M43.9,5.1c0.5,0.4,1.1,0.6,1.7,0.6c0.4,0,0.8-0.1,1.2-0.2c0.4-0.2,0.7-0.4,1-0.7
			c0.3-0.3,0.5-0.6,0.7-1c0.2-0.4,0.3-0.8,0.3-1.2c0-0.8-0.2-1.3-0.7-1.7c-0.5-0.4-1.1-0.6-1.7-0.6c-0.4,0-0.8,0.1-1.2,0.2
			c-0.4,0.2-0.7,0.4-1,0.7c-0.3,0.3-0.5,0.6-0.7,1c-0.2,0.4-0.3,0.8-0.3,1.2C43.1,4.2,43.4,4.7,43.9,5.1z M106.9,9.3
			c-0.9-1.4-2.5-2.1-4.8-2.1c-0.8,0-1.5,0-2.1,0.1c-0.6,0.1-1.2,0.2-1.7,0.3c-0.5,0.1-1,0.2-1.4,0.4c-0.4,0.1-0.8,0.3-1.1,0.4
			l-3.6,15.3h4.4l2.9-12.4c0.6-0.1,1.2-0.2,1.8-0.2c0.6,0,1,0.1,1.3,0.3c0.3,0.2,0.5,0.5,0.6,0.9c0.1,0.4,0.1,0.8,0,1.3
			c-0.1,0.5-0.2,1-0.3,1.5l-2,8.5h4.4l2-8.7C107.9,12.6,107.8,10.7,106.9,9.3z M42.7,7.6l-3.7,16h4.4l3.8-16H42.7z M89.6,7.6
			l-3.7,16h4.4l3.8-16H89.6z M39,11.3c-0.2-0.8-0.6-1.5-1-2.1c-0.5-0.6-1-1.1-1.7-1.4c-0.7-0.3-1.5-0.5-2.5-0.5
			c-0.5,0-0.9,0.1-1.3,0.2c-0.4,0.1-0.8,0.2-1.2,0.4L33.2,0l-4.6,0.7l-5.2,22.2c0.6,0.3,1.2,0.5,1.8,0.7c0.6,0.2,1.3,0.3,1.8,0.4
			c0.6,0.1,1.1,0.1,1.5,0.1c0.4,0,0.8,0,0.9,0c1.4,0,2.7-0.3,3.9-0.8c1.2-0.5,2.2-1.3,3.1-2.2c0.9-0.9,1.6-2,2.1-3.3
			c0.5-1.3,0.8-2.6,0.8-4C39.4,12.9,39.3,12.1,39,11.3z M34.6,16.5c-0.3,0.7-0.6,1.4-1.1,2c-0.4,0.6-1,1-1.6,1.4
			c-0.6,0.3-1.3,0.5-2,0.5c-0.2,0-0.4,0-0.5,0c-0.1,0-0.3,0-0.4,0c-0.1,0-0.2,0-0.3,0c-0.1,0-0.2,0-0.3-0.1l2-8.4
			c0.4-0.3,0.8-0.5,1.2-0.6c0.4-0.1,0.8-0.2,1.1-0.2c0.9,0,1.4,0.3,1.8,0.8c0.3,0.6,0.5,1.3,0.5,2.3C34.9,15,34.8,15.7,34.6,16.5z"
			/>
	</g>
</g>
</svg>
