<?xml version="1.0" encoding="utf-8"?>
<!-- Generator: Adobe Illustrator 24.1.2, SVG Export Plug-In . SVG Version: 6.00 Build 0)  -->
<svg version="1.1" id="Слой_1" xmlns="http://www.w3.org/2000/svg" xmlns:xlink="http://www.w3.org/1999/xlink" x="0px" y="0px"
	 viewBox="0 0 119.1 30.7" style="enable-background:new 0 0 119.1 30.7;" xml:space="preserve">
<style type="text/css">
	.st0{fill:#637A9F;}
</style>
<g>
	<g>
		<path class="st0" d="M15.4,0c-4.1,0-8,1.6-10.9,4.5C1.6,7.4,0,11.2,0,15.4c0,4.1,1.6,8,4.5,10.9c2.9,2.9,6.8,4.5,10.9,4.5
			c4.1,0,8-1.6,10.9-4.5c2.9-2.9,4.5-6.8,4.5-10.9c0-4.1-1.6-8-4.5-10.9C23.4,1.6,19.5,0,15.4,0z M15.4,27.7
			c-6.8,0-12.3-5.5-12.3-12.3c0-6.8,5.5-12.3,12.3-12.3s12.3,5.5,12.3,12.3C27.7,22.1,22.1,27.7,15.4,27.7z M15.6,7.7h-5.5V14H8v3
			h2.1v6.4h5.5c4.4,0,7.5-3.4,7.5-7.9S20,7.7,15.6,7.7z M15.4,20.3h-2.5V17H16v-3.1h-3.1v-3.2h2.5c2.6,0,4.3,2,4.3,4.8
			S17.9,20.3,15.4,20.3z M119,13.1c-0.3-1.7-1.1-2.6-2.7-2.8c-1.8-0.3-3.6-0.1-5.3,0.5c-0.4,0.1-0.6,0.3-0.7,0.7
			c-0.8,3.2-1.5,6.4-2.3,9.6c-0.1,0.2-0.1,0.4-0.1,0.7c0.9,0,1.7,0,2.5,0c0.4,0,0.6-0.1,0.7-0.5c0.6-2.6,1.2-5.2,1.9-7.8
			c0.1-0.2,0.2-0.6,0.3-0.6c0.6-0.1,1.3-0.1,1.9,0c0.4,0.1,0.7,0.5,0.7,0.9c0,0.4,0,0.8-0.1,1.1c-0.4,1.8-0.8,3.6-1.2,5.4
			c-0.1,0.5-0.2,0.9-0.3,1.4c0.9,0,1.8,0,2.7,0c0.3,0,0.5-0.1,0.5-0.5c0.3-1.5,0.7-2.9,1-4.4c0.2-1,0.4-1.9,0.6-2.9v-0.6
			C119,13.3,119,13.2,119,13.1z M68.8,10.8c-1.4-0.6-2.9-0.8-4.5-0.6c-4.1,0.4-6.9,3.6-6.3,7.7c0.3,2.2,1.9,3.5,4.3,3.2
			c0.5-0.1,1-0.2,1.5-0.3c-0.3,1.8-1.3,2.6-3,2.7c-1,0-2-0.1-3-0.5c-0.2-0.1-0.4-0.2-0.5,0.1c-0.3,0.7-0.6,1.4-0.9,2.1
			c0.2,0.1,0.3,0.1,0.4,0.2c1.7,0.7,3.5,0.8,5.3,0.5c1.4-0.2,2.7-0.8,3.4-2c0.5-0.8,0.9-1.6,1.2-2.4c0.9-3.3,1.6-6.6,2.4-10
			C69.2,10.9,69,10.9,68.8,10.8z M64.5,17.7c0,0.1,0,0.1-0.1,0.2c-0.6,0.6-1.4,0.7-2.1,0.6c-0.6-0.1-1-0.5-1.2-1.1
			c-0.4-1.8,0.4-4,2.5-4.6c0.8-0.2,1.4-0.2,2.1,0C65.3,14.5,64.9,16.1,64.5,17.7z M45.8,8.1c0.2-1,0.5-2,0.7-3.1
			c-1,0.1-1.8,0.3-2.7,0.4c-0.4,0-0.6,0.2-0.6,0.6c-0.3,1.3-0.6,2.6-0.9,3.9c-0.1,0.4-0.2,0.5-0.6,0.4c-1.9-0.3-3.7,0.1-5.3,1.4
			c-2.2,1.8-2.9,4.1-2.6,6.9c0.2,1.4,0.8,2.7,2.2,3.2c1.4,0.6,2.8,0.4,4.1-0.4c0.2-0.1,0.4-0.3,0.7-0.4c0.2,0.8,0.5,1.2,1.3,1
			c0.6-0.2,1.2-0.2,1.9-0.3c-0.1-0.2-0.1-0.4-0.1-0.5c-0.4-1.4-0.5-2.8-0.1-4.2C44.4,13.9,45.1,11,45.8,8.1z M41.5,13.4
			c-0.4,1.6-0.7,3.2-1,4.9c-0.1,0.5-0.4,0.7-0.8,0.9c-1.3,0.8-2.5,0.2-2.8-1.3c-0.3-1.5,0.2-2.9,1.2-4.1c0.7-0.8,1.5-1.1,2.6-1.1
			c0.1,0,0.3,0,0.4,0C41.4,12.8,41.6,12.9,41.5,13.4z M98.5,10.3c-1.6-0.5-3.2-0.3-4.6,0.6c-2.3,1.5-3.3,3.7-3.3,6.4
			c0,0.3,0,0.6,0,0.8c0.1,1.8,1.3,3.4,3,3.7c2.1,0.5,4,0,5.5-1.5c1.9-1.9,2.6-4.2,2.2-6.9C101,12,100.1,10.8,98.5,10.3z M97,18.6
			c-0.5,0.6-1.2,0.9-2,0.8c-0.6-0.1-1-0.3-1.3-0.9c-0.6-1.5,0-4.2,1.3-5.2c0.4-0.3,0.9-0.5,1.4-0.6c0.8-0.1,1.4,0.3,1.7,1.2
			c0.1,0.4,0.1,0.8,0.2,1.1C98.2,16.4,97.9,17.6,97,18.6z M56.7,13.9c-0.1-1.8-1.3-3.3-3.1-3.7c-2-0.5-3.8,0-5.3,1.4
			c-2,1.8-2.7,4.2-2.4,6.8c0.2,1.6,1.1,2.9,2.7,3.4c1.8,0.5,3.6,0.3,5.1-0.9c2-1.5,2.8-3.7,2.9-6.2C56.7,14.5,56.7,14.2,56.7,13.9z
			 M52.2,18.9c-0.4,0.4-0.9,0.6-1.5,0.6c-0.8,0-1.3-0.3-1.5-1.1C49.1,18,49,17.5,49,17.3c0.1-1.4,0.3-2.5,1.1-3.5
			c0.6-0.7,1.3-1.2,2.3-1c0.6,0.1,0.9,0.4,1.1,0.9C54.1,15.2,53.4,17.8,52.2,18.9z M77.2,10.2c-1.7-0.3-3.3,0.1-4.7,1.2
			c-2.3,1.8-3.2,4.2-2.9,7.1c0.2,1.7,1.2,2.9,2.8,3.4c1.7,0.5,3.4,0.3,5.1-0.3c0.1,0,0.3-0.3,0.3-0.4c0-0.7-0.1-1.4-0.2-1.9
			c-1.1,0.1-2.2,0.2-3.3,0.2c-1.1,0-1.6-0.6-1.8-1.7c0.2,0,0.4-0.1,0.6-0.1c0.8-0.1,1.6-0.1,2.4-0.2c1.3-0.2,2.5-0.7,3.3-1.7
			c0.9-1.1,1.1-2.3,0.7-3.6C79.3,11,78.4,10.4,77.2,10.2z M76.7,14.5c-0.3,0.3-0.6,0.5-1,0.6c-0.9,0.4-1.9,0.5-3,0.4
			c0.1-1.8,1.8-3.2,3.4-3c0.3,0,0.7,0.3,0.8,0.6C77.1,13.6,77.1,14.2,76.7,14.5z M90.1,10.6c-2.4-0.8-4.8-0.7-6.9,0.9
			c-2.1,1.7-2.8,4-2.6,6.6c0.2,2.2,1.6,3.4,3.3,3.8c1.4,0.3,2.8,0.2,4.2-0.3c0.2-0.1,0.3-0.3,0.3-0.5c0-0.7-0.1-1.4-0.2-2
			c-0.9,0.1-1.7,0.2-2.5,0.3c-1.1,0-1.8-0.6-1.9-1.6c-0.1-0.7-0.1-1.4,0-2.1c0.3-1.4,1-2.5,2.5-2.9c0.9-0.2,1.7-0.1,2.5,0.2
			c0.3,0.1,0.5,0.1,0.6-0.2c0.2-0.6,0.5-1.1,0.7-1.7C90.5,10.8,90.4,10.7,90.1,10.6z M105.1,10.4c-0.5,0-0.7,0.1-0.8,0.6
			c-0.7,2.9-1.4,5.7-2,8.6c-0.2,0.7-0.3,1.4-0.5,2.2c0.9,0,1.7,0,2.5,0c0.4,0,0.6-0.1,0.7-0.5c0.6-2.5,1.2-5.1,1.8-7.6
			c0.3-1.1,0.5-2.1,0.8-3.3C106.7,10.4,105.9,10.4,105.1,10.4z M105.9,8.8c1.2,0.4,2.4-0.4,2.7-1.6c0.2-0.9-0.2-1.6-1-1.9
			c-1.4-0.4-2.8,0.6-2.8,2C104.8,8,105.1,8.5,105.9,8.8z"/>
	</g>
</g>
</svg>
