<?xml version="1.0" encoding="utf-8"?>
<!-- Generator: Adobe Illustrator 24.1.2, SVG Export Plug-In . SVG Version: 6.00 Build 0)  -->
<svg version="1.1" id="Слой_1" xmlns="http://www.w3.org/2000/svg" xmlns:xlink="http://www.w3.org/1999/xlink" x="0px" y="0px"
	 viewBox="0 0 60.9 41.2" style="enable-background:new 0 0 60.9 41.2;" xml:space="preserve">
<style type="text/css">
	.st0{fill-rule:evenodd;clip-rule:evenodd;fill:#FF7E47;}
</style>
<g>
	<g>
		<path class="st0" d="M42.5,18.5L42.5,18.5L28.1,4L26,6.1l14.4,14.5L26,35.1l2.1,2.1l16.5-16.6L42.5,18.5z M58.8,18.5L58.8,18.5
			L40.4,0l-2.1,2.1l18.4,18.5L38.3,39.1l2.1,2.1l20.5-20.6L58.8,18.5z M10.5,18.5L2.1,10L0,12.1l8.4,8.5L0,29.1l2.1,2.1l10.5-10.6
			L10.5,18.5L10.5,18.5z M26.8,18.5L26.8,18.5L15.4,7l-2.1,2.1l11.4,11.5L13.3,32.1l2.1,2.1l13.5-13.6L26.8,18.5z"/>
	</g>
</g>
</svg>
