<?xml version="1.0" encoding="utf-8"?>
<!-- Generator: Adobe Illustrator 24.1.2, SVG Export Plug-In . SVG Version: 6.00 Build 0)  -->
<svg version="1.1" id="Слой_1" xmlns="http://www.w3.org/2000/svg" xmlns:xlink="http://www.w3.org/1999/xlink" x="0px" y="0px"
	 viewBox="0 0 23.2 23.2" style="enable-background:new 0 0 23.2 23.2;" xml:space="preserve">
<style type="text/css">
	.st0{fill:#A2C5FF;}
</style>
<path class="st0" d="M11.6,0c-3.1,0-6,1.2-8.2,3.4C1.2,5.6,0,8.5,0,11.6c0,6.3,5.3,11.6,11.6,11.6c2,0,4-0.5,5.8-1.6
	c1.8-1,3.2-2.5,4.2-4.2c1-1.8,1.6-3.8,1.6-5.8C23.2,5.3,17.9,0,11.6,0L11.6,0z M13.8,18C13.8,18,13.8,18,13.8,18
	C13.8,18,13.7,18,13.8,18L9.5,18c0,0-0.1,0-0.1-0.1v-2c0,0,0-0.1,0.1-0.1h0.6l0-4.7H9.5c0,0-0.1,0-0.1-0.1v-2c0,0,0-0.1,0.1-0.1h3.3
	c0,0,0,0,0,0c0,0,0,0,0,0v6.7h1c0,0,0,0,0,0c0,0,0,0,0,0L13.8,18z M11.4,5.2c0.4,0,0.8,0.2,1.1,0.5C12.9,5.9,13,6.3,13,6.8
	c0,0.4-0.2,0.8-0.5,1.1c-0.3,0.3-0.7,0.5-1.1,0.5c-0.4,0-0.8-0.2-1.1-0.5C10,7.6,9.8,7.2,9.8,6.8c0-0.4,0.2-0.8,0.5-1.1
	C10.6,5.3,11,5.2,11.4,5.2z"/>
</svg>
