<?xml version="1.0" encoding="utf-8"?>
<!-- Generator: Adobe Illustrator 24.1.2, SVG Export Plug-In . SVG Version: 6.00 Build 0)  -->
<svg version="1.1" id="Слой_1" xmlns="http://www.w3.org/2000/svg" xmlns:xlink="http://www.w3.org/1999/xlink" x="0px" y="0px"
	 viewBox="0 0 40 40" style="enable-background:new 0 0 40 40;" xml:space="preserve">
<style type="text/css">
	.st0{fill:#FFFFFF;}
</style>
<g>
	<g>
		<path class="st0" d="M20,0C9,0,0,9,0,20c0,11,9,20,20,20c11,0,20-9,20-20C40,9,31,0,20,0z M20,38.2C10,38.2,1.8,30,1.8,20
			C1.8,10,10,1.8,20,1.8C30,1.8,38.2,10,38.2,20C38.2,30,30,38.2,20,38.2z M12.1,27.5h2.6V13.8h-2.6V27.5z M29.7,15.2
			c-0.2-0.4-0.6-0.8-1.1-1c-0.5-0.2-1.1-0.3-1.8-0.3H20c-1.3,0-2,0.7-2,2.1v11.6h2.6v-4.9h6.2c0.7,0,1.3-0.1,1.8-0.4
			c0.5-0.2,0.8-0.6,1.1-1c0.2-0.4,0.4-0.9,0.5-1.4c0.1-0.5,0.1-1.1,0.1-1.7c0-0.7,0-1.2-0.1-1.7C30.1,16.1,29.9,15.6,29.7,15.2z
			 M27.2,20.1c-0.3,0.4-0.8,0.6-1.7,0.6h-5v-3.8c0-0.4,0.1-0.7,0.2-0.8c0.1-0.1,0.4-0.2,0.8-0.2h4c0.8,0,1.4,0.2,1.7,0.5
			c0.3,0.4,0.4,1,0.4,1.8C27.7,19.1,27.5,19.7,27.2,20.1z"/>
	</g>
</g>
</svg>
