<?xml version="1.0" encoding="utf-8"?>
<!-- Generator: Adobe Illustrator 24.1.2, SVG Export Plug-In . SVG Version: 6.00 Build 0)  -->
<svg version="1.1" id="Слой_1" xmlns="http://www.w3.org/2000/svg" xmlns:xlink="http://www.w3.org/1999/xlink" x="0px" y="0px"
	 viewBox="0 0 63.9 63.9" style="enable-background:new 0 0 63.9 63.9;" xml:space="preserve">
<style type="text/css">
	.st0{fill:#FFFFFF;}
</style>
<g>
	<g>
		<path class="st0" d="M32,0C14.3,0,0,14.3,0,32c0,17.7,14.3,32,32,32c17.7,0,32-14.3,32-32C63.9,14.3,49.6,0,32,0z M32,62.2
			C15.3,62.2,1.7,48.7,1.7,32C1.7,15.3,15.3,1.7,32,1.7c16.7,0,30.2,13.5,30.2,30.2C62.2,48.7,48.7,62.2,32,62.2z M29.8,39.4
			l-7.1,7.1l-0.2,0.2c-0.8,0.6-1.9,0.6-2.7-0.2L17,43.6l-0.2-0.2c-0.6-0.8-0.6-1.9,0.2-2.7l11.3-11.3l0.2-0.2
			c0.8-0.6,1.9-0.6,2.7,0.2l1.4,1.4l0.2,0.2c0.8,0.6,1.9,0.6,2.7-0.2c0.8-0.8,0.8-2.1,0-2.8l-1.4-1.4l-0.3-0.2c-2.4-2.1-6-2-8.3,0.2
			L14.2,38L14,38.2c-2.1,2.4-2,6,0.2,8.3l2.8,2.8l0.3,0.2c2.4,2.1,6,2,8.3-0.2l7.1-7.1l0.2-0.2c0.6-0.8,0.6-1.9-0.2-2.7
			C31.9,38.6,30.6,38.6,29.8,39.4z M46.8,13.8l-0.3-0.2c-2.4-2.1-6-2-8.3,0.2l-7.1,7.1l-0.2,0.2c-0.6,0.8-0.6,1.9,0.2,2.7
			c0.8,0.8,2.1,0.8,2.8,0l7.1-7.1l0.2-0.2c0.8-0.6,1.9-0.6,2.7,0.2l2.8,2.8l0.2,0.2c0.6,0.8,0.6,1.9-0.2,2.7L35.5,33.7l-0.2,0.2
			c-0.8,0.6-1.9,0.6-2.7-0.2l-1.4-1.4L31,32.1c-0.8-0.6-1.9-0.6-2.7,0.2c-0.8,0.8-0.8,2.1,0,2.8l1.4,1.4l0.3,0.2
			c2.4,2.1,6,2,8.3-0.2l11.3-11.3l0.2-0.3c2.1-2.4,2-6-0.2-8.3L46.8,13.8z"/>
	</g>
</g>
</svg>
