<?xml version="1.0" encoding="utf-8"?>
<!-- Generator: Adobe Illustrator 24.1.2, SVG Export Plug-In . SVG Version: 6.00 Build 0)  -->
<svg version="1.1" id="Слой_1" xmlns="http://www.w3.org/2000/svg" xmlns:xlink="http://www.w3.org/1999/xlink" x="0px" y="0px"
	 viewBox="0 0 109 30.8" style="enable-background:new 0 0 109 30.8;" xml:space="preserve">
<style type="text/css">
	.st0{fill:#637A9F;}
</style>
<g>
	<g>
		<path class="st0" d="M18.7,0.4C18,0.3,17.4,0.1,16.7,0h-3c-0.6,0.1-1.2,0.2-1.8,0.4C5.6,1.8,1,7,0.1,13.5c0,0.1-0.1,0.3-0.1,0.4v3
			c0.1,0.6,0.2,1.1,0.3,1.7c1.4,6.5,6.5,11.2,13,12.1c0.1,0,0.3,0.1,0.4,0.1h3c0.1,0,0.3-0.1,0.4-0.1c7.2-0.9,12.9-7.1,13.3-14.3
			C30.8,8.7,25.9,2.1,18.7,0.4z M22.9,23.2H7.7c0.5-1.8,0.9-3.5,1.4-5.3c-0.6,0.2-1.1,0.4-1.7,0.6c0.3-1,0.5-1.9,0.8-2.8
			c0.1-0.2,0.5-0.4,0.8-0.5c0.7-0.2,1-0.6,1.2-1.3c0.6-2.6,1.4-5.2,2-7.8c0.1-0.5,0.3-0.7,0.8-0.6c1.8,0,3.5,0,5.4,0
			c-0.6,2.3-1.2,4.5-1.8,6.9c0.6-0.2,1.1-0.4,1.6-0.6c-0.3,1-0.5,2-0.8,2.9c-0.1,0.2-0.5,0.4-0.8,0.5c-0.6,0.2-1,0.5-1.1,1.2
			c-0.2,1-0.5,2-0.8,3h9.1C23.6,20.6,23.2,21.9,22.9,23.2z M105,13c-1.1,0.1-2.2,0.3-3.4,0.5c-0.4,0.1-0.6,0.3-0.7,0.7
			c-0.2,1.1-0.5,2.2-0.8,3.4c-0.5,2-1,4-1.4,6.1h2.9c0.6-2.5,1.2-4.9,1.7-7.4c0.1-0.6,0.3-0.9,0.9-0.8c0.2,0,0.4,0,0.6,0
			c0.7,0.1,1.1,0.4,1.1,1.2c0,0.5-0.1,1-0.2,1.5c-0.4,1.8-0.8,3.7-1.3,5.5c0.8,0,1.5,0,2.3,0c0.6,0,0.7-0.2,0.8-0.7
			c0.4-2,0.9-4,1.4-6v-1.4C108.2,13.5,107.3,12.8,105,13z M89.3,13c-1.5-0.3-3-0.1-4.2,0.8c-1.9,1.4-2.7,3.3-2.8,5.1
			c0,2.7,0.8,4.2,2.6,4.7c1.5,0.5,2.9,0.3,4.3-0.5c2.4-1.5,3.7-4.9,2.9-7.6C91.6,14.2,90.7,13.3,89.3,13z M88.4,20.4
			c-0.2,0.2-0.4,0.5-0.6,0.6c-1.2,0.8-2.4,0.3-2.5-1.1c0,0.2-0.4-0.9,0.8-3.4c0.2-0.4,0.6-0.7,1-0.9c1-0.6,2-0.1,2.2,1.1
			C89.5,18,89.2,19.3,88.4,20.4z M69.6,13c-0.6-0.1-1.3,0-2,0.1c-3.2,0.8-5.3,4.3-4.7,7.6c0.3,1.3,0.9,2.4,2.2,2.9
			c1.8,0.7,3.6,0.4,5.4-0.2c-0.1-0.8-0.2-1.5-0.2-2.1c-1,0.1-2,0.2-3,0.2c-1,0-1.4-0.5-1.5-1.5c0.7-0.1,1.4-0.1,2.1-0.2
			c1.2-0.2,2.3-0.5,3.2-1.3c1.1-0.9,1.4-2.1,1.1-3.5C71.9,13.7,70.9,13.1,69.6,13z M69,17.3c-1,0.5-2,0.6-3.1,0.6
			c0.2-1.4,1.2-2.5,2.4-2.6c0.5-0.1,1.1,0,1.2,0.6C69.8,16.5,69.6,17,69,17.3z M44,9.8c-0.8,0-1.6,0-2.3,0c-0.6,0-0.8,0.1-1,0.7
			c-0.9,4.1-1.9,8.1-2.9,12.2c-0.1,0.3-0.1,0.6-0.2,0.9h9.1c0.2-0.9,0.4-1.7,0.6-2.6h-6.1C42.3,17.3,43.2,13.6,44,9.8z M60.2,10.1
			c-0.8,0.1-1.6,0.3-2.4,0.4c-0.5,0-0.7,0.3-0.8,0.8c-0.4,1.6-0.8,3.3-1.1,4.9c-0.3,1.5-0.7,3-0.9,4.5c-0.2,1.4,0.4,2.6,1.5,3
			c1.6,0.6,3.2,0.4,4.8-0.2c-0.1-0.7-0.1-1.3-0.2-1.9c0-0.1-0.1-0.2-0.1-0.2c-0.6,0.1-1.2,0.2-1.8,0.2c-1.1,0-1.6-0.5-1.4-1.5
			c0.3-1.4,0.6-2.8,1-4.3h3.3c0.2-0.8,0.4-1.6,0.6-2.5h-3.3C59.7,12.1,60,11.1,60.2,10.1z M81.8,13.3c-4.6-1.6-8.9,1.9-8.4,6.7
			c0.2,1.9,1.1,3.2,2.9,3.7c1.4,0.4,2.8,0.3,4.1-0.2c0.2-0.1,0.3-0.3,0.3-0.5c0-0.6-0.1-1.3-0.2-1.9c-0.6,0.1-1.2,0.3-1.7,0.3
			c-1.6,0.2-2.3-0.5-2.4-2.1c-0.2-2.9,1.8-4.5,4.6-3.7c0.1,0,0.3,0.1,0.5,0.1c0.2-0.4,0.3-0.7,0.5-1.1c0.2-0.4,0.3-0.7,0.5-1.1
			C82.1,13.4,81.9,13.3,81.8,13.3z M48.7,23.7c0.8,0,1.6,0,2.3,0c0.4,0,0.6-0.1,0.7-0.6c0.7-3.1,1.5-6.3,2.2-9.4c0-0.1,0-0.3,0-0.5
			h-2.9C50.4,16.7,49.6,20.1,48.7,23.7z M93.1,23.7c0.8,0,1.6,0,2.4,0c0.4,0,0.6-0.1,0.7-0.5c0.5-2.1,1-4.2,1.5-6.3
			c0.3-1.2,0.6-2.4,0.9-3.6h-2.9C94.7,16.7,93.9,20.1,93.1,23.7z M53.5,8.4c-1.1,0-2,0.9-2.1,2c0,0.9,0.6,1.5,1.6,1.5
			c1.1,0,2-0.9,2.1-2C55.1,9,54.5,8.4,53.5,8.4z M97.4,11.9c1.1,0,2-0.9,2-2c0-0.9-0.6-1.5-1.6-1.5c-1.1,0-2,0.9-2,2
			C95.8,11.3,96.4,11.9,97.4,11.9z"/>
	</g>
</g>
</svg>
