<?xml version="1.0" encoding="utf-8"?>
<!-- Generator: Adobe Illustrator 24.1.2, SVG Export Plug-In . SVG Version: 6.00 Build 0)  -->
<svg version="1.1" id="Слой_1" xmlns="http://www.w3.org/2000/svg" xmlns:xlink="http://www.w3.org/1999/xlink" x="0px" y="0px"
	 viewBox="0 0 49 69.3" style="enable-background:new 0 0 49 69.3;" xml:space="preserve">
<style type="text/css">
	.st0{fill-rule:evenodd;clip-rule:evenodd;fill:url(#SVGID_1_);}
	.st1{fill:none;stroke:#FFFFFF;stroke-miterlimit:10;}
</style>
<g>
	<g>
		<linearGradient id="SVGID_1_" gradientUnits="userSpaceOnUse" x1="5.0147" y1="10.0442" x2="43.9853" y2="49.0148">
			<stop  offset="0" style="stop-color:#FF7E47"/>
			<stop  offset="1" style="stop-color:#BD572B"/>
		</linearGradient>
		<path class="st0" d="M24.5,0.5c-13.3,0-24,10.7-24,24c0,16.8,24,44,24,44s24-27,24-44C48.5,11.2,37.8,0.5,24.5,0.5z M24.5,37.9
			c-7.4,0-13.4-6-13.4-13.4s6-13.4,13.4-13.4c7.4,0,13.4,6,13.4,13.4S31.9,37.9,24.5,37.9z"/>
	</g>
	<g>
		<path class="st1" d="M24.5,0.5c-13.3,0-24,10.7-24,24c0,16.8,24,44,24,44s24-27,24-44C48.5,11.2,37.8,0.5,24.5,0.5z M24.5,37.9
			c-7.4,0-13.4-6-13.4-13.4s6-13.4,13.4-13.4c7.4,0,13.4,6,13.4,13.4S31.9,37.9,24.5,37.9z"/>
	</g>
</g>
</svg>
