<?xml version="1.0" encoding="utf-8"?>
<!-- Generator: Adobe Illustrator 24.1.2, SVG Export Plug-In . SVG Version: 6.00 Build 0)  -->
<svg version="1.1" id="Слой_1" xmlns="http://www.w3.org/2000/svg" xmlns:xlink="http://www.w3.org/1999/xlink" x="0px" y="0px"
	 viewBox="0 0 12.6 15.8" style="enable-background:new 0 0 12.6 15.8;" xml:space="preserve">
<style type="text/css">
	.st0{fill:#2B3A4D;}
</style>
<path class="st0" d="M6.3,0c2.1,0,3.9,1.7,3.9,3.8l0,0.2H8.7c0-1.3-1.1-2.4-2.4-2.4c-1.3,0-2.3,1-2.4,2.2l0,0.1v3.2h5.5
	c1.7,0,3.1,1.3,3.2,3l0,0.2v2.4c0,1.7-1.4,3.2-3.2,3.2H3.2c-1.7,0-3.2-1.4-3.2-3.2v-2.4c0-1.5,1-2.7,2.4-3.1l0-3.3
	C2.4,1.8,4.1,0,6.3,0L6.3,0z M9.5,8.7H3.2c-0.9,0-1.6,0.7-1.6,1.6v2.4c0,0.9,0.7,1.6,1.6,1.6h6.3c0.9,0,1.6-0.7,1.6-1.6v-2.4
	C11,9.4,10.3,8.7,9.5,8.7z"/>
</svg>
