<?xml version="1.0" encoding="utf-8"?>
<!-- Generator: Adobe Illustrator 24.1.2, SVG Export Plug-In . SVG Version: 6.00 Build 0)  -->
<svg version="1.1" id="Слой_1" xmlns="http://www.w3.org/2000/svg" xmlns:xlink="http://www.w3.org/1999/xlink" x="0px" y="0px"
	 viewBox="0 0 40.1 40.1" style="enable-background:new 0 0 40.1 40.1;" xml:space="preserve">
<style type="text/css">
	.st0{fill:#FFFFFF;}
</style>
<g>
	<g>
		<path class="st0" d="M20,0C9,0,0,9,0,20c0,11.1,9,20,20,20c11.1,0,20-9,20-20C40.1,9,31.1,0,20,0z M20,38.3
			C10,38.3,1.8,30.1,1.8,20C1.8,10,10,1.8,20,1.8C30.1,1.8,38.3,10,38.3,20C38.3,30.1,30.1,38.3,20,38.3z M20.1,21.9
			c0.2,0,0.5-0.1,0.6-0.3l8.2-8.1c-0.1,0-0.2-0.1-0.3-0.1H11.6c-0.1,0-0.2,0-0.3,0.1l8.2,8.1C19.6,21.8,19.9,21.9,20.1,21.9z
			 M10.6,14.3c0,0.1,0,0.1,0,0.2v11.2c0,0.1,0,0.1,0,0.2l5.9-5.8L10.6,14.3z M23.7,20l5.9,5.8c0-0.1,0-0.1,0-0.2V14.4
			c0-0.1,0-0.1,0-0.2L23.7,20z M21.4,22.3c-0.4,0.4-0.8,0.5-1.3,0.5c-0.5,0-1-0.2-1.3-0.5l-1.6-1.6l-5.9,5.8c0.1,0,0.2,0.1,0.3,0.1
			h17.1c0.1,0,0.2,0,0.3-0.1l-5.9-5.8L21.4,22.3z"/>
	</g>
</g>
</svg>
