<?xml version="1.0" encoding="utf-8"?>
<!-- Generator: Adobe Illustrator 24.1.2, SVG Export Plug-In . SVG Version: 6.00 Build 0)  -->
<svg version="1.1" id="Слой_1" xmlns="http://www.w3.org/2000/svg" xmlns:xlink="http://www.w3.org/1999/xlink" x="0px" y="0px"
	 viewBox="0 0 24.1 22.8" style="enable-background:new 0 0 24.1 22.8;" xml:space="preserve">
<style type="text/css">
	.st0{fill:#637A9F;}
</style>
<g>
	<g>
		<path class="st0" d="M12,19.2c-6.6,0-12-1.2-12-2.7v2.7c0,2.4,6,3.6,12,3.6c6.1,0,12-1.2,12-3.6v-2.7C24,18,18.7,19.2,12,19.2z
			 M12,17.4c6.6,0,12-1.2,12-2.7c0-1.5-5.4-2.7-12-2.7S0,13.2,0,14.7C0,16.2,5.4,17.4,12,17.4z M11.4,8.5c0.2,0.2,0.5,0.3,0.8,0.3
			c0.3,0,0.6-0.1,0.8-0.3l3.7-3.4c0.1-0.1,0.2-0.2,0.2-0.4c0-0.1,0-0.2-0.1-0.3c-0.2-0.2-0.5-0.3-0.9-0.3h-1.6V0.4
			C14.3,0.2,14,0,13.6,0h-2.9c-0.3,0-0.7,0.2-0.7,0.4v3.7H8.5c-0.4,0-0.7,0.1-0.9,0.3C7.4,4.6,7.5,4.9,7.7,5.1L11.4,8.5z"/>
	</g>
</g>
</svg>
