<?xml version="1.0" encoding="utf-8"?>
<!-- Generator: Adobe Illustrator 24.1.2, SVG Export Plug-In . SVG Version: 6.00 Build 0)  -->
<svg version="1.1" id="Слой_1" xmlns="http://www.w3.org/2000/svg" xmlns:xlink="http://www.w3.org/1999/xlink" x="0px" y="0px"
	 viewBox="0 0 22 14.6" style="enable-background:new 0 0 22 14.6;" xml:space="preserve">
<style type="text/css">
	.st0{fill:#637A9F;}
</style>
<g>
	<g>
		<path class="st0" d="M11,6c1.6,0,3-1.3,3-3c0-1.6-1.3-3-3-3s-3,1.3-3,3C8.1,4.6,9.4,6,11,6z M17.7,5.9c1.2,0,2.2-1,2.2-2.2
			c0-1.2-1-2.2-2.2-2.2c-1.2,0-2.2,1-2.2,2.2C15.5,4.9,16.4,5.9,17.7,5.9z M17.7,6.7c-1,0-1.7,0.2-2.4,0.7c0.1,0.1,0.2,0.2,0.3,0.2
			c1.1,1.1,1.8,2.7,2.1,4.8c0,0.1,0,0.2,0,0.2c2.4,0,4.5-0.4,4.4-1.5C21.6,8.3,20.1,6.7,17.7,6.7z M4.4,5.9c1.2,0,2.2-1,2.2-2.2
			c0-1.2-1-2.2-2.2-2.2c-1.2,0-2.2,1-2.2,2.2C2.2,4.9,3.2,5.9,4.4,5.9z M6.8,7.4C6.1,6.9,5.3,6.7,4.4,6.7c-2.5,0-3.9,1.6-4.4,4.5
			c-0.2,1.1,2,1.5,4.4,1.5c0-0.1,0-0.2,0-0.2c0.3-2.1,1-3.7,2.1-4.8C6.6,7.5,6.7,7.4,6.8,7.4z M11,6.6c-3.3,0-5.2,2.2-5.9,6
			c-0.2,1.4,2.6,2,5.9,2c3.2,0,6.1-0.6,5.9-2C16.3,8.8,14.3,6.6,11,6.6z"/>
	</g>
</g>
</svg>
