<?xml version="1.0" encoding="utf-8"?>
<!-- Generator: Adobe Illustrator 24.1.2, SVG Export Plug-In . SVG Version: 6.00 Build 0)  -->
<svg version="1.1" id="Слой_1" xmlns="http://www.w3.org/2000/svg" xmlns:xlink="http://www.w3.org/1999/xlink" x="0px" y="0px"
	 viewBox="0 0 25.8 25.7" style="enable-background:new 0 0 25.8 25.7;" xml:space="preserve">
<style type="text/css">
	.st0{fill:#637A9F;}
</style>
<g>
	<g>
		<path class="st0" d="M24.8,0H10.1C9.6,0,9.2,0.4,9.2,0.9v1.8H7.4c-0.5,0-0.9,0.4-0.9,0.9v3.7c0,0.5,0.4,0.9,0.9,0.9
			c0.5,0,0.9-0.4,0.9-0.9V4.6h12.9v16.6h-3.7c-0.5,0-0.9,0.4-0.9,0.9c0,0.5,0.4,0.9,0.9,0.9h4.6c0.5,0,0.9-0.4,0.9-0.9v-1.8h1.8
			c0.5,0,0.9-0.4,0.9-0.9V0.9C25.8,0.4,25.4,0,24.8,0z M23.9,18.4H23V3.7c0-0.5-0.4-0.9-0.9-0.9H11V1.8h12.9V18.4z M18.4,6.4H11
			c-0.5,0-0.9,0.4-0.9,0.9c0,0.5,0.4,0.9,0.9,0.9h7.4c0.5,0,0.9-0.4,0.9-0.9C19.3,6.8,18.9,6.4,18.4,6.4z M18.4,10.1h-1.8
			c-0.5,0-0.9,0.4-0.9,0.9c0,0.5,0.4,0.9,0.9,0.9h1.8c0.5,0,0.9-0.4,0.9-0.9C19.3,10.5,18.9,10.1,18.4,10.1z M17.8,17.7
			c-0.2,0.2-0.3,0.4-0.3,0.7c0,0.2,0.1,0.5,0.3,0.7c0.2,0.2,0.4,0.3,0.7,0.3s0.5-0.1,0.7-0.3c0.2-0.2,0.3-0.4,0.3-0.7
			c0-0.2-0.1-0.5-0.3-0.7C18.7,17.4,18.1,17.4,17.8,17.7z M19.1,14.1c-0.3-0.3-1-0.3-1.3,0c-0.2,0.2-0.3,0.4-0.3,0.7
			c0,0.2,0.1,0.5,0.3,0.7c0.2,0.2,0.4,0.3,0.7,0.3c0.2,0,0.5-0.1,0.6-0.3c0.2-0.2,0.3-0.4,0.3-0.7C19.3,14.5,19.2,14.2,19.1,14.1z
			 M16.4,15.6c0.1-0.2,0-0.5-0.1-0.7l-1.8-3.2c-0.1-0.2-0.3-0.4-0.6-0.4c-0.2-0.1-0.5,0-0.7,0.1l-1.3,0.8c-0.3-0.2-0.6-0.4-0.9-0.5
			v-1.5c0-0.5-0.4-0.9-0.9-0.9H6.4c-0.5,0-0.9,0.4-0.9,0.9l0,1.5c-0.3,0.1-0.6,0.3-0.9,0.5l-1.3-0.8c-0.2-0.1-0.5-0.2-0.7-0.1
			c-0.2,0.1-0.4,0.2-0.6,0.4l-1.8,3.2C0,15.1,0,15.4,0,15.6c0.1,0.2,0.2,0.4,0.4,0.6L1.8,17c0,0.2,0,0.3,0,0.5c0,0.2,0,0.3,0,0.5
			l-1.3,0.8c-0.2,0.1-0.4,0.3-0.4,0.6C0,19.6,0,19.8,0.1,20L2,23.2c0.1,0.2,0.3,0.4,0.6,0.4c0.2,0.1,0.5,0,0.7-0.1l1.3-0.8
			c0.3,0.2,0.6,0.4,0.9,0.5v1.5c0,0.5,0.4,0.9,0.9,0.9h3.7c0.5,0,0.9-0.4,0.9-0.9v-1.5c0.3-0.1,0.6-0.3,0.9-0.5l1.3,0.8
			c0.2,0.1,0.5,0.2,0.7,0.1c0.2-0.1,0.4-0.2,0.6-0.4l1.8-3.2c0.1-0.2,0.2-0.5,0.1-0.7c-0.1-0.2-0.2-0.4-0.4-0.6L14.6,18
			c0-0.2,0-0.3,0-0.5c0-0.2,0-0.3,0-0.5l1.3-0.8C16.2,16.1,16.3,15.9,16.4,15.6z M12.7,16.6c0.1,0.3,0.1,0.6,0.1,0.8
			c0,0.3,0,0.6-0.1,0.8c-0.1,0.4,0.1,0.8,0.4,1l1.1,0.6l-0.9,1.6l-1.1-0.6c-0.3-0.2-0.8-0.2-1.1,0.1c-0.4,0.4-0.9,0.6-1.5,0.8
			c-0.4,0.1-0.6,0.5-0.6,0.9v1.2H7.3v-1.2c0-0.4-0.2-0.7-0.6-0.9c-0.5-0.2-1-0.5-1.5-0.8c-0.3-0.3-0.7-0.3-1.1-0.1l-1.1,0.6
			l-0.9-1.6l1.1-0.6c0.3-0.2,0.5-0.6,0.4-1c-0.1-0.3-0.1-0.6-0.1-0.8c0-0.3,0-0.5,0.1-0.8c0.1-0.4-0.1-0.8-0.4-1L2.2,15l0.9-1.6
			l1.1,0.6c0.3,0.2,0.8,0.2,1.1-0.1c0.4-0.4,0.9-0.6,1.5-0.8C7,13,7.3,12.7,7.3,12.3V11h1.8v1.2c0,0.4,0.2,0.7,0.6,0.9
			c0.5,0.2,1,0.5,1.5,0.8c0.3,0.3,0.7,0.3,1.1,0.1l1.1-0.6l0.9,1.6l-1.1,0.6C12.8,15.9,12.7,16.2,12.7,16.6z M8.2,14.7
			c-1.5,0-2.8,1.2-2.8,2.8c0,1.5,1.2,2.8,2.8,2.8c1.5,0,2.8-1.2,2.8-2.8C11,15.9,9.7,14.7,8.2,14.7z M8.2,18.4
			c-0.5,0-0.9-0.4-0.9-0.9c0-0.5,0.4-0.9,0.9-0.9c0.5,0,0.9,0.4,0.9,0.9C9.1,18,8.7,18.4,8.2,18.4z"/>
	</g>
</g>
</svg>
