<?xml version="1.0" encoding="utf-8"?>
<!-- Generator: Adobe Illustrator 24.1.2, SVG Export Plug-In . SVG Version: 6.00 Build 0)  -->
<svg version="1.1" id="Слой_1" xmlns="http://www.w3.org/2000/svg" xmlns:xlink="http://www.w3.org/1999/xlink" x="0px" y="0px"
	 viewBox="0 0 22 22" style="enable-background:new 0 0 22 22;" xml:space="preserve">
<style type="text/css">
	.st0{fill:#637A9F;}
</style>
<g>
	<g>
		<path class="st0" d="M15.7,3.9c-0.6,0-1.2,0.2-1.7,0.7c-0.4,0.4-0.7,1-0.7,1.7c0,0.6,0.2,1.2,0.7,1.7c0.4,0.4,1,0.7,1.7,0.7
			c0.6,0,1.2-0.2,1.7-0.7c0.4-0.4,0.7-1,0.7-1.7c0-0.6-0.3-1.2-0.7-1.7C16.9,4.1,16.3,3.9,15.7,3.9z M17.2,5.9L17.2,5.9l-1.3,1.3
			c-0.1,0.1-0.3,0.2-0.5,0.2c-0.2,0-0.4-0.1-0.5-0.2l-0.5-0.5c-0.1-0.1-0.2-0.3-0.2-0.5c0-0.2,0.1-0.4,0.2-0.5
			c0.1-0.1,0.3-0.2,0.5-0.2c0.2,0,0.4,0.1,0.5,0.2l0,0L16.3,5c0.2-0.2,0.4-0.2,0.7-0.2c0.2,0.1,0.4,0.2,0.5,0.5
			C17.5,5.5,17.4,5.8,17.2,5.9z M21.3,4.6c-0.1-0.2-0.3-0.4-0.4-0.5c-0.1-0.2-0.1-0.4-0.1-0.7c0-0.6-0.3-1.1-0.6-1.6
			c-0.4-0.4-1-0.6-1.6-0.6c-0.2,0-0.5-0.1-0.7-0.1c-0.2-0.1-0.4-0.2-0.5-0.4c-0.4-0.4-1-0.7-1.6-0.7c-0.6,0-1.2,0.3-1.6,0.7
			c-0.2,0.1-0.4,0.3-0.5,0.4c-0.2,0.1-0.4,0.1-0.7,0.1c-0.6,0-1.1,0.2-1.6,0.6c-0.4,0.4-0.6,1-0.6,1.6c0,0.2-0.1,0.5-0.1,0.7
			c-0.1,0.2-0.2,0.4-0.4,0.5c-0.4,0.4-0.6,1-0.7,1.6c0,0.6,0.3,1.2,0.7,1.6c0.1,0.2,0.3,0.4,0.4,0.5c0.1,0.2,0.1,0.4,0.1,0.7
			c0,0.6,0.2,1.1,0.6,1.6c0.4,0.4,1,0.6,1.6,0.6c0.2,0,0.5,0.1,0.7,0.1c0.2,0.1,0.4,0.2,0.5,0.4c0.4,0.4,1,0.6,1.6,0.7
			c0.6,0,1.2-0.3,1.6-0.7c0.2-0.1,0.4-0.3,0.5-0.4c0.2-0.1,0.4-0.1,0.7-0.1c0.6,0,1.1-0.2,1.6-0.6c0.4-0.4,0.6-1,0.6-1.6
			c0-0.2,0.1-0.5,0.1-0.7C21,8.2,21.1,8,21.3,7.8c0.4-0.4,0.7-1,0.7-1.6C21.9,5.6,21.7,5.1,21.3,4.6z M18.4,8.9
			c-0.7,0.7-1.7,1.1-2.6,1.1c-1,0-1.9-0.4-2.6-1.1C12.4,8.2,12,7.2,12,6.2c0-1,0.4-1.9,1.1-2.6c0.7-0.7,1.7-1.1,2.6-1.1
			c1,0,1.9,0.4,2.6,1.1c0.7,0.7,1.1,1.7,1.1,2.6C19.4,7.2,19.1,8.2,18.4,8.9z M13.7,18.5h2.1v-1.4h-2.1V18.5z M18.4,12.7
			c0,0-0.1,0.1-0.2,0.2h0c-0.7,0.6-1.5,0.9-2.4,1c-0.9,0-1.7-0.4-2.4-1c-0.1-0.1-0.2-0.1-0.3-0.2c0,0-0.2,0-0.3,0
			c-0.9-0.1-1.7-0.4-2.4-1c-0.6-0.6-1-1.5-1-2.4c0-0.1,0-0.3-0.1-0.4c0,0-0.1-0.1-0.2-0.2v0C8.5,8,8.1,7.1,8.1,6.2
			c0-0.9,0.4-1.7,1-2.4c0.1-0.1,0.1-0.2,0.2-0.3c0,0,0-0.2,0-0.3c0-0.1,0-0.3,0.1-0.5h-8c-0.4,0-0.7,0.1-1,0.4C0.1,3.4,0,3.8,0,4.1
			v16.5c0,0.4,0.1,0.7,0.4,1C0.7,21.8,1,22,1.4,22h16.5c0.4,0,0.7-0.1,1-0.4c0.3-0.3,0.4-0.6,0.4-1v-8c-0.2,0-0.3,0.1-0.5,0.1
			C18.6,12.7,18.4,12.7,18.4,12.7z M4.7,19.6c-0.1,0.2-0.3,0.3-0.6,0.3H2.7c-0.2,0-0.5-0.1-0.6-0.3c-0.1-0.2-0.1-0.5,0-0.7
			c0.1-0.2,0.3-0.3,0.6-0.3h1.4c0.2,0,0.5,0.1,0.6,0.3C4.8,19.1,4.8,19.3,4.7,19.6z M6.1,16.8C6,17,5.7,17.2,5.5,17.2H2.7
			c-0.2,0-0.5-0.1-0.6-0.3c-0.1-0.2-0.1-0.5,0-0.7c0.1-0.2,0.3-0.3,0.6-0.3h2.7c0.2,0,0.5,0.1,0.6,0.3C6.2,16.3,6.2,16.6,6.1,16.8z
			 M17.2,19.2c0,0.2-0.1,0.4-0.2,0.5c-0.1,0.1-0.3,0.2-0.5,0.2H13c-0.2,0-0.4-0.1-0.5-0.2c-0.1-0.1-0.2-0.3-0.2-0.5v-2.7
			c0-0.2,0.1-0.4,0.2-0.5c0.1-0.1,0.3-0.2,0.5-0.2h3.4c0.2,0,0.4,0.1,0.5,0.2c0.1,0.1,0.2,0.3,0.2,0.5V19.2z"/>
	</g>
</g>
</svg>
