<?xml version="1.0" encoding="utf-8"?>
<!-- Generator: Adobe Illustrator 24.1.2, SVG Export Plug-In . SVG Version: 6.00 Build 0)  -->
<svg version="1.1" id="Слой_1" xmlns="http://www.w3.org/2000/svg" xmlns:xlink="http://www.w3.org/1999/xlink" x="0px" y="0px"
	 viewBox="0 0 21.6 19.7" style="enable-background:new 0 0 21.6 19.7;" xml:space="preserve">
<style type="text/css">
	.st0{fill:#637A9F;}
</style>
<g>
	<g>
		<path class="st0" d="M12.6,14.1H9c-1.2,0-2.2-0.8-2.5-1.8H0.7v5.6c0,1,0.8,1.8,1.8,1.8l16.6,0c1,0,1.8-0.8,1.8-1.8v-5.6h-5.7
			C14.8,13.4,13.8,14.1,12.6,14.1z M18,3.6h-1.8V1.8c0-1-0.8-1.8-1.8-1.8H7.2c-1,0-1.8,0.8-1.8,1.8v1.8H3.6C1.6,3.6,0,5.2,0,7.2v3.3
			h8.1v0.9c0,0.5,0.4,0.9,0.9,0.9h3.6c0.5,0,0.9-0.4,0.9-0.9v-0.9h8.1V7.2C21.6,5.2,20,3.6,18,3.6z M14.4,3.6H7.2V1.8h7.2V3.6z"/>
	</g>
</g>
</svg>
