<?xml version="1.0" encoding="utf-8"?>
<!-- Generator: Adobe Illustrator 24.1.2, SVG Export Plug-In . SVG Version: 6.00 Build 0)  -->
<svg version="1.1" id="Слой_1" xmlns="http://www.w3.org/2000/svg" xmlns:xlink="http://www.w3.org/1999/xlink" x="0px" y="0px"
	 viewBox="0 0 23.2 23.4" style="enable-background:new 0 0 23.2 23.4;" xml:space="preserve">
<style type="text/css">
	.st0{fill-rule:evenodd;clip-rule:evenodd;fill:#637A9F;}
</style>
<g>
	<g>
		<path class="st0" d="M14.2,0.3c-0.5-0.1-1-0.2-1.5-0.3h-2.3C10,0.1,9.5,0.2,9.1,0.3c-4.8,1.1-8.3,5-9,10c0,0.1-0.1,0.2-0.1,0.3
			v2.3c0.1,0.4,0.2,0.9,0.3,1.3c1.1,4.9,5,8.5,9.9,9.2c0.1,0,0.2,0.1,0.3,0.1h2.3c0.1,0,0.2-0.1,0.3-0.1c5.5-0.7,9.8-5.4,10.1-10.9
			C23.5,6.7,19.7,1.6,14.2,0.3z M17.4,17.7H5.9c0.3-1.4,0.7-2.7,1-4.1c-0.4,0.2-0.8,0.3-1.3,0.4c0.2-0.8,0.4-1.5,0.6-2.2
			c0.1-0.2,0.4-0.3,0.6-0.4c0.5-0.1,0.8-0.4,0.9-1c0.5-2,1-4,1.5-6c0.1-0.4,0.2-0.5,0.6-0.5c1.3,0,2.7,0,4.1,0
			c-0.5,1.8-0.9,3.5-1.4,5.2c0.5-0.2,0.8-0.3,1.2-0.4c-0.2,0.8-0.4,1.5-0.6,2.2c-0.1,0.2-0.4,0.3-0.6,0.4c-0.5,0.1-0.7,0.4-0.8,0.9
			c-0.1,0.8-0.4,1.5-0.6,2.3h6.9C18,15.7,17.7,16.7,17.4,17.7z"/>
	</g>
</g>
</svg>
