<?xml version="1.0" encoding="utf-8"?>
<!-- Generator: Adobe Illustrator 24.1.2, SVG Export Plug-In . SVG Version: 6.00 Build 0)  -->
<svg version="1.1" id="Слой_1" xmlns="http://www.w3.org/2000/svg" xmlns:xlink="http://www.w3.org/1999/xlink" x="0px" y="0px"
	 viewBox="0 0 22.2 23.9" style="enable-background:new 0 0 22.2 23.9;" xml:space="preserve">
<style type="text/css">
	.st0{fill-rule:evenodd;clip-rule:evenodd;fill:#637A9F;}
</style>
<g>
	<g>
		<path class="st0" d="M19.7,14.5c-0.8-0.5-1.8-0.6-2.8-0.6c-0.8,0-2-0.6-2-1.9c0-1.1,0.8-1.9,2-1.9c0.9,0,2-0.2,2.8-0.6
			c1.6-0.9,2.5-2.6,2.5-4.3c0-1.8-0.9-3.4-2.5-4.3C19,0.2,18,0,17.2,0c-0.8,0-1.8,0.2-2.5,0.6c-1.6,0.9-2.5,2.6-2.5,4.3
			c0,0.9,0.4,1.9,0.8,2.7c0.4,0.7,0.6,2-0.7,2.7c-0.9,0.6-2.1,0.2-2.7-0.7c-0.6-0.7-1.2-1.5-2-2c-1.6-0.9-3.4-0.9-5,0
			C0.9,8.5,0,10.2,0,11.9c0,1.8,0.9,3.4,2.5,4.3c1.6,0.9,3.4,0.9,5,0c0.8-0.5,1.5-1.2,2-2c0.4-0.6,1.4-1.5,2.7-0.7
			c0.9,0.6,1.2,1.8,0.7,2.7c-0.5,0.8-0.7,1.8-0.7,2.7c0,1.8,0.9,3.4,2.5,4.3c1.6,0.9,3.4,0.9,5,0c1.6-0.9,2.5-2.6,2.5-4.3
			C22.2,17.1,21.3,15.4,19.7,14.5z"/>
	</g>
</g>
</svg>
