<?xml version="1.0" encoding="utf-8"?>
<!-- Generator: Adobe Illustrator 24.1.2, SVG Export Plug-In . SVG Version: 6.00 Build 0)  -->
<svg version="1.1" id="Слой_1" xmlns="http://www.w3.org/2000/svg" xmlns:xlink="http://www.w3.org/1999/xlink" x="0px" y="0px"
	 viewBox="0 0 25.3 25.3" style="enable-background:new 0 0 25.3 25.3;" xml:space="preserve">
<style type="text/css">
	.st0{fill-rule:evenodd;clip-rule:evenodd;fill:#637A9F;}
</style>
<g>
	<g>
		<path class="st0" d="M21.6,3.7c-2.4-2.4-5.6-3.7-9-3.7s-6.6,1.3-9,3.7C1.3,6.1,0,9.3,0,12.7c0,3.4,1.3,6.6,3.7,9
			c2.4,2.4,5.6,3.7,9,3.7s6.6-1.3,9-3.7c2.4-2.4,3.7-5.6,3.7-9C25.3,9.3,24,6.1,21.6,3.7z M12.7,22.8c-5.6,0-10.1-4.5-10.1-10.1
			c0-5.6,4.5-10.1,10.1-10.1c5.6,0,10.1,4.5,10.1,10.1C22.8,18.2,18.2,22.8,12.7,22.8z M12.8,6.3H8.3v5.2H6.6V14h1.8v5.2h4.5
			c3.6,0,6.1-2.8,6.1-6.5S16.5,6.3,12.8,6.3z M12.7,16.7h-2V14h2.5v-2.5h-2.5V8.9h2c2.1,0,3.5,1.6,3.5,3.9
			C16.2,15.1,14.8,16.7,12.7,16.7z"/>
	</g>
</g>
</svg>
