<?xml version="1.0" encoding="utf-8"?>
<!-- Generator: Adobe Illustrator 24.1.2, SVG Export Plug-In . SVG Version: 6.00 Build 0)  -->
<svg version="1.1" xmlns="http://www.w3.org/2000/svg" xmlns:xlink="http://www.w3.org/1999/xlink" x="0px" y="0px"
	 viewBox="0 0 140 83" style="enable-background:new 0 0 140 83;" xml:space="preserve">
<style type="text/css">
	.st0{fill-rule:evenodd;clip-rule:evenodd;fill:#637A9F;}
	.st1{fill-rule:evenodd;clip-rule:evenodd;fill:#3B4C68;}
	.st2{fill:#3B4C68;}
</style>
<g id="Слой_4">
</g>
<g id="Слой_5">
</g>
<g id="Слой_6">
	<path class="st0" d="M8,0h124c4.4,0,8,3.6,8,8v67c0,4.4-3.6,8-8,8H8c-4.4,0-8-3.6-8-8V8C0,3.6,3.6,0,8,0z"/>
</g>
<g id="Слой_1">
</g>
<g id="Слой_2">
</g>
<g id="Слой_3">
	<path class="st1" d="M69,75h3v7.8h-3V75z"/>
	<path class="st1" d="M69,60h3v9h-3V60z"/>
	<path class="st1" d="M69,45h3v9h-3V45z"/>
	<path class="st1" d="M69,30h3v9h-3V30z"/>
	<path class="st1" d="M69,15h3v9h-3V15z"/>
	<path class="st1" d="M69,0h3v9h-3V0z"/>
	<path class="st1" d="M88,62h36v3H88V62z"/>
	<path class="st1" d="M88,51h36v3H88V51z"/>
	<path class="st1" d="M88,40h36v3H88V40z"/>
	<path class="st1" d="M88,29h36v3H88V29z"/>
	<path class="st1" d="M88,18h36v3H88V18z"/>
	<path class="st1" d="M23,61h26v3H23V61z"/>
	<path class="st1" d="M18,54h36v3H18V54z"/>
	<path class="st2" d="M43,38.1c0,0-3.4-0.7-3.4-3.8c0-2.7,1.4-3.7,1.9-4.4c0,0,1.1-0.8,0.4-3.6c1.2-1.5,1.5-4.2,0.1-7
		c-0.8-1.8-1.6-2.7-2.7-3.3c-0.8-0.4-1.8-0.6-2.7-0.6c-1.7,0-3.3,0.5-4,0.9c-1.9,0.7-3.2,1.4-4.4,4c-1,2.1,0.2,4.6,0.8,5.8
		C28.3,29,29.4,30,29.4,30c0.5,0.7,1.9,1.6,1.9,4.4c0,3.1-3.4,3.8-3.4,3.8c-2.2,0.7-6.7,2.1-6.7,6.6c0,0,0,0.7,0.8,0.7
		c0.4,0,26.4,0,26.8,0c0.8,0,0.8-0.7,0.8-0.7C49.7,40.2,45.2,38.8,43,38.1z"/>
</g>
</svg>
