<?xml version="1.0" encoding="utf-8"?>
<!-- Generator: Adobe Illustrator 24.1.2, SVG Export Plug-In . SVG Version: 6.00 Build 0)  -->
<svg version="1.1" id="Слой_1" xmlns="http://www.w3.org/2000/svg" xmlns:xlink="http://www.w3.org/1999/xlink" x="0px" y="0px"
	 viewBox="0 0 40.8 40.8" style="enable-background:new 0 0 40.8 40.8;" xml:space="preserve">
<style type="text/css">
	.st0{fill:url(#SVGID_1_);}
</style>
<g>
	<g>
		<linearGradient id="SVGID_1_" gradientUnits="userSpaceOnUse" x1="6.6904" y1="6.6904" x2="34.1221" y2="34.1221">
			<stop  offset="0" style="stop-color:#FF7E47"/>
			<stop  offset="1" style="stop-color:#BD572B"/>
		</linearGradient>
		<path class="st0" d="M20.4,40.8C9.2,40.8,0,31.7,0,20.4S9.2,0,20.4,0s20.4,9.2,20.4,20.4S31.7,40.8,20.4,40.8z M20.4,2
			C10.3,2,2,10.3,2,20.4s8.3,18.4,18.4,18.4s18.4-8.3,18.4-18.4S30.6,2,20.4,2z M20.5,31.2c-1.1,0-2.1-0.4-2.9-1.2
			c-0.8-0.8-1.2-1.8-1.2-3c0-1.1,0.4-2.1,1.2-2.9c0.2-0.2,0.3-0.3,0.5-0.4h-1v-1c0-1.6,0.8-3,1.6-3.9l-6.1-3.5l0.3-0.8
			c1.4-3.3,4.3-5.2,8-5.2c2.1,0,3.8,0.6,5.2,1.7c1.4,1.1,2.2,2.7,2.2,4.7c0,1.6-0.7,3.3-1.8,4.4l0,0c-0.3,0.3-0.7,0.7-1.1,1
			c-0.6,0.5-1.4,1.3-1.4,1.6v1h-1c0.2,0.1,0.4,0.3,0.5,0.5c0.8,0.8,1.2,1.7,1.2,2.9c0,1.1-0.4,2.1-1.2,2.9l0,0
			C22.6,30.8,21.6,31.2,20.5,31.2z M20.5,25c-0.6,0-1.1,0.2-1.5,0.6c-0.4,0.4-0.6,0.9-0.6,1.5c0,0.6,0.2,1.1,0.6,1.5
			c0.4,0.4,0.9,0.6,1.5,0.6c0.6,0,1.1-0.2,1.5-0.6c0.4-0.4,0.6-0.9,0.6-1.5S22.4,26,22,25.6C21.6,25.2,21.1,25,20.5,25z M19.2,21.8
			h3c0.4-0.8,1.1-1.4,1.9-2.1c0.3-0.3,0.7-0.6,1-0.9c0.8-0.8,1.2-1.9,1.2-3.1c0-1.3-0.5-2.3-1.4-3.1c-1-0.8-2.3-1.3-3.9-1.3
			c-2.5,0-4.6,1.1-5.7,3.2l2.9,1.6c0.7-1.1,1.6-1.6,2.6-1.6c1.2,0,2.1,0.8,2.1,2c0,1-0.7,2-2.3,3.2C20,20.2,19.5,20.9,19.2,21.8z
			 M20.6,16.6c-0.5,0-0.9,0.5-1.3,1.4l-0.1,0.3c0,0,0,0,0.1,0c1.3-1,1.5-1.5,1.5-1.7C20.7,16.6,20.7,16.6,20.6,16.6z"/>
	</g>
</g>
</svg>
