<?xml version="1.0" encoding="utf-8"?>
<!-- Generator: Adobe Illustrator 24.1.2, SVG Export Plug-In . SVG Version: 6.00 Build 0)  -->
<svg version="1.1" xmlns="http://www.w3.org/2000/svg" xmlns:xlink="http://www.w3.org/1999/xlink" x="0px" y="0px"
	 viewBox="0 0 167.4 120" style="enable-background:new 0 0 167.4 120;" xml:space="preserve">
<style type="text/css">
	.st0{fill-rule:evenodd;clip-rule:evenodd;fill:#637A9F;}
	.st1{fill-rule:evenodd;clip-rule:evenodd;fill:#3B4C68;}
</style>
<g id="Слой_4">
	<path class="st0" d="M56.6,120c0,0,2-4.9,3-4.7c1,0.1-0.5,1.4,0.9,0.9c1.4-0.4,41.1-18.3,41.9-19.3c0.8-1,8.9-10.9,9-11.6
		c0.1-0.7-0.1-4.1-0.7-5.1c-0.6-1-3.9-6.6-3.9-14.6c-3.1-1.9-4.1-4.5-4.6-13c1.3-3.4,0.6-1.6,0.5-2.6c-0.2-0.9-1.1-3.1-0.9-3.3
		c0.2-0.2,0.9-0.9,0.7-2.3c-0.2-1.4-2.3-3.6-2.3-5.6c0-1,0.5-6,0.2-7.7c-0.2-1.6-1.3-2.5-1.4-4.2c-0.1-1.7-0.8-4.4-0.2-4.9
		c0.5-0.5,0.2-2.1,0.7-2.8c0.5-0.6,5.2-3.3,5.5-3.9c-0.5-0.6-2.3-0.9-2.3-0.9s2.3-0.4,3-0.5c0.7-0.1,5.5-1.7,5.8-3.5
		c0.3-1.8-0.5-3.7-0.5-3.7l1.8,2.8c0,0,1,0.8,1.2,0.2c0.2-0.5,1.7-7.3,3-7.7c1.3-0.3,0.5,4.2,0.5,4.2l1.4-0.7c0,0,3.2-3.8,4.4-4.6
		c1.1-0.9,0.5,1.1,1.2,1.4c0.7,0.3,4.5,1.7,7.8,0c1.5-2.4,2.3-4.3,2.3,0.7c1.2,0.5,0.5,0.7,1.6,0.5c1.1-0.2-0.3-2,0.5-0.9
		c0.6,0.7,0.5,0.9,0.9,1.2c0.4,0.3,2-0.3,2.3,0c0.3,0.3-0.2,1.2-0.2,1.2l1.8,1.4l2.1-3.9l-0.5,2.8l2.8-1.9l-1.4,2.8l3.2-2.1
		l-2.8,3.7l1.4,0.2l1.8-1.4v1.6l1.4-1.6l0.9,4.4l1.2,0.9l2.8-0.9l-0.2,1.4l4.4,0.7l-2.8,1.4l4.1,0.5l-2.1,0.5l1.6,2.1h-1.2l0.9,1.4
		l-1.8,0.2c0,0,3.7,2.9,3.7,4.6c0,1.7-0.7,6.4-0.7,7.4c0,1.1,0-0.7,0-0.7s0.2,1.2,0.2,1.9c0,0.7-0.6,0.4-0.7,0.9
		c-0.1,0.5,0.7,4.3,0.5,5.1c-0.3,0.8-1.5,1.7-1.6,2.3c-0.1,0.6,0.7,2.7,0.5,3.5c-0.3,0.8-1.1,0.5-1.2,1.2c0,0.6,1.1,0.3,1.6,2.1
		c0.5,1.8,0.6,4.2,0.2,4.9c-0.3,0.7-1.1,2.7-1.2,3.5c-0.1,0.8,0,4.1-0.5,5.8c-0.5,1.7-1.8,4.3-2.8,5.1c-0.9,0.8-1.5,0.3-2.8,0.2
		c-0.2,1.8-1.5,10-4.1,13c-0.1,1.6-0.1,1.9,0.5,2.3c0.6,0.4,3.8,1.7,4.6,4.9c1.8,1.4,7.5,6.2,8.5,7.2c0.4,0.4,5.3,2.9,5.3,2.9V120
		H56.6z"/>
	<path class="st0" d="M8,40.6h77.4c4.4,0,8,3.6,8,8V88c0,4.4-3.6,8-8,8H8c-4.4,0-8-3.6-8-8V48.6C0,44.2,3.6,40.6,8,40.6z"/>
</g>
<g id="Слой_5">
</g>
<g id="Слой_6">
</g>
<g id="Слой_1">
	<g>
		<g>
			<path class="st1" d="M46.1,95.9h2v-5.3h-2V95.9z M46.1,86.6h2v-6h-2V86.6z M46.1,76.6h2v-6h-2V76.6z M46.1,66.6h2v-6h-2V66.6z
				 M46.1,56.6h2v-6h-2V56.6z M46.1,46.6h2v-6h-2V46.6z M58.7,84h24v-2h-24V84z M58.7,76.6h24v-2h-24V76.6z M58.7,69.3h24v-2h-24
				V69.3z M58.7,61.9h24v-2h-24V61.9z M58.7,52.6v2h24v-2H58.7z M15.3,83.3h17.4v-2H15.3V83.3z M12,78.6h24v-2H12V78.6z M14.7,70.9
				c0.3,0,17.6,0,17.9,0c0.6,0,0.6-0.5,0.6-0.5c0-3-3-3.9-4.4-4.4c0,0-2.3-0.5-2.3-2.5c0-1.8,0.9-2.5,1.3-2.9c0,0,0.7-0.6,0.2-2.4
				c0.8-1,1-2.8,0.1-4.7c-0.6-1.2-1.1-1.8-1.8-2.2c-0.6-0.3-1.2-0.4-1.8-0.4c-1.1,0-2.2,0.4-2.7,0.6c-1.3,0.5-2.1,1-2.9,2.7
				c-0.6,1.4,0.1,3.1,0.5,3.9c-0.5,1.8,0.2,2.5,0.2,2.5c0.4,0.4,1.3,1.1,1.3,2.9c0,2.1-2.3,2.5-2.3,2.5c-1.4,0.5-4.4,1.4-4.4,4.4
				C14.2,70.4,14.2,70.9,14.7,70.9z"/>
		</g>
	</g>
</g>
<g id="Слой_2">
</g>
<g id="Слой_3">
</g>
</svg>
