<?xml version="1.0" encoding="utf-8"?>
<!-- Generator: Adobe Illustrator 24.1.2, SVG Export Plug-In . SVG Version: 6.00 Build 0)  -->
<svg version="1.1" id="Слой_1" xmlns="http://www.w3.org/2000/svg" xmlns:xlink="http://www.w3.org/1999/xlink" x="0px" y="0px"
	 viewBox="0 0 41.3 40.4" style="enable-background:new 0 0 41.3 40.4;" xml:space="preserve">
<style type="text/css">
	.st0{fill:#FFFFFF;}
</style>
<g>
	<g>
		<path class="st0" d="M39.6,30.6L39.6,30.6c-0.4-4.4-3.4-8-7.1-8v0c-3.7,0-6.7,3.5-7.1,8l0,0c-1,0-1.8,0.8-1.8,1.8v3.5
			c0,1,0.8,1.8,1.8,1.8h1.8c1,0,1.8-0.8,1.8-1.8v-3.5c0-1-0.8-1.7-1.7-1.8c0.3-3.5,2.6-6.2,5.3-6.2c2.7,0,5,2.7,5.3,6.2l-0.1,0
			c-0.9,0.1-1.6,0.8-1.6,1.8v3.2l-2.2,3h-2.2v1.8h3.1l2.2-2.9c0.3,0.2,0.6,0.3,0.9,0.3h1.8c1,0,1.8-0.8,1.8-1.8v-3.5
			C41.3,31.4,40.6,30.6,39.6,30.6z M27.1,35.9h-1.8v-3.5h0l0,0.2l1.7-0.2V35.9z M39.6,35.9h-1.8v-3.5h1.8V35.9z M20.2,38.4
			c-10.2,0-18.4-8.2-18.4-18.3C1.8,10,10.1,1.8,20.2,1.8c10.2,0,18.4,8.2,18.4,18.3c0,0.4,0,0.7-0.1,1.1c0.6,0.3,1.2,0.7,1.8,1.1
			c0.1-0.7,0.1-1.4,0.1-2.2C40.4,9,31.4,0,20.2,0C9.1,0,0,9,0,20.1c0,11.1,9.1,20.1,20.2,20.1c0.9,0,1.7-0.1,2.6-0.2
			c-0.4-0.5-0.8-1.1-1.1-1.7C21.2,38.4,20.7,38.4,20.2,38.4z M17.6,22.7c-0.8,0.7-0.4,1.4-0.1,1.7c0.9,0.7,2.6,1.9,3.9,2.7
			c1.3-2.7,3.4-4.8,6.1-6.1c0.1-0.6,0.2-1.1,0.3-1.7c0.4-2.8,0.8-5.3,0.9-6.1c0.2-1.8-1.7-1-1.7-1s-4.1,1.7-5.3,2.2
			c-3.2,1.3-12.3,5-12.3,5c-2.2,0.8-0.9,1.6-0.9,1.6s1.8,0.6,3.4,1.1c1.6,0.5,2.4-0.1,2.4-0.1s3.7-2.4,7.4-5c2.6-1.8,2-0.3,1.4,0.3
			C21.7,18.8,19.5,21,17.6,22.7z"/>
	</g>
</g>
</svg>
