<?xml version="1.0" encoding="utf-8"?>
<!-- Generator: Adobe Illustrator 24.1.2, SVG Export Plug-In . SVG Version: 6.00 Build 0)  -->
<svg version="1.1" id="Слой_1" xmlns="http://www.w3.org/2000/svg" xmlns:xlink="http://www.w3.org/1999/xlink" x="0px" y="0px"
	 viewBox="0 0 40 40" style="enable-background:new 0 0 40 40;" xml:space="preserve">
<style type="text/css">
	.st0{fill:#808080;}
</style>
<g>
	<g>
		<path class="st0" d="M20,0C9,0,0,9,0,20c0,11,9,20,20,20s20-9,20-20C40,9,31,0,20,0z M20,38.2C10,38.2,1.8,30,1.8,20
			C1.8,10,10,1.8,20,1.8C30,1.8,38.2,10,38.2,20C38.2,30,30,38.2,20,38.2z M20,14.5c-3.1,0-5.6,2.5-5.6,5.6c0,3.1,2.5,5.6,5.6,5.6
			c3.1,0,5.6-2.5,5.6-5.6C25.7,17,23.1,14.5,20,14.5z M20,23.8c-2,0-3.6-1.6-3.6-3.6c0-2,1.6-3.6,3.6-3.6c2,0,3.6,1.6,3.6,3.6
			C23.7,22.1,22.1,23.8,20,23.8z M25.9,13c-0.7,0-1.3,0.6-1.3,1.3c0,0.7,0.6,1.3,1.3,1.3c0.7,0,1.3-0.6,1.3-1.3
			C27.2,13.6,26.6,13,25.9,13z M30.4,13c-0.3-0.7-0.7-1.3-1.3-1.9c-0.6-0.6-1.2-1-1.9-1.3c-0.7-0.3-1.5-0.5-2.6-0.5
			C23.4,9.2,23,9.2,20,9.2c-3,0-3.3,0-4.5,0.1c-1.2,0.1-2,0.2-2.6,0.5c-0.7,0.3-1.3,0.7-1.9,1.3c-0.6,0.6-1,1.2-1.3,1.9
			c-0.3,0.7-0.5,1.5-0.5,2.6c-0.1,1.2-0.1,1.5-0.1,4.5c0,3,0,3.3,0.1,4.5c0.1,1.2,0.2,2,0.5,2.6c0.3,0.7,0.7,1.3,1.3,1.9
			c0.6,0.6,1.2,1,1.9,1.3c0.7,0.3,1.5,0.5,2.6,0.5C16.7,31,17.1,31,20,31c3,0,3.3,0,4.5-0.1c1.2-0.1,2-0.2,2.6-0.5
			c0.7-0.3,1.3-0.7,1.9-1.3c0.6-0.6,1-1.2,1.3-1.9c0.3-0.7,0.5-1.5,0.5-2.6c0.1-1.2,0.1-1.5,0.1-4.5c0-3,0-3.3-0.1-4.5
			C30.8,14.5,30.7,13.7,30.4,13z M28.9,24.5c0,1.1-0.2,1.6-0.4,2c-0.2,0.5-0.4,0.9-0.8,1.3c-0.4,0.4-0.7,0.6-1.3,0.8
			c-0.4,0.1-1,0.3-2,0.4c-1.1,0.1-1.5,0.1-4.4,0.1s-3.3,0-4.4-0.1c-1.1,0-1.6-0.2-2-0.4c-0.5-0.2-0.9-0.4-1.3-0.8
			c-0.4-0.4-0.6-0.7-0.8-1.3c-0.1-0.4-0.3-1-0.4-2c-0.1-1.2-0.1-1.5-0.1-4.4c0-2.9,0-3.3,0.1-4.4c0-1.1,0.2-1.6,0.4-2
			c0.2-0.5,0.4-0.9,0.8-1.3s0.7-0.6,1.3-0.8c0.4-0.1,1-0.3,2-0.4c1.2-0.1,1.5-0.1,4.4-0.1c2.9,0,3.3,0,4.4,0.1c1.1,0,1.6,0.2,2,0.4
			c0.5,0.2,0.9,0.4,1.3,0.8c0.4,0.4,0.6,0.7,0.8,1.3c0.1,0.4,0.3,1,0.4,2c0.1,1.2,0.1,1.5,0.1,4.4C29,23,29,23.4,28.9,24.5z"/>
	</g>
</g>
</svg>
