<?xml version="1.0" encoding="utf-8"?>
<!-- Generator: Adobe Illustrator 24.1.2, SVG Export Plug-In . SVG Version: 6.00 Build 0)  -->
<svg version="1.1" id="Слой_1" xmlns="http://www.w3.org/2000/svg" xmlns:xlink="http://www.w3.org/1999/xlink" x="0px" y="0px"
	 viewBox="0 0 40 40" style="enable-background:new 0 0 40 40;" xml:space="preserve">
<style type="text/css">
	.st0{fill:#808080;}
</style>
<g>
	<g>
		<path class="st0" d="M20,0C9,0,0,9,0,20c0,11,9,20,20,20c11,0,20-9,20-20C40,9,31,0,20,0z M20,38.2C10,38.2,1.8,30,1.8,20
			C1.8,10,10,1.8,20,1.8S38.2,10,38.2,20C38.2,30,30,38.2,20,38.2z M26.6,12.2c0,0-4.1,1.7-5.3,2.2c-3.1,1.3-12.1,5-12.1,5
			C7.1,20.2,8.3,21,8.3,21s1.8,0.6,3.4,1.1c1.6,0.5,2.4-0.1,2.4-0.1s3.6-2.4,7.3-4.9c2.6-1.8,2-0.3,1.4,0.3
			c-1.4,1.4-3.6,3.5-5.5,5.2c-0.8,0.7-0.4,1.4-0.1,1.7c1.4,1.1,5.1,3.5,5.3,3.6c0.3,0.2,1.7,1.1,2.6,0.9c0.9-0.2,1-1.4,1-1.4
			s0.7-4.3,1.3-8.2c0.4-2.8,0.8-5.3,0.9-6C28.5,11.4,26.6,12.2,26.6,12.2z"/>
	</g>
</g>
</svg>
