<?xml version="1.0" encoding="utf-8"?>
<!-- Generator: Adobe Illustrator 24.1.2, SVG Export Plug-In . SVG Version: 6.00 Build 0)  -->
<svg version="1.1" id="Слой_1" xmlns="http://www.w3.org/2000/svg" xmlns:xlink="http://www.w3.org/1999/xlink" x="0px" y="0px"
	 viewBox="0 0 40 40" style="enable-background:new 0 0 40 40;" xml:space="preserve">
<style type="text/css">
	.st0{fill:#808080;}
</style>
<g>
	<g>
		<path class="st0" d="M20,0C9,0,0,9,0,20c0,11,9,20,20,20s20-9,20-20C40,9,31,0,20,0z M20,38.2C10,38.2,1.8,30,1.8,20
			C1.8,10,10,1.8,20,1.8C30,1.8,38.2,10,38.2,20C38.2,30,30,38.2,20,38.2z M21.8,15.7c0-0.7,0.1-1.1,1.2-1.1h1.5v-2.7h-2.4
			c-2.9,0-3.9,1.4-3.9,3.7v1.8h-1.8V20h1.8v8.2h3.6V20h2.4l0.3-2.7h-2.7L21.8,15.7z"/>
	</g>
</g>
</svg>
