<?xml version="1.0" encoding="utf-8"?>
<!-- Generator: Adobe Illustrator 24.1.2, SVG Export Plug-In . SVG Version: 6.00 Build 0)  -->
<svg version="1.1" id="Слой_1" xmlns="http://www.w3.org/2000/svg" xmlns:xlink="http://www.w3.org/1999/xlink" x="0px" y="0px"
	 viewBox="0 0 27.2 21.5" style="enable-background:new 0 0 27.2 21.5;" xml:space="preserve">
<style type="text/css">
	.st0{fill:#FFFFFF;}
</style>
<g>
	<g>
		<path class="st0" d="M8.6,0.4L1.8,4.1C0.7,4.7,0,5.8,0,7.1v7.3c0,1.2,0.7,2.4,1.8,3l6.8,3.7c0.5,0.3,1.1,0.4,1.6,0.4
			c1.9,0,3.4-1.5,3.4-3.4V3.4c0-0.6-0.1-1.1-0.4-1.6C12.3,0.1,10.2-0.5,8.6,0.4z M10.2,18.1l-6.8-3.7V7.1l6.8-3.7V18.1z M24.2,3.5
			c-0.7-0.7-1.7-0.7-2.4,0c-0.7,0.7-0.7,1.7,0,2.4c1.3,1.3,2,3,2,4.8c0,1.8-0.7,3.5-2,4.8c-0.7,0.7-0.7,1.7,0,2.4
			c0.7,0.7,1.7,0.7,2.4,0c1.9-1.9,3-4.5,3-7.2C27.2,8,26.1,5.4,24.2,3.5z M18.9,7.1c-0.7-0.7-1.7-0.7-2.4,0c-0.7,0.7-0.7,1.7,0,2.4
			l0.1,0.2c0.2,0.3,0.4,0.7,0.4,1c0,0.5-0.2,0.9-0.5,1.2l-0.1,0.2c-0.5,0.7-0.5,1.6,0.1,2.2c0.7,0.7,1.7,0.7,2.4,0
			c1-1,1.5-2.2,1.5-3.6C20.4,9.4,19.9,8.1,18.9,7.1L18.9,7.1z"/>
	</g>
</g>
</svg>
