<?xml version="1.0" encoding="utf-8"?>
<!-- Generator: Adobe Illustrator 24.1.2, SVG Export Plug-In . SVG Version: 6.00 Build 0)  -->
<svg version="1.1" id="Слой_1" xmlns="http://www.w3.org/2000/svg" xmlns:xlink="http://www.w3.org/1999/xlink" x="0px" y="0px"
	 viewBox="0 0 21.2 21.7" style="enable-background:new 0 0 21.2 21.7;" xml:space="preserve">
<style type="text/css">
	.st0{fill:#FFFFFF;}
</style>
<g>
	<g>
		<path class="st0" d="M13.3,3.2l0,4l3.2,3.2l0-7.1l0-0.3c0-0.4-0.2-0.8-0.4-1.2l0,0c-0.8-1.5-2.8-2.1-4.3-1.3L8.4,2.2l2.3,2.3
			L13.3,3.2z M20.7,19l-4.2-4.2l-5-5L2.7,1.1L2.6,0.9C1.9,0.4,1,0.5,0.5,1.1c-0.6,0.6-0.6,1.6,0,2.2l3.3,3.3v6.9l0,0.3
			c0.1,1.1,0.7,2,1.7,2.5l6.4,3.4l0.3,0.1c0.4,0.2,0.8,0.2,1.2,0.2c1.1,0,2-0.5,2.6-1.4l2.5,2.5l0.1,0.1c0.6,0.5,1.5,0.4,2.1-0.1
			C21.3,20.7,21.3,19.6,20.7,19z M6.9,13.5l0-3.7l6.4,6.4l0,0.8L6.9,13.5z"/>
	</g>
</g>
</svg>
