<?xml version="1.0" encoding="utf-8"?>
<!-- Generator: Adobe Illustrator 24.1.2, SVG Export Plug-In . SVG Version: 6.00 Build 0)  -->
<svg version="1.1" id="Слой_1" xmlns="http://www.w3.org/2000/svg" xmlns:xlink="http://www.w3.org/1999/xlink" x="0px" y="0px"
	 viewBox="0 0 105.2 29.6" style="enable-background:new 0 0 105.2 29.6;" xml:space="preserve">
<style type="text/css">
	.st0{fill:#637A9F;}
</style>
<g>
	<g>
		<path class="st0" d="M43.8,25.8c-0.9,0-1.5-0.5-1.5-1.7v-5.1h3.3v-2.5h-3.2v-3.3l-2.9,0.3v3h-2.2v2.5h2.2v5.1
			c0,2.9,1.7,4.4,4.2,4.3c0.9,0,1.6-0.2,2.4-0.5l-0.8-2.5C44.8,25.7,44.3,25.8,43.8,25.8z M53,16c-3.8,0-6.3,2.6-6.3,6.2
			c0,3.8,2.4,6.3,6.5,6.3c1.8,0,3.8-0.6,5.1-1.9l-1.9-1.8c-0.7,0.7-2.1,1.1-3.2,1.1c-2.1,0-3.3-1-3.5-2.5H59
			C59.4,18.5,56.9,16,53,16z M49.8,20.9c0.4-1.5,1.7-2.3,3.3-2.3c1.7,0,2.9,0.8,3.1,2.3H49.8z M75.6,16.2c-1.3,0-2.6,0.4-3.7,1.8
			v-6.5l-2.9,0v16.7h2.9v-6c0-1.8,1.2-3.2,2.9-3.2c1.6,0,2.7,0.9,2.7,3.1v6.2h2.9v-6.2C80.4,18.5,79,16.2,75.6,16.2z M65.7,25.7
			c-0.9,0-1.5-0.5-1.5-1.7v-5.1h3.3v-2.5h-3.2v-3.3l-2.9,0.3v3h-2.2v2.5h2.2V24c0,2.9,1.7,4.4,4.2,4.3c0.9,0,1.6-0.2,2.4-0.5
			l-0.8-2.5C66.7,25.5,66.2,25.7,65.7,25.7z M88,16c-3.8,0-6.3,2.6-6.3,6.2c0,3.8,2.4,6.3,6.5,6.3c1.8,0,3.8-0.6,5.1-1.9l-1.9-1.8
			c-0.7,0.7-2.1,1.1-3.2,1.1c-2.1,0-3.3-1-3.5-2.5H94C94.4,18.5,92,16,88,16z M84.8,20.9c0.4-1.5,1.7-2.3,3.3-2.3
			c1.7,0,2.9,0.8,3.1,2.3H84.8z M98.5,17.8l-0.2-1.4l-2.7,0v11.8h2.9v-6.2c0-2.2,1.4-3,2.9-3c1,0,1.5,0.3,2.1,0.8l1.3-2.5
			c-0.6-0.6-1.8-1.1-3-1.1C100.6,16.1,99.4,16.3,98.5,17.8z M17.8,11.6V14C17.7,14,17.1,14,16,14c-0.9,0-1.6,0-1.8-0.1v-2.4
			C10.7,11.7,8,12.3,8,13.1c0,0.7,2.7,1.4,6.2,1.5v0c0.2,0,0.9,0,1.8,0c1.2,0,1.7,0,1.8,0v0c3.6-0.2,6.2-0.8,6.2-1.5
			C24,12.3,21.4,11.7,17.8,11.6z M21.3,22.9l4.8,6.7l4.8-6.7l-4.8,2.8L21.3,22.9z M30.9,22l-4.8-7.9L21.3,22l4.8,2.8L30.9,22z
			 M6.1,0.4L0,13l15.9,15.4l4.3-4.2l-1-1.3l0-0.1l6.8-11.4l2.6,4.3l2.8-2.7L25.7,0.4H6.1z M17.8,15.2v6.9h-3.6v-6.9
			c-4-0.2-7.1-1-7.1-1.9c0-1,3-1.8,7.1-1.9V9.1h-5V5.8h13.5v3.3h-5v2.2l0,0c4,0.2,7.1,1,7.1,1.9C24.9,14.2,21.8,15,17.8,15.2z
			 M71.7,7.5h-5V5.1h4.4V3.8h-4.4V1.5h4.9V0.1h-6.4v8.7h6.5V7.5z M80.3,2.9c0-1.7-1.2-2.8-3.2-2.8h-3.9v8.7h1.5v-3h1.9l2.2,3h1.8
			l-2.3-3.3C79.5,5.2,80.3,4.3,80.3,2.9z M74.7,4.5V1.5H77c1.1,0,1.8,0.5,1.8,1.4c0,0.9-0.7,1.5-1.8,1.5H74.7z M85.9,9
			c1.6,0,2.6-0.6,3.5-1.5l-1-1C87.7,7.2,87,7.6,86,7.6c-1.7,0-2.9-1.4-2.9-3.1c0-1.7,1.2-3.1,2.9-3.1c1,0,1.7,0.4,2.4,1.1l1-1.1
			C88.5,0.6,87.6,0,86,0c-2.6,0-4.5,2-4.5,4.5C81.5,7,83.4,9,85.9,9z M96.5,7.5h-4.1L94.2,6c1.5-1.3,2.3-2,2.3-3.4
			c0-1.6-1.2-2.6-2.9-2.6c-1.6,0-2.4,0.7-3.2,1.8l1.1,0.8c0.7-0.9,1.2-1.3,2-1.3c0.8,0,1.4,0.5,1.4,1.4c0,0.8-0.4,1.3-1.6,2.3
			l-3,2.5v1.2h6.3V7.5z M101.4,9c2.3,0,3.8-2,3.8-4.5c0-2.5-1.5-4.5-3.8-4.5c-2.3,0-3.8,2-3.8,4.5C97.6,7,99.1,9,101.4,9z
			 M101.4,1.4c1.3,0,2.2,1.4,2.2,3.1c0,1.7-0.8,3.1-2.2,3.1c-1.4,0-2.2-1.4-2.2-3.1C99.2,2.7,100.1,1.4,101.4,1.4z"/>
	</g>
</g>
</svg>
