<?xml version="1.0" encoding="utf-8"?>
<!-- Generator: Adobe Illustrator 24.1.2, SVG Export Plug-In . SVG Version: 6.00 Build 0)  -->
<svg version="1.1" id="Слой_1" xmlns="http://www.w3.org/2000/svg" xmlns:xlink="http://www.w3.org/1999/xlink" x="0px" y="0px"
	 viewBox="0 0 104 29.5" style="enable-background:new 0 0 104 29.5;" xml:space="preserve">
<style type="text/css">
	.st0{fill:#637A9F;}
</style>
<g>
	<g>
		<path class="st0" d="M15.4,12.3v2.3c-0.1,0-0.6,0.1-1.7,0.1c-0.9,0-1.5,0-1.7-0.1v-2.3C8.6,12.4,6,13,6,13.7
			c0,0.7,2.5,1.3,5.9,1.4v0c0.2,0,0.8,0,1.7,0c1.1,0,1.6,0,1.7,0v0c3.4-0.2,5.9-0.7,5.9-1.4C21.3,13,18.8,12.4,15.4,12.3z
			 M23.6,23.2c-0.1-0.1-0.1-0.1-0.2-0.2c-0.3-0.4-0.6-0.7-0.9-1.1c-0.6-0.7-1.2-1.4-1.8-2.1c0,0.1,0.1,0.2,0.1,0.2
			c0.7,2.1,1.5,4.1,2.2,6.2l0.2,0.7c0,0.1,0.1,0.2,0.1,0.3c0,0,0,0.1,0,0.1c0-0.2,0-0.4,0.1-0.5c0-0.4,0.1-0.9,0.1-1.3l0,0
			c0,0,0-0.3,0.1-0.4c0-0.1,0-0.2,0-0.3v0c0-0.2,0-0.3,0-0.5c0-0.2,0-0.4,0.1-0.7C23.7,23.4,23.6,23.3,23.6,23.2z M24.3,23.5
			C24.3,23.5,24.3,23.6,24.3,23.5c-0.1,0.1-0.2,0.1-0.2,0.1c0,0.2,0,0.4-0.1,0.6l0,0.1c0,0.3-0.1,0.6-0.1,0.9c0,0.2,0,0.4-0.1,0.6
			c0,0.2,0,0.5-0.1,0.7c0,0.3-0.1,0.5-0.1,0.8c0.2-0.3,0.4-0.5,0.5-0.8c0.2-0.2,0.3-0.5,0.5-0.7c0.4-0.6,0.8-1.2,1.2-1.7
			c0.5-0.7,0.9-1.4,1.4-2c-0.5,0.3-1,0.5-1.5,0.8C25.3,23,24.8,23.3,24.3,23.5z M23.5,15c1.5,0,3,0.4,4.2,1.2
			c0.1-0.8,0.2-1.5,0.2-2.3C27.9,6.2,21.6,0,13.9,0S0,6.2,0,13.9c0,7.7,6.2,13.9,13.9,13.9c1.1,0,2.1-0.1,3.1-0.4
			c-0.9-1.3-1.4-2.8-1.4-4.5C15.6,18.5,19.1,15,23.5,15z M15.4,22.4H12v-6.6c-3.8-0.2-6.7-0.9-6.7-1.8c0-0.9,2.9-1.7,6.7-1.8V10H7.3
			V6.8h12.9V10h-4.7V12l0,0c3.8,0.2,6.7,0.9,6.7,1.8c0,0.9-2.9,1.7-6.7,1.8V22.4z M26.6,20.9C26.6,20.9,26.5,21,26.6,20.9
			c-0.1,0.1-0.1,0.1-0.2,0.2l0,0c-0.3,0.3-0.6,0.7-0.9,1c-0.2,0.3-0.5,0.5-0.7,0.8c0.4-0.2,0.8-0.4,1.2-0.6c0.5-0.2,0.9-0.5,1.4-0.7
			c-0.1-0.1-0.2-0.2-0.3-0.2C26.9,21.1,26.8,21,26.6,20.9z M21.3,19.9L21.3,19.9c0.3,0.3,0.6,0.7,0.8,1c0.6,0.7,1.2,1.5,1.9,2.3
			c0.3-0.3,0.6-0.7,1-1c0.4-0.4,0.8-0.9,1.3-1.4c-1.3-0.3-2.5-0.6-3.8-0.9c-0.2-0.1-0.5-0.1-0.7-0.2c-0.3-0.1-0.5-0.1-0.8-0.2
			c0,0.1,0.1,0.1,0.1,0.1C21.2,19.7,21.2,19.8,21.3,19.9z M87.1,16.2c-3.8,0-6.3,2.6-6.3,6.2c0,3.8,2.4,6.3,6.5,6.3
			c1.8,0,3.8-0.6,5.1-1.9l-1.9-1.8c-0.7,0.7-2.1,1.1-3.2,1.1c-2.1,0-3.3-1-3.5-2.5H93C93.5,18.6,91,16.2,87.1,16.2z M83.9,21
			c0.4-1.5,1.7-2.3,3.3-2.3c1.7,0,2.9,0.8,3.1,2.3H83.9z M74.7,16.4c-1.3,0-2.6,0.4-3.7,1.8v-6.5l-2.9,0v16.7H71v-6
			c0-1.8,1.2-3.2,2.9-3.2c1.6,0,2.7,0.9,2.7,3.1v6.2h2.9v-6.2C79.5,18.6,78,16.4,74.7,16.4z M64.8,25.8c-0.9,0-1.5-0.5-1.5-1.7V19
			h3.3v-2.5h-3.2v-3.3l-2.9,0.3v3h-2.2V19h2.2v5.1c0,2.9,1.7,4.4,4.2,4.3c0.9,0,1.6-0.2,2.4-0.5l-0.8-2.5
			C65.7,25.7,65.2,25.8,64.8,25.8z M23.5,16.5c-3.6,0-6.5,2.9-6.5,6.5s2.9,6.5,6.5,6.5c3.6,0,6.5-2.9,6.5-6.5S27.1,16.5,23.5,16.5z
			 M28.1,21.6L28.1,21.6c-0.3,0.4-0.6,0.9-0.9,1.3c-0.2,0.3-0.3,0.5-0.5,0.8c-0.4,0.6-0.8,1.2-1.3,1.8l-1.7,2.5
			c0,0.1-0.1,0.1-0.2,0.1h0c-0.1,0-0.2-0.1-0.2-0.2c-0.5-1.3-0.9-2.6-1.4-3.9c-0.6-1.6-1.2-3.3-1.8-5l0,0V19l0,0c0,0,0-0.1,0.1-0.1
			l0,0c0,0,0.1,0,0.1,0c0.1,0,0.2,0,0.3,0c0,0,0.1,0,0.1,0c0.9,0.2,1.9,0.5,2.8,0.7c1,0.3,2.1,0.5,3.2,0.8l0,0
			c0.1,0,0.1,0.1,0.2,0.1c0,0,0,0,0,0c0.4,0.3,0.8,0.6,1.2,0.8C28.2,21.4,28.2,21.5,28.1,21.6L28.1,21.6z M42.9,25.9
			c-0.9,0-1.5-0.5-1.5-1.7v-5.1h3.3v-2.5h-3.2v-3.3l-2.9,0.3v3h-2.2v2.5h2.2v5.1c0,2.9,1.7,4.4,4.2,4.3c0.9,0,1.6-0.2,2.4-0.5
			l-0.8-2.5C43.9,25.8,43.4,25.9,42.9,25.9z M52.1,16.2c-3.8,0-6.3,2.6-6.3,6.2c0,3.8,2.4,6.3,6.5,6.3c1.8,0,3.8-0.6,5.1-1.9
			l-1.9-1.8c-0.7,0.7-2.1,1.1-3.2,1.1c-2.1,0-3.3-1-3.5-2.5H58C58.5,18.6,56,16.2,52.1,16.2z M48.9,21c0.4-1.5,1.7-2.3,3.3-2.3
			c1.7,0,2.9,0.8,3.1,2.3H48.9z M97.6,17.9l-0.2-1.4l-2.7,0v11.8h2.9v-6.2c0-2.2,1.4-3,2.9-3c1,0,1.5,0.3,2.1,0.8l1.3-2.5
			c-0.6-0.6-1.8-1.1-3-1.1C99.7,16.2,98.5,16.4,97.6,17.9z M70.7,0.3h-7.1v1.4h2.8V9h1.5V1.7h2.8V0.3z M73.5,5.9h1.9l2.2,3h1.8
			L77,5.7c1.2-0.3,2.1-1.2,2.1-2.6c0-1.7-1.2-2.8-3.2-2.8H72V9h1.5V5.9z M73.5,1.7h2.2c1.1,0,1.8,0.5,1.8,1.4c0,0.9-0.7,1.5-1.8,1.5
			h-2.2V1.7z M84.7,9.1c1.6,0,2.6-0.6,3.5-1.5l-1-1c-0.7,0.7-1.4,1.1-2.5,1.1c-1.7,0-2.9-1.4-2.9-3.1c0-1.7,1.2-3.1,2.9-3.1
			c1,0,1.7,0.4,2.4,1.1l1-1.1c-0.8-0.8-1.8-1.4-3.4-1.4c-2.6,0-4.5,2-4.5,4.5C80.3,7.1,82.2,9.1,84.7,9.1z M95.3,7.6h-4.1l1.8-1.5
			c1.5-1.3,2.3-2,2.3-3.4c0-1.6-1.2-2.6-2.9-2.6c-1.6,0-2.4,0.7-3.2,1.8l1.1,0.8c0.7-0.9,1.2-1.3,2-1.3c0.8,0,1.4,0.5,1.4,1.4
			c0,0.8-0.4,1.3-1.6,2.3l-3,2.5V9h6.3V7.6z M100.2,9.1c2.3,0,3.8-2,3.8-4.5c0-2.5-1.5-4.5-3.8-4.5c-2.3,0-3.8,2-3.8,4.5
			C96.4,7.1,97.9,9.1,100.2,9.1z M100.2,1.5c1.3,0,2.2,1.4,2.2,3.1c0,1.7-0.8,3.1-2.2,3.1S98,6.3,98,4.6C98,2.9,98.8,1.5,100.2,1.5z
			"/>
	</g>
</g>
</svg>
