<?xml version="1.0" encoding="utf-8"?>
<!-- Generator: Adobe Illustrator 24.1.2, SVG Export Plug-In . SVG Version: 6.00 Build 0)  -->
<svg version="1.1" id="Слой_1" xmlns="http://www.w3.org/2000/svg" xmlns:xlink="http://www.w3.org/1999/xlink" x="0px" y="0px"
	 viewBox="0 0 40 40" style="enable-background:new 0 0 40 40;" xml:space="preserve">
<style type="text/css">
	.st0{fill:#FFFFFF;}
</style>
<g>
	<g>
		<path class="st0" d="M20,0C9,0,0,9,0,20c0,11,9,20,20,20c11,0,20-9,20-20C40,9,31,0,20,0z M20,38.2C10,38.2,1.8,30,1.8,20
			C1.8,10,10,1.8,20,1.8S38.2,10,38.2,20C38.2,30,30,38.2,20,38.2z M18.5,9.3v10.2L14,24.4c-1,1.1,1.7,2.7,2.7,1.6l4.8-5.2
			c0.2-0.2,0.4-0.5,0.4-0.9V9.3C21.9,7.7,18.5,7.7,18.5,9.3z"/>
	</g>
</g>
</svg>
