<?xml version="1.0" encoding="utf-8"?>
<!-- Generator: Adobe Illustrator 24.1.2, SVG Export Plug-In . SVG Version: 6.00 Build 0)  -->
<svg version="1.1" id="Слой_1" xmlns="http://www.w3.org/2000/svg" xmlns:xlink="http://www.w3.org/1999/xlink" x="0px" y="0px"
	 viewBox="0 0 78 72.7" style="enable-background:new 0 0 78 72.7;" xml:space="preserve">
<style type="text/css">
	.st0{fill:#A2C5FF;}
</style>
<g>
	<g>
		<path class="st0" d="M73.1,18.2c-4.8-8.3-12.7-14.4-22-16.8c-0.3,0-0.5-0.1-0.8-0.2C40-1.5,29,0.4,20.3,6.6
			c-1.5,1-1.8,3.1-0.8,4.6c1,1.5,3.1,1.8,4.6,0.8c7.1-5,16.1-6.7,24.6-4.4c0.3,0,0.5,0.1,0.8,0.2C65.2,11.9,74.6,28.1,70.5,44
			c-4.2,15.8-20.3,25.3-36.1,21.1c-15.2-4-24.6-19.2-21.4-34.7l0.9,1.5c0.9,1.6,2.9,2.1,4.5,1.2c1.6-0.9,2.1-2.9,1.2-4.5l-4.8-8.5
			c-0.9-1.6-2.9-2.1-4.5-1.2c0,0,0,0,0,0l-8.5,4.9c-1.6,0.9-2.1,2.9-1.2,4.5c0.9,1.6,2.9,2.1,4.5,1.2l1.7-0.9
			C2.2,48.1,14.5,67.4,34,71.8c19.5,4.4,38.8-7.9,43.1-27.5C79.1,35.4,77.7,26.1,73.1,18.2z M42,15.8c-1.8,0-3.3,1.5-3.3,3.3v17.3
			c0,0.2,0,0.4,0.1,0.6c0,0.1,0.1,0.2,0.1,0.3c0,0.2,0.1,0.5,0.3,0.6c0,0.1,0.1,0.2,0.1,0.3c0.1,0.2,0.3,0.3,0.4,0.5l8,8
			c1.3,1.3,3.4,1.3,4.6,0c1.3-1.3,1.3-3.4,0-4.7l-7-7v-16C45.3,17.3,43.8,15.8,42,15.8z"/>
	</g>
</g>
</svg>
