<?xml version="1.0" encoding="utf-8"?>
<!-- Generator: Adobe Illustrator 24.1.2, SVG Export Plug-In . SVG Version: 6.00 Build 0)  -->
<svg version="1.1" id="Слой_1" xmlns="http://www.w3.org/2000/svg" xmlns:xlink="http://www.w3.org/1999/xlink" x="0px" y="0px"
	 viewBox="0 0 39.9 38.2" style="enable-background:new 0 0 39.9 38.2;" xml:space="preserve">
<style type="text/css">
	.st0{fill:#2B3A4D;}
</style>
<g>
	<g>
		<path class="st0" d="M38.7,18.2c2.2-2.2,1-6-2.1-6.4l-7.2-1c-1.2-0.2-2.3-1-2.9-2.1l-3.2-6.5c-1.4-2.8-5.4-2.8-6.8,0l-3.2,6.5
			c-0.6,1.1-1.6,1.9-2.9,2.1l-7.2,1c-3.1,0.5-4.3,4.3-2.1,6.4l5.2,5.1c0.9,0.9,1.3,2.1,1.1,3.3l-1.2,7.2c-0.5,3.1,2.7,5.4,5.5,4
			l6.5-3.4c1.1-0.6,2.4-0.6,3.5,0l6.5,3.4c2.8,1.5,6-0.9,5.5-4l-1.2-7.2c-0.2-1.2,0.2-2.5,1.1-3.3L38.7,18.2z"/>
	</g>
</g>
</svg>
