<?xml version="1.0" encoding="utf-8"?>
<!-- Generator: Adobe Illustrator 24.1.2, SVG Export Plug-In . SVG Version: 6.00 Build 0)  -->
<svg version="1.1" id="Слой_1" xmlns="http://www.w3.org/2000/svg" xmlns:xlink="http://www.w3.org/1999/xlink" x="0px" y="0px"
	 viewBox="0 0 39.2 32.1" style="enable-background:new 0 0 39.2 32.1;" xml:space="preserve">
<style type="text/css">
	.st0{fill:#2B3A4D;}
</style>
<g>
	<g>
		<path class="st0" d="M3.6,25c-2,0-3.6,1.6-3.6,3.6c0,2,1.6,3.6,3.6,3.6c2,0,3.6-1.6,3.6-3.6C7.1,26.6,5.5,25,3.6,25z M14.3,7.1
			h21.4c2,0,3.6-1.6,3.6-3.6c0-2-1.6-3.6-3.6-3.6H14.3c-2,0-3.6,1.6-3.6,3.6C10.7,5.5,12.3,7.1,14.3,7.1z M3.6,12.5
			c-2,0-3.6,1.6-3.6,3.6c0,2,1.6,3.6,3.6,3.6c2,0,3.6-1.6,3.6-3.6C7.1,14.1,5.5,12.5,3.6,12.5z M35.7,12.5H14.3
			c-2,0-3.6,1.6-3.6,3.6c0,2,1.6,3.6,3.6,3.6h21.4c2,0,3.6-1.6,3.6-3.6C39.2,14.1,37.6,12.5,35.7,12.5z M35.7,25H14.3
			c-2,0-3.6,1.6-3.6,3.6c0,2,1.6,3.6,3.6,3.6h21.4c2,0,3.6-1.6,3.6-3.6C39.2,26.6,37.6,25,35.7,25z M3.6,0C1.6,0,0,1.6,0,3.6
			c0,2,1.6,3.6,3.6,3.6c2,0,3.6-1.6,3.6-3.6C7.1,1.6,5.5,0,3.6,0z"/>
	</g>
</g>
</svg>
