<?xml version="1.0" encoding="utf-8"?>
<!-- Generator: Adobe Illustrator 24.1.2, SVG Export Plug-In . SVG Version: 6.00 Build 0)  -->
<svg version="1.1" id="Слой_1" xmlns="http://www.w3.org/2000/svg" xmlns:xlink="http://www.w3.org/1999/xlink" x="0px" y="0px"
	 viewBox="0 0 37.8 39.3" style="enable-background:new 0 0 37.8 39.3;" xml:space="preserve">
<style type="text/css">
	.st0{fill:#2B3A4D;}
</style>
<g>
	<g>
		<path class="st0" d="M36.9,16.7l-15-15.4c-1.7-1.7-4.4-1.7-6,0L0.9,16.7C0.3,17.3,0,18.1,0,18.9v17.2c0,1.8,1.4,3.2,3.2,3.2H10
			c1.8,0,3.2-1.4,3.2-3.2v-6.5c0-3.3,2.5-6,5.7-6c3,0,5.7,2.7,5.7,6v6.5c0,1.8,1.4,3.2,3.2,3.2h6.9c1.8,0,3.2-1.4,3.2-3.2V18.9
			C37.8,18.1,37.5,17.3,36.9,16.7z"/>
	</g>
</g>
</svg>
