<?xml version="1.0" encoding="utf-8"?>
<!-- Generator: Adobe Illustrator 24.1.2, SVG Export Plug-In . SVG Version: 6.00 Build 0)  -->
<svg version="1.1" id="Слой_1" xmlns="http://www.w3.org/2000/svg" xmlns:xlink="http://www.w3.org/1999/xlink" x="0px" y="0px"
	 viewBox="0 0 42.9 39.1" style="enable-background:new 0 0 42.9 39.1;" xml:space="preserve">
<style type="text/css">
	.st0{fill:#2B3A4D;}
</style>
<g>
	<g>
		<path class="st0" d="M25,28h-7.2c-2.3,0-4.3-1.5-5.1-3.6H1.4v11.1c0,2,1.6,3.6,3.6,3.6l32.9,0c2,0,3.6-1.6,3.6-3.6V24.4H30.1
			C29.3,26.5,27.4,28,25,28z M35.8,7.2h-3.6V3.6c0-2-1.6-3.6-3.6-3.6H14.3c-2,0-3.6,1.6-3.6,3.6v3.6H7.2C3.2,7.2,0,10.4,0,14.4v6.5
			h16.1v1.8c0,1,0.8,1.8,1.8,1.8H25c1,0,1.8-0.8,1.8-1.8v-1.8h16.1v-6.5C42.9,10.4,39.7,7.2,35.8,7.2z M28.6,7.2H14.3V3.6h14.3V7.2z
			"/>
	</g>
</g>
</svg>
