<?xml version="1.0" encoding="utf-8"?>
<!-- Generator: Adobe Illustrator 24.1.2, SVG Export Plug-In . SVG Version: 6.00 Build 0)  -->
<svg version="1.1" id="Слой_1" xmlns="http://www.w3.org/2000/svg" xmlns:xlink="http://www.w3.org/1999/xlink" x="0px" y="0px"
	 viewBox="0 0 38.4 44.6" style="enable-background:new 0 0 38.4 44.6;" xml:space="preserve">
<style type="text/css">
	.st0{fill:#2B3A4D;}
</style>
<g>
	<g>
		<path class="st0" d="M19.2,38.8C8.6,38.8,0,36.9,0,34.5v4.3c0,3.8,9.6,5.8,19.2,5.8c9.7,0,19.2-1.9,19.2-5.8v-4.3
			C38.4,36.9,29.8,38.8,19.2,38.8z M19.2,30.8C8.6,30.8,0,28.9,0,26.5v4.3c0,3.8,9.6,5.8,19.2,5.8c9.7,0,19.2-1.9,19.2-5.8v-4.3
			C38.4,28.9,29.8,30.8,19.2,30.8z M19.2,27.9c10.6,0,19.2-1.9,19.2-4.3c0-2.4-8.6-4.3-19.2-4.3C8.6,19.3,0,21.3,0,23.6
			C0,26,8.6,27.9,19.2,27.9z M13.6,7.4h2.6v5.9c0,0.4,0.5,0.7,1,0.7h4.6c0.6,0,1-0.3,1-0.7V7.4h2.6c0.6,0,1.2-0.2,1.4-0.5
			C26.9,6.7,27,6.6,27,6.4c0-0.2-0.1-0.4-0.3-0.6l-5.9-5.4C20.5,0.2,20,0,19.5,0s-1,0.2-1.3,0.4l-5.9,5.4c-0.3,0.3-0.4,0.7-0.1,1.1
			C12.4,7.2,13,7.4,13.6,7.4z"/>
	</g>
</g>
</svg>
