<?xml version="1.0" encoding="utf-8"?>
<!-- Generator: Adobe Illustrator 24.1.2, SVG Export Plug-In . SVG Version: 6.00 Build 0)  -->
<svg version="1.1" id="Слой_1" xmlns="http://www.w3.org/2000/svg" xmlns:xlink="http://www.w3.org/1999/xlink" x="0px" y="0px"
	 viewBox="0 0 43.7 28.9" style="enable-background:new 0 0 43.7 28.9;" xml:space="preserve">
<style type="text/css">
	.st0{fill:#2B3A4D;}
</style>
<g>
	<g>
		<path class="st0" d="M21.9,11.8c3.2,0,5.9-2.6,5.9-5.9c0-3.3-2.6-5.9-5.9-5.9C18.6,0,16,2.6,16,5.9C16,9.2,18.6,11.8,21.9,11.8z
			 M35,11.7c2.4,0,4.4-2,4.4-4.4c0-2.4-2-4.4-4.4-4.4c-2.4,0-4.4,2-4.4,4.4C30.7,9.7,32.6,11.7,35,11.7z M43.7,22.1
			c-0.9-5.5-3.8-8.9-8.7-8.9c-1.9,0-3.4,0.5-4.7,1.4c0.2,0.2,0.3,0.3,0.5,0.5c2.1,2.2,3.5,5.4,4.2,9.5c0,0.2,0.1,0.3,0.1,0.4
			C39.9,25.1,44.1,24.2,43.7,22.1z M8.7,11.7c2.4,0,4.4-2,4.4-4.4c0-2.4-2-4.4-4.4-4.4s-4.4,2-4.4,4.4C4.3,9.7,6.3,11.7,8.7,11.7z
			 M13.4,14.6c-1.3-0.9-2.9-1.4-4.7-1.4c-4.9,0-7.8,3.3-8.7,8.9c-0.4,2.2,3.9,3,8.7,3c0-0.2,0-0.3,0.1-0.4c0.6-4.1,2.1-7.3,4.2-9.6
			C13.1,14.9,13.3,14.8,13.4,14.6z M21.9,13.1c-6.5,0-10.4,4.4-11.6,11.8c-0.5,2.9,5.2,4,11.6,4c6.4,0,12.1-1.1,11.6-4
			C32.3,17.5,28.4,13.1,21.9,13.1z"/>
	</g>
</g>
</svg>
