<?xml version="1.0" encoding="utf-8"?>
<!-- Generator: Adobe Illustrator 24.1.2, SVG Export Plug-In . SVG Version: 6.00 Build 0)  -->
<svg version="1.1" id="Слой_1" xmlns="http://www.w3.org/2000/svg" xmlns:xlink="http://www.w3.org/1999/xlink" x="0px" y="0px"
	 viewBox="0 0 43.6 43.6" style="enable-background:new 0 0 43.6 43.6;" xml:space="preserve">
<style type="text/css">
	.st0{fill:#2B3A4D;}
</style>
<g>
	<g>
		<path class="st0" d="M31.2,7.7c-1.2,0-2.4,0.5-3.3,1.4c-0.9,0.9-1.4,2.1-1.4,3.3s0.5,2.4,1.4,3.3c0.9,0.9,2.1,1.4,3.3,1.4
			s2.4-0.5,3.3-1.4c0.9-0.9,1.4-2.1,1.4-3.3c0-1.2-0.5-2.4-1.4-3.3C33.6,8.2,32.4,7.7,31.2,7.7z M34.2,11.8L34.2,11.8l-2.7,2.7
			c-0.3,0.3-0.6,0.4-1,0.4c-0.4,0-0.7-0.1-1-0.4l-1.1-1.1c-0.3-0.3-0.4-0.6-0.4-1c0-0.4,0.1-0.7,0.4-1c0.3-0.3,0.6-0.4,1-0.4
			c0.4,0,0.7,0.1,1,0.4l0.1,0.1l1.7-1.7c0.3-0.3,0.8-0.5,1.3-0.4c0.5,0.1,0.8,0.5,1,1C34.7,11,34.5,11.5,34.2,11.8z M42.2,9.2
			c-0.3-0.3-0.5-0.7-0.7-1.1c-0.1-0.4-0.2-0.9-0.3-1.3c-0.1-1.2-0.5-2.3-1.3-3.1c-0.9-0.8-2-1.2-3.1-1.3c-0.5,0-0.9-0.1-1.3-0.3
			c-0.4-0.2-0.8-0.4-1.1-0.7c-0.9-0.8-2-1.3-3.2-1.4C30,0.1,28.9,0.6,28,1.4c-0.3,0.3-0.7,0.5-1.1,0.7c-0.4,0.1-0.9,0.2-1.3,0.3
			c-1.2,0.1-2.3,0.5-3.2,1.3c-0.7,0.9-1.2,2-1.2,3.1c-0.1,0.5-0.1,0.9-0.3,1.3c-0.2,0.4-0.4,0.8-0.7,1.1c-0.8,0.9-1.3,2-1.4,3.2
			c0.1,1.2,0.6,2.3,1.4,3.2c0.3,0.3,0.5,0.7,0.7,1.1c0.1,0.4,0.2,0.9,0.3,1.3c0.1,1.2,0.5,2.3,1.2,3.2c0.9,0.7,2,1.2,3.2,1.2
			c0.5,0.1,0.9,0.1,1.3,0.3c0.4,0.2,0.8,0.4,1.1,0.7c0.9,0.8,2,1.3,3.2,1.4c1.2-0.1,2.3-0.6,3.2-1.4c0.3-0.3,0.7-0.5,1.1-0.7
			c0.4-0.1,0.9-0.2,1.3-0.3c1.2-0.1,2.3-0.5,3.1-1.2c0.8-0.9,1.2-2,1.3-3.2c0-0.5,0.1-0.9,0.3-1.3c0.2-0.4,0.4-0.8,0.7-1.1
			c0.8-0.9,1.3-2,1.4-3.2C43.5,11.2,43,10.1,42.2,9.2z M36.4,17.6c-1.4,1.4-3.3,2.2-5.2,2.2c-2,0-3.9-0.8-5.2-2.2
			c-1.4-1.4-2.2-3.3-2.2-5.2c0-2,0.8-3.9,2.2-5.2C27.3,5.7,29.2,5,31.2,5c2,0,3.9,0.8,5.2,2.2c1.4,1.4,2.2,3.3,2.2,5.2
			C38.6,14.4,37.8,16.2,36.4,17.6z M27.2,36.8h4.1V34h-4.1V36.8z M36.4,25.2c-0.1,0.1-0.2,0.2-0.4,0.4h0c-1.3,1.2-3,1.8-4.8,1.9
			c-1.8-0.1-3.5-0.8-4.8-1.9c-0.2-0.1-0.4-0.3-0.6-0.4c0,0-0.4-0.1-0.6-0.1c-1.7-0.1-3.4-0.8-4.7-2c-1.2-1.3-1.9-2.9-2-4.7
			c0-0.2-0.1-0.6-0.1-0.7c-0.1-0.1-0.2-0.2-0.4-0.4v0c-1.2-1.3-1.8-3-1.9-4.8c0.1-1.8,0.8-3.5,1.9-4.8c0.2-0.2,0.3-0.4,0.4-0.6
			c0,0,0.1-0.4,0.1-0.6c0-0.3,0.1-0.6,0.2-0.9H2.7C2,5.4,1.3,5.7,0.8,6.2C0.3,6.8,0,7.4,0,8.2v32.7c0,0.7,0.3,1.4,0.8,1.9
			c0.5,0.5,1.2,0.8,1.9,0.8h32.7c0.7,0,1.4-0.3,1.9-0.8c0.5-0.5,0.8-1.2,0.8-1.9V24.9c-0.3,0.1-0.6,0.1-0.9,0.1
			C36.9,25.1,36.6,25.2,36.4,25.2z M9.3,38.8c-0.2,0.4-0.7,0.7-1.2,0.7H5.4c-0.5,0-0.9-0.3-1.2-0.7c-0.2-0.4-0.2-0.9,0-1.4
			C4.5,37,5,36.8,5.4,36.8h2.7c0.5,0,0.9,0.3,1.2,0.7C9.6,37.9,9.6,38.4,9.3,38.8z M12.1,33.3c-0.2,0.4-0.7,0.7-1.2,0.7H5.4
			c-0.5,0-0.9-0.3-1.2-0.7C4,32.9,4,32.4,4.3,32c0.2-0.4,0.7-0.7,1.2-0.7h5.4c0.5,0,0.9,0.3,1.2,0.7C12.3,32.4,12.3,32.9,12.1,33.3z
			 M34,38.1c0,0.4-0.1,0.7-0.4,1c-0.3,0.3-0.6,0.4-1,0.4h-6.8c-0.4,0-0.7-0.1-1-0.4c-0.3-0.3-0.4-0.6-0.4-1v-5.4
			c0-0.4,0.1-0.7,0.4-1c0.3-0.3,0.6-0.4,1-0.4h6.8c0.4,0,0.7,0.1,1,0.4c0.3,0.3,0.4,0.6,0.4,1V38.1z"/>
	</g>
</g>
</svg>
