<?xml version="1.0" encoding="utf-8"?>
<!-- Generator: Adobe Illustrator 24.1.2, SVG Export Plug-In . SVG Version: 6.00 Build 0)  -->
<svg version="1.1" id="Слой_1" xmlns="http://www.w3.org/2000/svg" xmlns:xlink="http://www.w3.org/1999/xlink" x="0px" y="0px"
	 viewBox="0 0 39.3 41" style="enable-background:new 0 0 39.3 41;" xml:space="preserve">
<style type="text/css">
	.st0{fill:#2B3A4D;}
</style>
<g>
	<g>
		<path class="st0" d="M36.3,22.7l0-4.3c1.6-1.2,2.7-3.6,2.8-3.9c0.2-0.5,0.2-1-0.1-1.4l-3.2-5.5c-0.3-0.4-0.7-0.7-1.2-0.8
			c-0.5-0.1-1-0.1-1.5-0.1c-1.4,0-2.5,0.2-3.3,0.5L26.1,5c-0.2-2-1.8-4.1-2-4.4C23.8,0.3,23.3,0,22.8,0l-6.4,0h0
			c-0.5,0-1,0.2-1.3,0.6C15,0.9,13.4,3,13.2,5L9.4,7.2C8.6,6.8,7.4,6.7,6.1,6.7c-0.5,0-1,0-1.5,0.1C4.1,6.8,3.7,7.1,3.4,7.5L0.2,13
			c-0.3,0.4-0.3,1-0.1,1.4c0.1,0.3,1.2,2.7,2.8,3.9l0,4.3c-1.6,1.2-2.7,3.6-2.8,3.9C-0.1,27,0,27.5,0.2,28l3.2,5.5
			c0.3,0.4,0.7,0.7,1.2,0.8c0.5,0.1,1,0.1,1.5,0.1c1.4,0,2.5-0.2,3.3-0.5l3.8,2.2c0.2,2,1.8,4.1,2,4.4c0.3,0.4,0.8,0.6,1.3,0.6
			l6.4,0h0c0.5,0,1-0.2,1.3-0.6c0.2-0.3,1.8-2.4,2-4.4l3.8-2.2c0.8,0.4,2,0.5,3.3,0.5c0.5,0,1,0,1.5-0.1c0.5-0.1,0.9-0.4,1.2-0.8
			L39,28c0.3-0.4,0.3-1,0.1-1.4C39,26.2,37.9,23.8,36.3,22.7z M25.7,24c-1.3,2.1-3.6,3.4-6.1,3.4c-3.8,0.1-7-3-7-6.8
			c0-1.3,0.3-2.5,1-3.6c1.9-3.3,6.2-4.5,9.6-2.6C26.5,16.4,27.6,20.6,25.7,24z"/>
	</g>
</g>
</svg>
