<?xml version="1.0" encoding="utf-8"?>
<!-- Generator: Adobe Illustrator 24.1.2, SVG Export Plug-In . SVG Version: 6.00 Build 0)  -->
<svg version="1.1" id="Слой_1" xmlns="http://www.w3.org/2000/svg" xmlns:xlink="http://www.w3.org/1999/xlink" x="0px" y="0px"
	 viewBox="0 0 46.6 29.7" style="enable-background:new 0 0 46.6 29.7;" xml:space="preserve">
<style type="text/css">
	.st0{fill:#2B3A4D;}
</style>
<g>
	<g>
		<path class="st0" d="M8.7,12c2.4,0,4.3-2,4.3-4.5s-1.9-4.5-4.3-4.5c-2.4,0-4.3,2-4.3,4.5S6.3,12,8.7,12z M21.8,12.1
			c3.2,0,5.8-2.7,5.8-6.1C27.6,2.7,25,0,21.8,0c-3.2,0-5.8,2.7-5.8,6.1C15.9,9.4,18.5,12.1,21.8,12.1z M45.9,12.8
			c1.4-1.4,0.6-3.8-1.3-4.1L40.1,8c-0.8-0.1-1.4-0.6-1.8-1.3l-2-4.2c-0.9-1.8-3.4-1.8-4.2,0L30.4,6c0,0.1,0,0.1,0,0.2
			c0,2.5-1,4.8-2.6,6.4c5.2,0.9,7.4,5.2,8.8,11.4l2.7,1.4c1.7,0.9,3.8-0.6,3.4-2.6L42,18.2c-0.1-0.8,0.1-1.6,0.7-2.1L45.9,12.8z
			 M21.8,13.4c-6.5,0-10.3,4.5-11.6,12.1c-0.5,2.9,5.2,4.1,11.6,4.1c6.4,0,12-1.2,11.6-4.1C32.1,18,28.3,13.4,21.8,13.4z M13.4,15
			c-1.3-1-2.9-1.4-4.7-1.4c-4.9,0-7.7,3.3-8.6,9.1c-0.4,2.2,3.9,3.1,8.6,3.1c0-0.2,0-0.3,0.1-0.4c0.6-4.2,2-7.5,4.2-9.8
			C13.1,15.3,13.2,15.1,13.4,15z"/>
	</g>
</g>
</svg>
