<?xml version="1.0" encoding="utf-8"?>
<!-- Generator: Adobe Illustrator 24.1.2, SVG Export Plug-In . SVG Version: 6.00 Build 0)  -->
<svg version="1.1" id="Слой_3" xmlns="http://www.w3.org/2000/svg" xmlns:xlink="http://www.w3.org/1999/xlink" x="0px" y="0px"
	 viewBox="0 0 42.1 42.1" style="enable-background:new 0 0 42.1 42.1;" xml:space="preserve">
<style type="text/css">
	.st0{fill:#2B3A4D;}
</style>
<g>
	<g>
		<path class="st0" d="M40.6,0H16.5C15.7,0,15,0.7,15,1.5v3h-3c-0.8,0-1.5,0.7-1.5,1.5v6c0,0.8,0.7,1.5,1.5,1.5s1.5-0.7,1.5-1.5V7.5
			h21.1v27.1h-6c-0.8,0-1.5,0.7-1.5,1.5c0,0.8,0.7,1.5,1.5,1.5h7.5c0.8,0,1.5-0.7,1.5-1.5v-3h3c0.8,0,1.5-0.7,1.5-1.5V1.5
			C42.1,0.7,41.4,0,40.6,0z M39.1,30.1h-1.5V6c0-0.8-0.7-1.5-1.5-1.5h-18V3h21.1V30.1z M30.1,10.5h-12c-0.8,0-1.5,0.7-1.5,1.5
			c0,0.8,0.7,1.5,1.5,1.5h12c0.8,0,1.5-0.7,1.5-1.5C31.6,11.2,30.9,10.5,30.1,10.5z M30.1,16.5h-3c-0.8,0-1.5,0.7-1.5,1.5
			c0,0.8,0.7,1.5,1.5,1.5h3c0.8,0,1.5-0.7,1.5-1.5C31.6,17.2,30.9,16.5,30.1,16.5z M29,29c-0.3,0.3-0.4,0.7-0.4,1.1
			c0,0.4,0.2,0.8,0.4,1.1c0.3,0.3,0.7,0.4,1.1,0.4c0.4,0,0.8-0.2,1.1-0.4c0.3-0.3,0.4-0.7,0.4-1.1c0-0.4-0.2-0.8-0.4-1.1
			C30.6,28.4,29.6,28.4,29,29z M31.2,23c-0.6-0.6-1.6-0.6-2.1,0c-0.3,0.3-0.4,0.7-0.4,1.1c0,0.4,0.2,0.8,0.4,1.1
			c0.3,0.3,0.7,0.4,1.1,0.4c0.4,0,0.8-0.2,1.1-0.4c0.3-0.3,0.5-0.7,0.5-1.1C31.6,23.6,31.4,23.3,31.2,23z M26.8,25.5
			c0.1-0.4,0.1-0.8-0.1-1.1l-3-5.2c-0.2-0.3-0.5-0.6-0.9-0.7c-0.4-0.1-0.8,0-1.1,0.1l-2.2,1.3c-0.5-0.3-1-0.6-1.5-0.8v-2.5
			c0-0.8-0.7-1.5-1.5-1.5h-6c-0.8,0-1.5,0.7-1.5,1.5l0,2.5c-0.5,0.2-1,0.5-1.5,0.8l-2.2-1.3c-0.3-0.2-0.8-0.3-1.1-0.1
			c-0.4,0.1-0.7,0.4-0.9,0.7l-3,5.2c-0.2,0.3-0.3,0.8-0.1,1.1c0.1,0.4,0.4,0.7,0.7,0.9l2.2,1.3c0,0.3,0,0.6,0,0.8c0,0.3,0,0.6,0,0.8
			l-2.2,1.3c-0.3,0.2-0.6,0.5-0.7,0.9C-0.1,32,0,32.4,0.2,32.7l3,5.2c0.2,0.3,0.5,0.6,0.9,0.7c0.4,0.1,0.8,0,1.1-0.1l2.2-1.3
			c0.5,0.3,1,0.6,1.5,0.8v2.5c0,0.8,0.7,1.5,1.5,1.5h6c0.8,0,1.5-0.7,1.5-1.5v-2.5c0.5-0.2,1-0.5,1.5-0.8l2.2,1.3
			c0.3,0.2,0.8,0.2,1.1,0.1c0.4-0.1,0.7-0.4,0.9-0.7l3-5.2c0.2-0.3,0.3-0.8,0.1-1.1c-0.1-0.4-0.4-0.7-0.7-0.9l-2.2-1.3
			c0-0.3,0-0.6,0-0.8s0-0.6,0-0.8l2.2-1.3C26.5,26.3,26.7,25.9,26.8,25.5z M20.8,27.2c0.1,0.5,0.1,0.9,0.1,1.4c0,0.4,0,0.9-0.1,1.4
			c-0.1,0.6,0.2,1.3,0.7,1.6l1.8,1l-1.5,2.6l-1.8-1c-0.5-0.3-1.2-0.3-1.7,0.2c-0.7,0.6-1.5,1.1-2.4,1.4c-0.6,0.2-1,0.8-1,1.4v2h-3
			v-2c0-0.6-0.4-1.2-1-1.4c-0.9-0.3-1.7-0.8-2.4-1.4c-0.5-0.4-1.2-0.5-1.7-0.2l-1.8,1l-1.5-2.6l1.8-1c0.6-0.3,0.8-0.9,0.7-1.6
			C6,29.4,5.9,29,5.9,28.6s0-0.9,0.1-1.4c0.1-0.6-0.2-1.3-0.7-1.6l-1.8-1L5.1,22l1.8,1c0.6,0.3,1.2,0.3,1.7-0.2
			c0.7-0.6,1.5-1.1,2.4-1.4c0.6-0.2,1-0.8,1-1.4v-2h3v2c0,0.6,0.4,1.2,1,1.4c0.9,0.3,1.7,0.8,2.4,1.4c0.5,0.4,1.2,0.5,1.7,0.2l1.8-1
			l1.5,2.6l-1.8,1C21,25.9,20.7,26.6,20.8,27.2z M13.4,24c-2.5,0-4.5,2-4.5,4.5c0,2.5,2,4.5,4.5,4.5s4.5-2,4.5-4.5
			C17.9,26.1,15.9,24,13.4,24z M13.4,30.1c-0.8,0-1.5-0.7-1.5-1.5c0-0.8,0.7-1.5,1.5-1.5c0.8,0,1.5,0.7,1.5,1.5
			C14.9,29.4,14.3,30.1,13.4,30.1z"/>
	</g>
</g>
</svg>
