<?xml version="1.0" standalone="no"?>
<!DOCTYPE svg PUBLIC "-//W3C//DTD SVG 20010904//EN"
 "http://www.w3.org/TR/2001/REC-SVG-20010904/DTD/svg10.dtd">
<svg version="1.0" xmlns="http://www.w3.org/2000/svg"
 width="1152.000000pt" height="1152.000000pt" viewBox="0 0 1152.000000 1152.000000"
 preserveAspectRatio="xMidYMid meet">
<metadata>
Created by potrace 1.14, written by Peter Selinger 2001-2017
</metadata>
<g transform="translate(0.000000,1152.000000) scale(0.100000,-0.100000)"
fill="#000000" stroke="none">
<path d="M5660 10830 c0 -379 -2 -690 -5 -690 -3 0 -183 83 -399 185 -217 102
-397 185 -400 185 -3 0 -6 -1327 -6 -2950 0 -1622 -2 -2950 -5 -2950 -5 0
-122 55 -755 358 -173 83 -484 231 -690 330 l-375 179 -3 1435 -2 1435 -198
96 c-191 92 -841 406 -1360 656 -140 68 -256 121 -258 118 -2 -2 -3 -1037 -2
-2299 l3 -2295 385 174 c212 95 393 176 403 179 16 5 17 -22 17 -465 0 -312 3
-471 10 -471 6 0 53 20 105 44 l95 45 0 486 0 486 63 28 c34 16 212 101 396
190 183 88 335 161 337 161 2 0 4 -841 4 -1870 0 -1109 4 -1870 9 -1870 5 0
76 32 158 71 81 39 193 93 248 119 55 26 171 82 258 124 87 42 160 76 163 76
2 0 4 -337 4 -750 0 -501 3 -750 10 -750 6 0 53 20 105 44 l95 45 2 757 3 757
385 181 385 182 3 1004 2 1005 763 365 c419 200 831 397 915 438 l152 74 0
2087 0 2088 -127 61 c-71 33 -209 100 -308 147 -99 48 -222 107 -272 131 l-93
43 0 694 0 694 -77 33 c-43 18 -93 39 -110 46 l-33 14 0 -690z"/>
<path d="M9330 7379 c0 -252 -3 -459 -6 -459 -3 0 -183 83 -400 185 -216 102
-398 185 -404 185 -7 0 -10 -415 -10 -1341 0 -1069 -3 -1340 -12 -1336 -7 3
-188 89 -403 192 -214 103 -529 254 -700 335 -170 81 -400 191 -510 244 l-200
96 -3 -1370 c-1 -753 -1 -1986 0 -2739 l3 -1369 205 98 c113 54 381 182 595
284 215 103 533 255 708 338 l317 151 0 1866 0 1866 288 136 c158 75 567 271
910 435 l622 297 0 486 0 486 -397 186 -398 187 -3 464 -2 464 -100 46 -100
46 0 -459z"/>
</g>
</svg>
