<?xml version="1.0" encoding="utf-8"?>
<!-- Generator: Adobe Illustrator 24.1.2, SVG Export Plug-In . SVG Version: 6.00 Build 0)  -->
<svg version="1.1" id="Слой_1" xmlns="http://www.w3.org/2000/svg" xmlns:xlink="http://www.w3.org/1999/xlink" x="0px" y="0px"
	 viewBox="0 0 19 19.8" style="enable-background:new 0 0 19 19.8;" xml:space="preserve">
<style type="text/css">
	.st0{fill:#637A9F;}
</style>
<g>
	<g>
		<path class="st0" d="M18.6,8.4L11,0.6c-0.8-0.9-2.2-0.9-3,0L0.5,8.4C0.2,8.7,0,9.1,0,9.5v8.6c0,0.9,0.7,1.6,1.6,1.6H5
			c0.9,0,1.6-0.7,1.6-1.6v-3.3c0-1.7,1.2-3,2.9-3c1.5,0,2.9,1.4,2.9,3v3.3c0,0.9,0.7,1.6,1.6,1.6h3.5c0.9,0,1.6-0.7,1.6-1.6V9.5
			C19,9.1,18.9,8.7,18.6,8.4z"/>
	</g>
</g>
</svg>
