<?xml version="1.0" encoding="utf-8"?>
<!-- Generator: Adobe Illustrator 24.1.2, SVG Export Plug-In . SVG Version: 6.00 Build 0)  -->
<svg version="1.1" id="Слой_1" xmlns="http://www.w3.org/2000/svg" xmlns:xlink="http://www.w3.org/1999/xlink" x="0px" y="0px"
	 viewBox="0 0 19.8 20.7" style="enable-background:new 0 0 19.8 20.7;" xml:space="preserve">
<style type="text/css">
	.st0{fill:#637A9F;}
</style>
<g>
	<g>
		<path class="st0" d="M18.3,11.4l0-2.2c0.8-0.6,1.3-1.8,1.4-2c0.1-0.2,0.1-0.5,0-0.7l-1.6-2.8c-0.1-0.2-0.3-0.4-0.6-0.4
			c-0.2,0-0.5,0-0.7,0c-0.7,0-1.3,0.1-1.7,0.3l-1.9-1.1c-0.1-1-0.9-2.1-1-2.2C12,0.1,11.8,0,11.5,0L8.3,0h0C8,0,7.8,0.1,7.7,0.3
			c-0.1,0.1-0.9,1.2-1,2.2L4.7,3.6c-0.4-0.2-1-0.3-1.7-0.3c-0.2,0-0.5,0-0.7,0c-0.3,0-0.5,0.2-0.6,0.4L0.1,6.5C0,6.8,0,7,0.1,7.3
			c0.1,0.2,0.6,1.4,1.4,2l0,2.2c-0.8,0.6-1.3,1.8-1.4,2c-0.1,0.2-0.1,0.5,0,0.7l1.6,2.8c0.1,0.2,0.3,0.4,0.6,0.4c0.2,0,0.5,0,0.7,0
			c0.7,0,1.3-0.1,1.7-0.3l1.9,1.1c0.1,1,0.9,2.1,1,2.2c0.2,0.2,0.4,0.3,0.6,0.3l3.2,0h0c0.3,0,0.5-0.1,0.6-0.3
			c0.1-0.1,0.9-1.2,1-2.2l1.9-1.1c0.4,0.2,1,0.3,1.7,0.3c0.2,0,0.5,0,0.7,0c0.3,0,0.5-0.2,0.6-0.4l1.6-2.8c0.1-0.2,0.1-0.5,0-0.7
			C19.7,13.2,19.1,12,18.3,11.4z M13,12.1c-0.6,1.1-1.8,1.7-3.1,1.7c-1.9,0-3.5-1.5-3.5-3.4c0-0.6,0.2-1.3,0.5-1.8
			c1-1.7,3.1-2.3,4.8-1.3C13.3,8.3,13.9,10.4,13,12.1z"/>
	</g>
</g>
</svg>
