<?xml version="1.0" encoding="utf-8"?>
<!-- Generator: Adobe Illustrator 24.1.2, SVG Export Plug-In . SVG Version: 6.00 Build 0)  -->
<svg version="1.1" id="Слой_1" xmlns="http://www.w3.org/2000/svg" xmlns:xlink="http://www.w3.org/1999/xlink" x="0px" y="0px"
	 viewBox="0 0 19.9 22" style="enable-background:new 0 0 19.9 22;" xml:space="preserve">
<style type="text/css">
	.st0{fill:#637A9F;}
</style>
<g>
	<g>
		<path class="st0" d="M7.2,15.5c0.3,0.2,0.7,0.1,1-0.1l5.3-3.7c0.3-0.2,0.4-0.5,0.4-0.8c0-0.3-0.2-0.6-0.4-0.8L8.3,6.5
			C8.1,6.4,7.9,6.3,7.7,6.3c-0.2,0-0.3,0-0.5,0.1C6.9,6.6,6.7,6.9,6.7,7.3v1.6H0.9c-0.3,0-0.7,0.3-0.7,0.6v2.9
			c0,0.3,0.3,0.6,0.7,0.6h5.8v1.6C6.7,15,6.9,15.4,7.2,15.5z M14.8,0H5.1C2.3,0,0,2.2,0,5c0,0.8,0.6,1.4,1.4,1.4
			c0.8,0,1.4-0.6,1.4-1.4c0-1.2,1-2.2,2.2-2.2h9.8c1.2,0,2.2,1,2.2,2.2v11.9c0,1.2-1,2.2-2.2,2.2H5.1c-1.2,0-2.2-1-2.2-2.2
			c0-0.8-0.6-1.4-1.4-1.4c-0.8,0-1.4,0.6-1.4,1.4c0,2.8,2.3,5,5,5h9.8c2.8,0,5-2.2,5-5V5C19.9,2.2,17.6,0,14.8,0z"/>
	</g>
</g>
</svg>
