<?xml version="1.0" encoding="utf-8"?>
<!-- Generator: Adobe Illustrator 24.1.2, SVG Export Plug-In . SVG Version: 6.00 Build 0)  -->
<svg version="1.1" id="Слой_1" xmlns="http://www.w3.org/2000/svg" xmlns:xlink="http://www.w3.org/1999/xlink" x="0px" y="0px"
	 viewBox="0 0 20.1 19.2" style="enable-background:new 0 0 20.1 19.2;" xml:space="preserve">
<style type="text/css">
	.st0{fill:#637A9F;}
</style>
<g>
	<g>
		<path class="st0" d="M19.5,9.2c1.1-1.1,0.5-3-1.1-3.2l-3.6-0.5c-0.6-0.1-1.2-0.5-1.4-1l-1.6-3.3c-0.7-1.4-2.7-1.4-3.4,0L6.7,4.3
			c-0.3,0.6-0.8,1-1.4,1L1.6,5.9C0.1,6.1-0.6,8.1,0.6,9.2l2.6,2.6c0.5,0.4,0.7,1.1,0.5,1.7L3.1,17c-0.3,1.6,1.4,2.7,2.8,2l3.3-1.7
			c0.6-0.3,1.2-0.3,1.8,0l3.3,1.7c1.4,0.7,3-0.5,2.8-2l-0.6-3.6c-0.1-0.6,0.1-1.2,0.5-1.7L19.5,9.2z"/>
	</g>
</g>
</svg>
