<?xml version="1.0" encoding="utf-8"?>
<!-- Generator: Adobe Illustrator 24.1.2, SVG Export Plug-In . SVG Version: 6.00 Build 0)  -->
<svg version="1.1" id="Слой_1" xmlns="http://www.w3.org/2000/svg" xmlns:xlink="http://www.w3.org/1999/xlink" x="0px" y="0px"
	 viewBox="0 0 23.5 14.9" style="enable-background:new 0 0 23.5 14.9;" xml:space="preserve">
<style type="text/css">
	.st0{fill:#637A9F;}
</style>
<g>
	<g>
		<path class="st0" d="M6.7,7.6C6.1,7.1,5.3,6.8,4.4,6.8c-2.4,0-3.9,1.7-4.4,4.6C-0.2,12.5,2,13,4.4,13c0-0.1,0-0.2,0-0.2
			c0.3-2.1,1-3.8,2.1-5C6.6,7.7,6.7,7.6,6.7,7.6z M11,6.1c1.6,0,2.9-1.4,2.9-3.1C13.9,1.4,12.6,0,11,0C9.3,0,8,1.4,8,3.1
			C8,4.7,9.3,6.1,11,6.1z M4.4,6c1.2,0,2.2-1,2.2-2.3c0-1.3-1-2.3-2.2-2.3c-1.2,0-2.2,1-2.2,2.3C2.2,5,3.2,6,4.4,6z M11,6.8
			c-3.3,0-5.2,2.3-5.8,6.1c-0.2,1.5,2.6,2.1,5.8,2.1s6.1-0.6,5.8-2.1C16.2,9.1,14.2,6.8,11,6.8z M23.1,6.5c0.7-0.7,0.3-1.9-0.7-2.1
			L20.2,4c-0.4-0.1-0.7-0.3-0.9-0.7l-1-2.1c-0.4-0.9-1.7-0.9-2.1,0L15.3,3c0,0,0,0.1,0,0.1c0,1.3-0.5,2.4-1.3,3.2
			c2.6,0.5,3.7,2.6,4.4,5.7l1.3,0.7c0.9,0.5,1.9-0.3,1.7-1.3l-0.4-2.3c-0.1-0.4,0.1-0.8,0.3-1.1L23.1,6.5z"/>
	</g>
</g>
</svg>
