<?xml version="1.0" encoding="utf-8"?>
<!-- Generator: Adobe Illustrator 24.1.2, SVG Export Plug-In . SVG Version: 6.00 Build 0)  -->
<svg version="1.1" id="Слой_1" xmlns="http://www.w3.org/2000/svg" xmlns:xlink="http://www.w3.org/1999/xlink" x="0px" y="0px"
	 viewBox="0 0 19.8 16.2" style="enable-background:new 0 0 19.8 16.2;" xml:space="preserve">
<style type="text/css">
	.st0{fill:#637A9F;}
</style>
<g>
	<g>
		<path class="st0" d="M1.8,6.3C0.8,6.3,0,7.1,0,8.1c0,1,0.8,1.8,1.8,1.8c1,0,1.8-0.8,1.8-1.8C3.6,7.1,2.8,6.3,1.8,6.3z M1.8,12.6
			c-1,0-1.8,0.8-1.8,1.8c0,1,0.8,1.8,1.8,1.8c1,0,1.8-0.8,1.8-1.8C3.6,13.4,2.8,12.6,1.8,12.6z M7.2,3.6H18c1,0,1.8-0.8,1.8-1.8
			C19.8,0.8,19,0,18,0H7.2c-1,0-1.8,0.8-1.8,1.8C5.4,2.8,6.2,3.6,7.2,3.6z M18,6.3H7.2c-1,0-1.8,0.8-1.8,1.8c0,1,0.8,1.8,1.8,1.8H18
			c1,0,1.8-0.8,1.8-1.8C19.8,7.1,19,6.3,18,6.3z M1.8,0C0.8,0,0,0.8,0,1.8c0,1,0.8,1.8,1.8,1.8c1,0,1.8-0.8,1.8-1.8
			C3.6,0.8,2.8,0,1.8,0z M18,12.6H7.2c-1,0-1.8,0.8-1.8,1.8c0,1,0.8,1.8,1.8,1.8H18c1,0,1.8-0.8,1.8-1.8C19.8,13.4,19,12.6,18,12.6z
			"/>
	</g>
</g>
</svg>
